<?xml version="1.0" encoding="UTF-8" standalone="no"?><!-- Generator: Gravit.io --><svg xmlns="http://www.w3.org/2000/svg" xmlns:xlink="http://www.w3.org/1999/xlink" style="isolation:isolate" viewBox="42.75 -1.01 334.45 26.05" width="334.45pt" height="26.05pt"><path d=" M 368.186 -1.001 C 361.373 -1.045 354.652 -0.962 348.195 0.143 C 341.82 1.235 335.744 2.755 328.983 3.303 C 321.819 3.885 314.569 3.759 307.335 3.921 C 299.685 4.094 292.009 3.983 284.356 3.93 C 276.797 3.874 269.225 3.822 261.669 3.994 C 253.805 4.176 246.126 4.675 238.391 5.33 C 223.611 6.58 209.123 7.615 194.039 7.427 C 178.37 7.231 162.786 6.428 147.149 5.986 C 139.54 5.77 131.973 5.618 124.362 5.874 C 117.357 6.109 110.024 6.568 103.017 6.133 C 95.217 5.644 87.418 5.134 79.568 4.835 C 73.663 4.613 67.744 4.569 61.867 4.211 C 55.499 3.822 48.617 3.134 42.755 1.707 L 42.755 25.04 L 377.207 25.04 L 377.207 -0.953 C 374.201 -0.941 371.184 -0.98 368.186 -1.001 Z " fill="rgb(102,160,78)"/><path d=" M 67.014 13.661 C 62.803 13.661 58.587 13.464 54.386 13.305 C 50.507 13.158 46.638 12.896 42.755 12.738 L 42.755 4.21 C 43.915 4.445 45.104 4.655 46.313 4.845 C 45.759 4.884 45.204 4.929 44.653 4.99 C 44.508 5.005 44.492 5.098 44.613 5.128 C 50.547 6.743 58.001 6.923 63.575 8.824 L 49.8 8.824 C 49.635 8.824 49.554 8.935 49.713 8.968 C 52.229 9.524 54.99 9.825 57.472 10.41 C 54.718 10.717 51.94 10.981 49.117 11.128 C 48.948 11.136 48.891 11.224 49.034 11.271 C 53.048 12.6 58.003 12.999 62.944 12.999 C 65.265 12.999 67.584 12.911 69.801 12.79 C 77.559 12.368 85.084 11.396 92.727 10.695 C 94.16 10.565 95.599 10.448 97.044 10.36 C 97.222 10.349 97.288 10.233 97.09 10.211 C 92.576 9.672 87.956 9.373 83.332 9.108 C 87.977 9.019 92.582 8.701 97.208 8.498 C 99.489 8.398 101.779 8.317 104.072 8.251 C 104.476 8.265 104.881 8.276 105.287 8.285 C 106.196 8.305 107.109 8.314 108.024 8.314 C 113.09 8.314 118.219 8.039 123.187 7.874 C 126.08 7.779 128.967 7.741 131.852 7.741 C 132.77 7.741 133.688 7.744 134.606 7.752 C 135.458 7.759 136.311 7.769 137.164 7.781 C 153.772 8.406 170.089 10.307 186.722 10.947 C 189.881 11.07 193.042 11.134 196.205 11.134 C 198.365 11.134 200.527 11.104 202.689 11.043 C 208.046 10.886 213.373 10.56 218.68 10.196 C 223.8 9.849 228.969 9.547 233.995 8.976 C 238.907 8.416 243.692 7.657 248.516 6.96 C 249.963 6.752 251.428 6.545 252.896 6.354 C 256.025 6.192 259.172 6.067 262.347 5.994 C 266.284 5.906 270.226 5.877 274.168 5.877 C 277.893 5.877 281.619 5.903 285.34 5.93 L 285.34 5.93 C 285.776 5.933 286.211 5.936 286.646 5.939 C 289.471 5.961 292.297 5.987 295.124 6.002 C 293.656 6.16 292.192 6.333 290.743 6.523 C 290.56 6.549 290.593 6.675 290.786 6.675 C 295.282 6.678 299.771 6.802 304.268 6.825 C 301.914 7.143 299.581 7.479 297.201 7.753 C 297.002 7.775 297.062 7.896 297.244 7.905 C 305.34 8.258 313.55 8.537 321.726 8.537 C 334.287 8.537 346.77 7.878 358.643 5.812 C 359.04 5.741 359.438 5.67 359.831 5.598 C 360 5.566 359.994 5.446 359.786 5.446 C 356.775 5.446 353.763 5.438 350.762 5.325 C 356.55 4.453 362.341 3.576 367.988 2.527 C 368.159 2.495 368.148 2.381 367.945 2.377 C 366.968 2.361 365.991 2.354 365.014 2.354 C 360.561 2.354 356.113 2.504 351.681 2.685 C 349.732 2.763 347.785 2.835 345.842 2.905 C 346.091 2.858 346.339 2.811 346.587 2.764 C 347.734 2.549 348.882 2.34 350.04 2.143 C 355.792 1.172 361.748 0.99 367.795 0.99 C 368.629 0.99 369.465 0.994 370.301 0.999 C 372.597 1.015 374.902 1.041 377.207 1.048 L 377.207 5.004 C 372.712 5.331 368.346 5.94 363.98 6.515 C 357.263 7.403 350.46 8.295 343.61 8.928 C 336.565 9.583 329.412 9.772 322.234 9.775 C 322.217 9.775 322.198 9.775 322.181 9.775 C 307.36 9.775 292.655 8.97 277.934 8.29 C 273.307 8.078 268.648 7.912 263.993 7.912 C 261.77 7.912 259.55 7.95 257.332 8.039 C 253.085 8.209 248.925 8.601 244.779 9.028 C 239.506 9.336 234.268 9.753 229.035 10.177 C 225.247 10.484 221.462 10.795 217.663 11.072 C 217.656 11.073 217.649 11.074 217.641 11.075 C 214.635 11.294 211.622 11.493 208.594 11.651 C 204.695 11.856 200.793 11.965 196.892 12.006 C 196.254 11.953 195.617 11.901 194.978 11.851 C 188.19 11.308 181.345 10.973 174.486 10.666 C 167.746 10.369 161.008 9.985 154.25 9.792 C 150.121 9.673 145.987 9.617 141.854 9.617 C 132.497 9.617 123.142 9.904 113.847 10.399 C 107.022 10.764 100.226 11.229 93.453 11.766 C 90.123 12.031 86.795 12.312 83.472 12.607 C 80.149 12.903 76.837 13.263 73.484 13.474 C 71.33 13.609 69.173 13.661 67.014 13.661 Z " fill="rgb(87,141,75)"/><path d=" M 61.711 14.286 C 55.392 14.287 49.076 14.069 42.755 13.908 L 42.755 12.536 C 46.586 12.694 50.404 12.956 54.231 13.103 C 58.377 13.261 62.536 13.459 66.691 13.459 C 68.821 13.459 70.95 13.407 73.075 13.272 C 76.384 13.061 79.651 12.701 82.93 12.405 C 86.208 12.109 89.493 11.829 92.778 11.564 C 99.46 11.027 106.166 10.562 112.901 10.197 C 122.071 9.702 131.302 9.415 140.534 9.415 C 144.613 9.415 148.692 9.471 152.766 9.59 C 159.434 9.783 166.082 10.167 172.733 10.464 C 179.5 10.771 186.254 11.106 192.952 11.649 C 193.582 11.699 194.211 11.751 194.84 11.804 C 193.628 11.817 192.416 11.823 191.205 11.823 C 190.466 11.823 189.728 11.821 188.989 11.817 C 188.982 11.816 188.976 11.816 188.969 11.816 C 188.94 11.816 188.911 11.816 188.883 11.816 C 188.866 11.816 188.85 11.816 188.833 11.816 C 188.814 11.815 188.797 11.815 188.778 11.815 C 188.754 11.815 188.73 11.815 188.707 11.815 C 188.696 11.815 188.686 11.815 188.675 11.815 C 188.644 11.814 188.612 11.814 188.581 11.814 C 188.579 11.814 188.578 11.814 188.576 11.814 C 179.476 11.752 170.379 11.383 161.287 11.056 L 161.287 11.056 C 153.089 10.758 144.933 10.539 136.778 10.539 C 129.829 10.539 122.882 10.698 115.907 11.104 L 115.907 11.104 C 114.372 11.192 112.837 11.287 111.304 11.387 C 98.012 12.248 84.834 13.45 71.465 14.076 C 68.213 14.229 64.961 14.286 61.711 14.286 Z " fill="rgb(75,124,70)"/><path d=" M 317.124 10.234 C 310.137 10.234 303.146 10.062 296.202 9.817 C 284.06 9.391 271.766 8.548 259.539 8.548 C 256.689 8.548 253.844 8.594 251.004 8.701 C 248.772 8.785 246.551 8.897 244.335 9.028 C 248.426 8.601 252.53 8.209 256.721 8.039 C 258.909 7.95 261.1 7.912 263.293 7.912 C 267.886 7.912 272.483 8.078 277.048 8.29 C 291.574 8.97 306.083 9.775 320.706 9.775 C 320.723 9.775 320.742 9.775 320.759 9.775 C 327.841 9.772 334.899 9.583 341.85 8.928 C 348.609 8.295 355.321 7.403 361.949 6.515 C 366.257 5.94 370.565 5.331 375 5.004 L 375 7.043 C 374.97 7.043 374.94 7.043 374.91 7.043 C 370.913 7.046 366.933 7.14 362.922 7.438 C 355.62 7.975 348.453 8.827 341.163 9.39 C 333.22 10.005 325.175 10.234 317.124 10.234 Z " fill="rgb(75,124,70)"/><path d=" M 362.922 5.438 C 355.62 5.975 348.453 6.827 341.163 7.39 C 326.327 8.538 311.147 8.343 296.202 7.817 C 281.23 7.291 266.029 6.133 251.004 6.701 C 236.733 7.24 222.834 8.897 208.632 9.651 C 193.602 10.45 178.555 9.801 163.532 9.258 C 148.348 8.707 133.312 8.425 118.152 9.306 C 103.292 10.165 88.621 11.58 73.71 12.278 C 63.388 12.763 53.076 12.29 42.755 12.056 L 42.755 25.04 L 377.207 25.04 L 377.207 5.05 C 372.436 5.018 367.7 5.083 362.922 5.438 Z " fill="rgb(122,192,82)"/><path d=" M 102.635 14.989 C 102.332 14.989 102.028 14.987 101.724 14.984 C 103.69 14.756 105.677 14.568 107.538 14.188 C 107.681 14.158 107.621 14.045 107.47 14.045 C 107.465 14.045 107.459 14.045 107.453 14.045 C 103.843 14.232 100.221 14.357 96.597 14.357 C 94.785 14.357 92.972 14.326 91.16 14.256 C 93.484 14.062 95.742 13.722 97.813 13.189 C 97.948 13.154 97.898 13.046 97.742 13.046 C 97.738 13.046 97.734 13.046 97.729 13.046 C 97.088 13.069 96.44 13.077 95.785 13.083 C 97.379 12.912 98.964 12.717 100.542 12.512 C 104.872 12.19 109.205 11.87 113.55 11.589 C 115.082 11.489 116.616 11.395 118.152 11.306 L 118.152 11.306 C 125.127 10.9 132.074 10.741 139.023 10.741 C 147.178 10.741 155.334 10.96 163.532 11.258 L 163.532 11.258 C 172.623 11.586 181.721 11.954 190.821 12.016 C 190.823 12.016 190.824 12.016 190.826 12.016 C 190.857 12.016 190.889 12.016 190.92 12.017 C 190.931 12.017 190.941 12.017 190.952 12.017 C 190.975 12.017 191 12.017 191.023 12.017 C 191.042 12.017 191.06 12.018 191.078 12.018 C 191.095 12.018 191.111 12.018 191.128 12.018 C 191.157 12.018 191.185 12.018 191.214 12.018 C 191.22 12.019 191.228 12.019 191.234 12.019 C 191.353 12.019 191.472 12.02 191.591 12.021 C 190.102 12.175 188.603 12.312 187.094 12.425 C 184.708 12.602 182.269 12.714 179.837 12.714 C 177.805 12.714 175.777 12.635 173.789 12.45 C 173.285 12.375 172.767 12.318 172.226 12.281 C 172.215 12.281 172.206 12.28 172.196 12.28 C 172.008 12.28 171.932 12.403 172.136 12.431 C 172.655 12.495 173.175 12.551 173.701 12.599 C 174.274 12.687 174.825 12.808 175.334 12.961 C 170.927 12.896 166.509 12.88 162.118 12.664 C 162.111 12.664 162.103 12.663 162.096 12.663 C 161.919 12.663 161.913 12.788 162.077 12.813 C 162.634 12.903 163.183 13.008 163.722 13.116 C 156.491 12.786 149.233 12.582 141.96 12.582 C 141.246 12.582 140.531 12.584 139.817 12.588 C 139.632 12.588 139.584 12.719 139.774 12.737 C 141.128 12.866 142.459 13.034 143.788 13.213 C 143.23 13.217 142.671 13.219 142.112 13.219 C 141.476 13.219 140.839 13.217 140.201 13.215 C 139.563 13.213 138.925 13.211 138.286 13.211 C 135.589 13.211 132.896 13.249 130.247 13.485 C 125.916 13.871 121.67 14.647 117.213 14.66 C 117.879 14.458 118.585 14.295 119.276 14.112 C 119.433 14.07 119.345 13.969 119.189 13.969 C 119.176 13.969 119.162 13.97 119.148 13.972 C 113.702 14.508 108.208 14.989 102.635 14.989 Z " fill="rgb(145,200,95)"/><path d=" M 206.344 16.09 C 202.599 15.744 198.906 15.291 195.334 14.655 C 197.318 14.628 199.303 14.509 201.105 14.112 C 201.262 14.079 201.182 13.969 201.023 13.969 C 199.343 13.966 197.651 13.901 196.082 13.618 C 200.651 13.265 205.28 13.091 209.787 12.585 C 209.975 12.563 209.932 12.434 209.741 12.434 C 208.032 12.441 206.329 12.553 204.625 12.553 C 204.434 12.553 204.243 12.552 204.052 12.549 C 208.576 12.103 213.06 11.575 217.558 11.075 C 221.312 10.797 225.056 10.485 228.8 10.177 C 236.164 9.573 243.533 8.984 251.004 8.701 C 253.844 8.594 256.689 8.548 259.539 8.548 C 271.766 8.548 284.06 9.391 296.202 9.817 C 299.176 9.924 302.161 10.014 305.151 10.084 C 307.05 10.335 308.969 10.557 310.874 10.796 C 308.954 10.909 307.025 10.941 305.092 10.941 C 303.824 10.941 302.554 10.927 301.285 10.913 C 300.016 10.899 298.748 10.886 297.481 10.886 C 296.854 10.886 296.227 10.889 295.601 10.897 C 295.412 10.899 295.37 11.024 295.555 11.049 C 297.536 11.312 299.627 11.302 301.612 11.545 C 296.383 11.74 291.124 11.801 285.997 12.359 C 285.81 12.38 285.853 12.51 286.043 12.51 C 287.9 12.507 289.763 12.467 291.625 12.444 C 284.943 13.111 278.553 14.26 272.013 15.161 C 272.78 14.993 273.525 14.802 274.223 14.571 C 274.334 14.532 274.322 14.429 274.158 14.429 C 274.151 14.429 274.143 14.429 274.136 14.43 C 268.038 14.729 262.036 15.348 255.929 15.614 C 257.114 15.4 258.318 15.213 259.464 14.957 C 259.634 14.92 259.525 14.821 259.382 14.813 C 258.112 14.737 256.837 14.706 255.559 14.706 C 251.147 14.706 246.7 15.079 242.354 15.302 C 237.144 15.565 231.899 15.671 226.687 15.926 C 227.884 15.774 229.076 15.614 230.246 15.423 C 230.414 15.396 230.401 15.274 230.207 15.274 C 230.205 15.274 230.203 15.274 230.2 15.274 C 228.627 15.293 227.053 15.303 225.48 15.303 C 220.733 15.303 215.986 15.217 211.252 15.044 C 211.246 15.044 211.239 15.044 211.233 15.044 C 211.031 15.044 211.049 15.185 211.252 15.198 C 212.457 15.271 213.649 15.387 214.83 15.517 C 212.101 15.907 209.212 16.063 206.344 16.09 Z " fill="rgb(145,200,95)"/><path d=" M 374.91 7.043 C 374.94 7.043 374.97 7.043 375 7.043 L 375 7.043 C 374.97 7.043 374.94 7.043 374.91 7.043 Z " fill="rgb(61,106,64)"/><path d=" M 249.535 20.403 C 245.54 20.403 241.562 20.324 237.586 20.183 C 237.589 20.184 237.591 20.184 237.594 20.185 C 231.896 19.982 226.22 19.654 220.561 19.263 C 220.567 19.264 220.572 19.265 220.577 19.266 C 216.214 18.964 211.863 18.622 207.52 18.27 C 193.059 17.098 178.543 15.788 163.832 15.511 C 161.55 15.468 159.264 15.449 156.98 15.449 C 143.781 15.449 130.566 16.091 117.417 16.47 C 110.896 16.659 104.39 16.798 97.9 16.798 C 89.529 16.798 81.181 16.567 72.842 15.917 C 72.198 15.866 71.554 15.815 70.911 15.762 C 70.913 15.762 70.914 15.762 70.916 15.762 C 69.424 15.641 67.931 15.515 66.439 15.387 C 61.347 14.951 56.256 14.493 51.145 14.13 C 51.129 14.129 51.113 14.128 51.096 14.126 C 51.09 14.126 51.082 14.125 51.076 14.125 C 49.788 14.034 48.498 13.948 47.207 13.871 L 47.207 13.81 C 53.528 13.971 59.844 14.188 66.163 14.188 C 69.414 14.188 72.666 14.131 75.917 13.978 C 79.89 13.793 83.849 13.557 87.797 13.292 C 87.634 13.318 87.683 13.437 87.861 13.437 C 89.72 13.435 91.581 13.393 93.44 13.373 C 88.484 13.885 83.539 14.448 78.474 14.668 C 78.295 14.672 78.227 14.799 78.428 14.817 C 79.328 14.894 80.231 14.911 81.136 14.911 C 81.557 14.911 81.98 14.907 82.402 14.904 C 81.05 15.082 79.65 15.171 78.258 15.284 C 78.098 15.298 78.098 15.418 78.258 15.429 C 83.407 15.877 88.644 15.99 93.879 16.005 C 95.397 16.008 96.917 16.011 98.439 16.011 C 102.26 16.011 106.086 15.993 109.896 15.924 C 120.839 15.728 131.696 14.971 142.601 14.554 C 148.909 14.314 155.242 14.2 161.575 14.2 C 165.964 14.2 170.352 14.254 174.731 14.36 C 185.394 14.614 195.737 15.643 206.136 16.689 C 210.256 17.106 214.382 17.512 218.535 17.846 C 220.523 18.006 222.512 18.147 224.509 18.267 C 225.44 18.324 226.371 18.376 227.304 18.42 C 226.749 18.449 226.196 18.476 225.646 18.505 C 225.492 18.514 225.4 18.609 225.559 18.648 C 227.266 19.074 229.259 19.165 231.164 19.229 C 233.504 19.305 235.851 19.354 238.195 19.396 C 240.898 19.448 243.596 19.48 246.295 19.48 C 248.951 19.48 251.607 19.449 254.265 19.375 C 263.022 19.135 278.505 17.685 279.324 17.685 C 279.364 17.685 279.369 17.688 279.335 17.696 C 279.185 17.73 279.252 17.84 279.41 17.84 C 279.412 17.84 279.415 17.84 279.418 17.839 C 283.766 17.778 287.795 16.997 291.848 16.316 C 291.49 16.448 291.143 16.589 290.812 16.734 C 290.701 16.785 290.797 16.868 290.935 16.868 C 290.949 16.868 290.964 16.867 290.979 16.865 C 292.299 16.715 293.62 16.557 294.938 16.397 C 296.839 16.276 298.696 15.998 300.529 15.683 C 307.757 14.727 314.935 13.682 322.205 12.795 C 330.164 11.821 338.206 10.968 346.328 10.333 C 350.042 10.148 353.738 9.798 357.477 9.736 C 361.63 9.668 365.797 9.607 369.952 9.607 C 370.051 9.607 370.15 9.607 370.248 9.607 C 371.688 9.607 373.135 9.589 374.567 9.511 C 375.436 9.464 376.379 9.402 377.207 9.242 L 377.207 10.466 C 376.596 10.465 375.984 10.464 375.373 10.464 C 370.324 10.464 365.265 10.524 360.214 10.662 C 360.218 10.662 360.222 10.662 360.227 10.663 C 351.805 10.893 343.415 11.338 335.153 12.077 C 325.988 12.896 316.992 14.025 308.016 15.191 C 308.017 15.19 308.018 15.19 308.018 15.19 C 307.708 15.23 307.397 15.271 307.087 15.311 C 302.204 15.946 297.325 16.59 292.426 17.197 C 289.218 17.594 285.994 17.977 282.755 18.332 C 282.757 18.331 282.759 18.33 282.761 18.329 C 271.975 19.514 261.017 20.382 249.899 20.403 L 249.899 20.403 L 249.899 20.403 L 249.899 20.403 C 249.778 20.403 249.656 20.403 249.535 20.403 Z  M 377.207 7.624 C 377.184 7.617 377.161 7.611 377.138 7.605 C 375.707 7.233 373.947 7.106 372.343 7.007 C 371.43 6.951 370.517 6.916 369.6 6.886 C 372.106 6.786 374.609 6.745 377.117 6.742 C 377.147 6.742 377.177 6.742 377.207 6.742 L 377.207 7.624 Z " fill="rgb(89,162,80)"/><path d=" M 332.946 10.377 C 318.478 11.671 304.433 13.735 290.219 15.497 C 276.332 17.216 262.146 18.678 247.692 18.703 C 233.43 18.729 219.322 17.707 205.313 16.57 C 190.852 15.398 176.336 14.088 161.625 13.812 C 146.153 13.519 130.634 14.326 115.21 14.771 C 100.277 15.203 85.439 15.372 70.635 14.217 C 61.349 13.49 52.1 12.534 42.755 12.045 L 42.755 25.04 L 377.207 25.04 L 377.207 8.776 C 362.416 8.687 347.479 9.077 332.946 10.377 Z " fill="rgb(173,205,69)"/><path d=" M 235.396 20.487 C 229.7 20.285 224.026 19.959 218.37 19.566 C 218.365 19.565 218.36 19.564 218.354 19.563 C 224.013 19.955 229.689 20.283 235.387 20.485 C 235.39 20.485 235.393 20.486 235.396 20.487 Z  M 68.704 16.063 C 67.213 15.941 65.722 15.815 64.232 15.688 C 65.724 15.815 67.216 15.941 68.709 16.063 C 68.707 16.063 68.705 16.063 68.704 16.063 Z  M 304.88 15.612 C 305.19 15.571 305.501 15.531 305.811 15.49 C 305.811 15.49 305.81 15.491 305.809 15.491 C 305.499 15.531 305.19 15.571 304.88 15.612 Z " fill="rgb(83,154,79)"/><path d=" M 358.02 10.963 C 358.015 10.963 358.011 10.962 358.007 10.962 C 363.058 10.824 368.117 10.764 373.166 10.764 C 373.777 10.764 374.389 10.765 375 10.767 L 375 10.767 C 374.405 10.765 373.811 10.764 373.216 10.764 C 368.154 10.764 363.081 10.825 358.02 10.963 Z " fill="rgb(83,154,79)"/><path d=" M 331.884 24.47 L 282 24.47 C 282.449 24.391 282.916 24.336 283.384 24.28 C 281.474 24.226 279.55 24.266 277.643 24.19 C 275.866 24.122 273.698 24.03 272.368 23.421 C 272.285 23.385 272.316 23.304 272.441 23.292 C 278.761 22.797 284.904 21.96 290.913 20.944 C 290.246 20.909 289.576 20.897 288.906 20.897 C 288.159 20.897 287.41 20.912 286.662 20.927 C 285.915 20.942 285.168 20.957 284.424 20.957 C 282.985 20.957 281.557 20.901 280.155 20.68 C 280.032 20.659 279.972 20.567 280.114 20.539 C 280.934 20.376 281.793 20.251 282.603 20.078 C 281.883 20.091 281.163 20.117 280.445 20.117 C 279.749 20.117 279.055 20.093 278.367 20.012 C 278.189 19.991 278.224 19.892 278.367 19.864 C 281.477 19.27 284.997 19.107 287.918 18.316 C 286.24 18.285 284.558 18.308 282.883 18.224 C 282.725 18.215 282.686 18.146 282.755 18.103 C 285.994 17.748 289.218 17.364 292.426 16.967 C 297.324 16.361 302.203 15.718 307.087 15.082 C 307.397 15.041 307.706 15.001 308.016 14.961 C 303.313 16.006 298.246 16.685 293.231 17.358 C 293.048 17.383 293.091 17.504 293.278 17.506 C 293.485 17.511 293.691 17.514 293.898 17.514 C 294.833 17.514 295.761 17.465 296.686 17.408 C 293.229 17.994 289.866 18.7 286.303 19.149 C 286.118 19.172 286.161 19.295 286.349 19.298 C 286.534 19.302 286.719 19.304 286.904 19.304 C 288.453 19.304 289.986 19.186 291.528 19.121 C 290.06 19.47 288.44 19.662 286.932 19.977 C 286.775 20.007 286.864 20.118 287.019 20.118 C 287.15 20.119 287.282 20.119 287.414 20.119 C 292.251 20.119 296.948 19.538 301.722 19.25 C 300.077 19.619 298.393 19.945 296.771 20.333 C 296.632 20.367 296.685 20.477 296.841 20.477 C 296.846 20.477 296.851 20.477 296.856 20.477 C 298.219 20.414 299.5 20.178 300.839 20.064 C 294.99 21.836 288.204 22.799 281.384 23.448 C 281.188 23.467 281.253 23.59 281.428 23.6 C 281.913 23.617 282.396 23.625 282.876 23.625 C 288.717 23.625 294.198 22.45 299.951 22.097 C 299.106 22.37 298.17 22.581 297.408 22.904 C 297.284 22.957 297.403 23.034 297.545 23.034 C 297.554 23.034 297.562 23.033 297.57 23.033 C 302.485 22.67 306.798 21.464 311.547 20.851 C 310.805 21.2 309.915 21.47 309.068 21.764 C 308.951 21.807 308.964 21.88 309.109 21.906 C 309.751 22.016 310.43 22.054 311.114 22.054 C 311.843 22.054 312.58 22.011 313.286 21.964 C 315.083 21.846 316.881 21.68 318.67 21.531 C 320.939 21.346 323.187 21.11 325.421 20.842 C 325.298 20.879 325.179 20.914 325.056 20.946 C 324.938 20.981 324.944 21.074 325.096 21.087 C 325.952 21.163 326.804 21.196 327.653 21.196 C 331.051 21.196 334.391 20.671 337.65 20.254 C 341.631 19.746 345.786 19.403 349.482 18.519 C 349.604 18.494 349.587 18.39 349.444 18.379 C 349.045 18.351 348.648 18.34 348.251 18.34 C 347.367 18.34 346.486 18.396 345.603 18.45 C 348.962 18.114 352.443 18.033 355.705 17.504 C 355.865 17.478 355.863 17.383 355.705 17.358 C 354.407 17.143 353.009 17.069 351.595 17.069 C 350.674 17.069 349.745 17.101 348.834 17.144 C 351.989 16.733 355.193 16.372 358.463 16.244 C 361.44 16.128 364.156 15.638 367.483 15.451 C 367.638 15.442 367.567 15.332 367.441 15.309 C 366.031 15.066 364.581 15.011 363.117 15.011 C 362.511 15.011 361.902 15.02 361.293 15.03 C 360.684 15.039 360.074 15.048 359.466 15.048 C 358.696 15.048 357.928 15.033 357.166 14.984 C 363.077 13.488 370.091 13.518 376.496 12.744 C 376.645 12.727 376.651 12.64 376.536 12.606 C 373.928 11.777 370.72 11.428 367.661 11.127 C 365.193 10.883 362.716 10.633 360.227 10.433 C 365.288 10.295 370.361 10.234 375.423 10.234 C 376.018 10.234 376.612 10.235 377.207 10.237 L 377.207 13.921 C 375.784 14.036 374.379 14.197 373.013 14.403 C 374.239 14.541 375.509 14.576 376.72 14.748 C 376.848 14.763 376.899 14.857 376.761 14.887 C 375.129 15.226 373.362 15.428 371.804 15.836 C 373.533 16.131 375.542 15.798 377.207 16.224 L 377.207 16.371 C 376.676 16.515 375.355 16.799 374.608 16.885 C 373.396 17.019 372.222 17.222 371.065 17.44 C 368.51 17.915 366.008 18.463 363.582 19.065 C 359.265 20.134 355.012 21.275 350.447 22.118 C 352.024 22.035 353.59 21.904 355.176 21.904 C 355.336 21.904 355.497 21.906 355.658 21.909 C 355.792 21.911 355.895 21.996 355.777 22.041 C 354.862 22.386 353.724 22.547 352.712 22.815 C 354.227 22.755 355.734 22.552 357.246 22.552 C 357.737 22.552 358.229 22.574 358.722 22.628 C 358.868 22.643 358.879 22.736 358.76 22.769 C 356.786 23.345 354.214 23.576 351.957 23.821 C 349.192 24.117 346.368 24.23 343.536 24.303 C 339.675 24.403 335.764 24.371 331.884 24.47 Z  M 202.035 24.47 L 82.956 24.47 C 82.774 24.458 82.593 24.447 82.412 24.434 C 77.856 24.127 72.713 24.03 68.828 22.769 C 68.729 22.736 68.71 22.665 68.828 22.637 C 70.803 22.122 72.918 21.748 75.087 21.447 C 74.783 21.432 74.48 21.425 74.177 21.425 C 73.242 21.425 72.313 21.487 71.382 21.549 C 70.451 21.611 69.519 21.673 68.58 21.673 C 68.282 21.673 67.984 21.666 67.685 21.652 C 67.519 21.644 67.453 21.555 67.599 21.508 C 68.431 21.256 69.279 21.014 70.177 20.817 C 68.4 20.877 66.617 20.933 64.834 20.933 C 64.517 20.933 64.201 20.931 63.884 20.927 C 61.718 20.898 59.664 20.747 57.552 20.539 C 54.757 20.265 51.118 20.012 49.23 18.918 C 49.169 18.882 49.158 18.82 49.264 18.797 C 52.131 18.198 55.457 18.41 58.537 18.26 C 57.682 18.106 56.815 17.97 55.972 17.804 C 55.836 17.777 55.882 17.678 56.015 17.665 C 57.104 17.548 58.207 17.518 59.32 17.509 C 56.558 17.026 53.726 16.629 50.981 16.122 C 50.835 16.097 50.81 15.998 50.981 15.974 C 52.717 15.746 54.53 15.796 56.306 15.69 C 55.587 15.476 54.687 15.408 53.962 15.194 C 53.835 15.156 53.861 15.076 53.998 15.054 C 56.276 14.694 58.668 14.694 61.046 14.694 C 57.832 14.418 54.614 14.149 51.389 13.918 C 56.418 14.278 61.428 14.729 66.439 15.158 C 67.93 15.285 69.42 15.411 70.911 15.533 C 70.688 15.538 70.463 15.542 70.24 15.546 C 66.443 15.606 62.645 15.653 58.853 15.718 C 58.68 15.718 58.628 15.816 58.765 15.859 C 60.816 16.499 63.208 16.833 65.611 17.092 C 64.827 17.144 64.059 17.231 63.28 17.306 C 63.089 17.323 63.138 17.456 63.321 17.456 C 64.134 17.456 64.944 17.461 65.752 17.481 C 64.64 17.699 63.706 18.049 62.757 18.401 C 62.637 18.445 62.745 18.531 62.876 18.531 C 63.028 18.533 63.179 18.533 63.331 18.533 C 64.465 18.533 65.612 18.487 66.761 18.441 C 67.91 18.396 69.06 18.35 70.201 18.35 C 71.17 18.35 72.133 18.383 73.082 18.477 C 72.523 18.586 71.948 18.679 71.399 18.797 C 71.261 18.829 71.313 18.92 71.441 18.939 C 72.176 19.041 72.924 19.077 73.677 19.077 C 74.935 19.077 76.209 18.977 77.463 18.918 C 76.806 19.107 76.187 19.321 75.534 19.515 C 75.399 19.555 75.46 19.66 75.607 19.66 C 75.625 19.66 75.644 19.658 75.665 19.655 C 79.128 19.063 82.82 18.949 86.516 18.949 C 88.221 18.949 89.928 18.974 91.612 18.986 C 90.771 19.102 89.966 19.27 89.175 19.463 C 89.005 19.504 89.113 19.606 89.272 19.606 C 89.282 19.606 89.292 19.606 89.302 19.605 C 90.774 19.481 92.277 19.414 93.778 19.414 C 94.516 19.414 95.253 19.43 95.987 19.463 C 94.296 19.748 92.731 20.164 91.186 20.59 C 91.057 20.625 91.098 20.732 91.259 20.732 C 91.263 20.732 91.268 20.732 91.272 20.732 C 94.355 20.612 97.451 20.688 100.536 20.595 C 102.548 20.537 104.569 20.45 106.582 20.356 C 103.295 20.851 100.103 21.473 97.11 22.278 C 96.985 22.312 97.018 22.422 97.173 22.422 C 97.18 22.422 97.187 22.422 97.194 22.421 C 97.885 22.381 98.573 22.348 99.265 22.331 C 98.662 22.47 98.063 22.612 97.526 22.803 C 97.431 22.834 97.48 22.921 97.6 22.929 C 98.752 23.007 99.908 23.041 101.066 23.041 C 102.543 23.041 104.021 22.986 105.491 22.896 C 105.012 23.016 104.553 23.155 104.122 23.315 C 104.001 23.358 104.105 23.442 104.241 23.445 C 104.395 23.446 104.549 23.446 104.704 23.446 C 111.839 23.446 118.819 22.639 125.729 21.892 C 125.084 22.092 124.403 22.269 123.797 22.494 C 123.679 22.538 123.782 22.622 123.915 22.625 C 123.969 22.626 124.024 22.626 124.078 22.626 C 126.331 22.626 128.48 22.156 130.564 21.812 C 132.869 21.43 135.372 21.074 137.814 20.914 C 137.407 21.131 136.989 21.351 136.626 21.59 C 136.535 21.647 136.661 21.702 136.785 21.702 C 136.809 21.702 136.834 21.7 136.856 21.695 C 140.031 21.04 143.338 20.651 146.708 20.37 C 144.328 20.875 142.134 21.563 140.229 22.392 C 140.101 22.447 140.223 22.519 140.363 22.519 C 140.386 22.519 140.41 22.517 140.433 22.513 C 141.916 22.226 143.486 22.061 145.01 21.829 C 144.251 22.088 143.513 22.362 142.8 22.649 C 142.7 22.689 142.767 22.781 142.903 22.781 C 142.909 22.781 142.914 22.781 142.92 22.781 C 147.654 22.489 152.364 22.115 157.081 21.774 C 156.308 21.964 155.538 22.159 154.793 22.381 C 154.661 22.421 154.708 22.525 154.88 22.525 C 157.926 22.501 160.758 21.781 163.793 21.781 C 164.014 21.781 164.238 21.785 164.462 21.794 C 165.937 21.846 167.241 22.254 168.522 22.552 C 169.596 22.806 170.722 22.987 171.931 22.987 C 172.023 22.987 172.115 22.986 172.208 22.984 C 172.313 22.981 172.406 22.935 172.368 22.887 C 172.249 22.715 172.093 22.552 171.918 22.392 C 173.214 22.634 174.614 22.769 175.965 22.929 C 175.98 22.931 175.994 22.932 176.008 22.932 C 176.13 22.932 176.225 22.869 176.153 22.817 C 175.932 22.649 175.672 22.496 175.385 22.35 C 176.755 22.655 178.319 22.807 179.765 22.924 C 182.281 23.127 184.841 23.168 187.366 23.34 C 187.376 23.341 187.386 23.341 187.396 23.341 C 187.567 23.341 187.65 23.247 187.497 23.201 C 187.375 23.16 187.25 23.124 187.127 23.087 C 189.611 23.201 192.152 23.203 194.565 23.343 C 194.572 23.344 194.578 23.344 194.584 23.344 C 194.722 23.344 194.778 23.253 194.687 23.211 C 194.578 23.163 194.471 23.119 194.361 23.076 C 194.981 23.1 195.606 23.105 196.215 23.105 C 196.692 23.105 197.16 23.102 197.604 23.101 C 200.621 23.087 203.629 23.068 206.572 22.725 C 206.698 22.709 206.734 22.637 206.645 22.598 C 206.452 22.505 206.246 22.419 206.034 22.336 C 206.34 22.349 206.646 22.356 206.95 22.356 C 207.346 22.356 207.741 22.344 208.135 22.317 C 208.249 22.308 208.286 22.243 208.239 22.204 C 207.678 21.764 206.892 21.391 206.008 21.062 C 210.535 21.85 215.29 22.584 220.058 22.584 C 221.638 22.584 223.221 22.503 224.796 22.317 C 224.946 22.296 224.946 22.212 224.835 22.176 C 223.247 21.65 221.48 21.261 219.674 20.915 C 222.167 21.194 224.808 21.433 227.381 21.433 C 229.026 21.433 230.643 21.335 232.174 21.087 C 232.324 21.066 232.344 20.96 232.174 20.939 C 230.426 20.729 228.553 20.75 226.872 20.456 C 227.764 20.513 228.66 20.539 229.557 20.539 C 231.107 20.539 232.658 20.46 234.186 20.32 C 234.379 20.303 234.32 20.173 234.141 20.169 C 230.927 20.105 227.858 19.847 224.721 19.543 C 223.381 19.415 221.91 19.283 220.577 19.037 C 226.233 19.429 231.907 19.756 237.603 19.957 C 238.274 20.075 238.941 20.197 239.588 20.333 C 239.739 20.365 239.673 20.452 239.55 20.473 C 238.399 20.677 237.175 20.722 235.958 20.784 C 237.989 20.981 240.094 20.987 242.121 21.195 C 242.259 21.208 242.294 21.307 242.164 21.335 C 238.831 22.052 235.136 22.061 231.585 22.37 C 231.989 22.449 232.386 22.536 232.773 22.637 C 232.899 22.668 232.874 22.76 232.732 22.778 C 231.449 22.921 230.144 22.963 228.831 22.963 C 227.903 22.963 226.971 22.942 226.04 22.921 C 225.11 22.9 224.18 22.879 223.255 22.879 C 223.2 22.879 223.144 22.879 223.089 22.879 C 224.311 23.191 225.699 23.331 226.961 23.608 C 227.127 23.644 227.021 23.745 226.874 23.751 C 219.094 24.111 211.284 24.384 203.469 24.398 C 202.991 24.422 202.513 24.446 202.035 24.47 Z  M 51.382 13.917 C 51.369 13.916 51.356 13.915 51.343 13.914 C 51.355 13.915 51.369 13.916 51.382 13.917 Z " fill="rgb(158,195,73)"/><path d=" M 279.793 25 L 199.828 25 C 200.306 24.976 200.784 24.952 201.262 24.928 C 209.077 24.914 216.887 24.641 224.667 24.281 C 224.814 24.274 224.92 24.174 224.754 24.138 C 223.492 23.861 222.104 23.721 220.882 23.409 C 220.937 23.409 220.993 23.409 221.048 23.409 C 221.973 23.409 222.903 23.43 223.833 23.451 C 224.764 23.472 225.696 23.493 226.624 23.493 C 227.937 23.493 229.242 23.451 230.525 23.308 C 230.667 23.29 230.692 23.198 230.566 23.167 C 230.179 23.065 229.782 22.979 229.378 22.899 C 232.929 22.591 236.624 22.582 239.957 21.864 C 240.087 21.837 240.052 21.738 239.914 21.725 C 237.887 21.517 235.782 21.511 233.751 21.313 C 234.968 21.252 236.192 21.207 237.343 21.003 C 237.466 20.981 237.532 20.895 237.381 20.863 C 236.734 20.727 236.067 20.605 235.396 20.487 C 239.309 20.625 243.234 20.704 247.169 20.703 C 247.278 20.703 247.388 20.703 247.496 20.703 C 247.506 20.703 247.515 20.703 247.525 20.703 C 247.581 20.703 247.637 20.703 247.692 20.703 L 247.692 20.703 L 247.692 20.703 C 258.807 20.684 269.764 19.815 280.548 18.632 C 280.479 18.676 280.518 18.745 280.676 18.754 C 282.351 18.838 284.033 18.814 285.711 18.846 C 282.79 19.637 279.27 19.8 276.16 20.394 C 276.017 20.422 275.982 20.521 276.16 20.542 C 276.848 20.623 277.542 20.646 278.238 20.646 C 278.956 20.646 279.676 20.621 280.396 20.607 C 279.586 20.781 278.727 20.906 277.907 21.068 C 277.765 21.097 277.825 21.188 277.948 21.21 C 279.35 21.43 280.778 21.486 282.217 21.486 C 282.961 21.486 283.708 21.471 284.455 21.456 C 285.203 21.441 285.952 21.426 286.699 21.426 C 287.369 21.426 288.039 21.439 288.706 21.474 C 282.697 22.489 276.554 23.327 270.234 23.822 C 270.109 23.834 270.078 23.915 270.161 23.951 C 271.491 24.56 273.659 24.651 275.436 24.72 C 277.343 24.796 279.267 24.756 281.177 24.81 C 280.709 24.866 280.242 24.921 279.793 25 Z " fill="rgb(133,177,76)"/><path d=" M 78.503 20.487 L 42.755 20.487 L 42.755 9.658 C 43.788 9.72 44.82 9.787 45.851 9.858 C 45.86 9.858 45.869 9.859 45.878 9.86 C 45.898 9.861 45.918 9.862 45.938 9.864 C 45.959 9.865 45.978 9.867 45.999 9.868 C 46.004 9.868 46.01 9.869 46.016 9.869 C 46.308 9.889 46.599 9.91 46.891 9.931 C 46.904 9.932 46.917 9.933 46.93 9.934 C 46.932 9.934 46.934 9.934 46.937 9.934 C 50.162 10.166 53.38 10.434 56.594 10.71 C 54.216 10.71 51.824 10.71 49.546 11.071 C 49.409 11.092 49.383 11.172 49.51 11.21 C 50.234 11.424 51.135 11.492 51.854 11.706 C 50.078 11.813 48.265 11.762 46.529 11.99 C 46.357 12.015 46.383 12.113 46.529 12.139 C 49.273 12.646 52.106 13.042 54.868 13.526 C 53.755 13.534 52.652 13.565 51.562 13.681 C 51.43 13.695 51.384 13.793 51.52 13.82 C 52.363 13.987 53.229 14.122 54.084 14.277 C 51.005 14.426 47.679 14.214 44.812 14.814 C 44.706 14.836 44.717 14.899 44.778 14.934 C 46.666 16.029 50.305 16.281 53.1 16.555 C 55.212 16.763 57.266 16.914 59.432 16.944 C 59.749 16.947 60.065 16.949 60.382 16.949 C 62.165 16.949 63.948 16.893 65.725 16.833 C 64.827 17.031 63.979 17.273 63.147 17.525 C 63.001 17.571 63.067 17.66 63.232 17.668 C 63.532 17.683 63.83 17.689 64.128 17.689 C 65.067 17.689 65.999 17.627 66.93 17.565 C 67.861 17.503 68.79 17.441 69.725 17.441 C 70.028 17.441 70.331 17.448 70.635 17.463 C 68.466 17.764 66.351 18.139 64.375 18.654 C 64.258 18.682 64.277 18.752 64.375 18.785 C 68.261 20.046 73.404 20.144 77.96 20.45 C 78.141 20.463 78.322 20.475 78.503 20.487 Z " fill="rgb(133,177,76)"/></svg>