<?xml version="1.0" encoding="UTF-8" standalone="no"?><!-- Generator: Gravit.io --><svg xmlns="http://www.w3.org/2000/svg" xmlns:xlink="http://www.w3.org/1999/xlink" style="isolation:isolate" viewBox="-960.6 -3 1337.81 28.04" width="1337.81pt" height="28.04pt"><path d=" M 368.186 -1.001 C 361.373 -1.045 354.652 -0.962 348.195 0.143 C 341.82 1.235 335.744 2.755 328.983 3.303 C 321.819 3.885 314.569 3.759 307.335 3.921 C 299.685 4.094 299.181 -2.946 291.528 -3 C 283.969 -3.056 269.225 3.822 261.669 3.994 C 253.805 4.176 245.93 3.555 238.195 4.21 C 223.415 5.46 213.084 2.332 198 2.143 C 188.181 2.021 174.434 6.943 164.647 6.582 C 158.817 6.366 152.546 8.866 146.708 8.701 C 139.099 8.485 131.973 5.618 124.362 5.874 C 118.019 4.054 111.236 4.707 103.017 5.446 C 96.124 6.937 87.418 9.226 79.568 8.928 C 73.663 8.706 67.744 6.298 61.867 5.939 C 55.499 5.551 48.617 3.134 42.755 1.707 L 42.755 25.04 L 377.207 25.04 L 377.207 -0.953 C 374.201 -0.941 371.184 -0.98 368.186 -1.001 Z " fill="rgb(102,160,78)"/><path d=" M 67.014 13.661 C 62.803 13.661 58.587 13.464 54.386 13.305 C 50.507 13.158 46.638 12.896 42.755 12.738 L 42.755 4.21 C 43.915 4.445 45.104 4.655 46.313 4.845 C 45.759 4.884 45.204 4.929 44.653 4.99 C 44.508 5.005 44.492 5.098 44.613 5.128 C 50.547 6.743 58.001 6.923 63.575 8.824 L 49.8 8.824 C 49.635 8.824 49.554 8.935 49.713 8.968 C 52.229 9.524 54.99 9.825 57.472 10.41 C 54.718 10.717 51.94 10.981 49.117 11.128 C 48.948 11.136 48.891 11.224 49.034 11.271 C 53.048 12.6 58.003 12.999 62.944 12.999 C 65.265 12.999 67.584 12.911 69.801 12.79 C 77.559 12.368 85.084 11.396 92.727 10.695 C 94.16 10.565 95.599 10.448 97.044 10.36 C 97.222 10.349 97.288 10.233 97.09 10.211 C 92.576 9.672 87.956 9.373 83.332 9.108 C 87.977 9.019 92.582 8.701 97.208 8.498 C 99.489 8.398 101.779 8.317 104.072 8.251 C 104.476 8.265 104.881 8.276 105.287 8.285 C 106.196 8.305 107.109 8.314 108.024 8.314 C 113.09 8.314 118.219 8.039 123.187 7.874 C 126.08 7.779 128.967 7.741 131.852 7.741 C 132.77 7.741 133.688 7.744 134.606 7.752 C 135.458 7.759 136.311 7.769 137.164 7.781 C 153.772 8.406 170.089 10.307 186.722 10.947 C 189.881 11.07 193.042 11.134 196.205 11.134 C 198.365 11.134 200.527 11.104 202.689 11.043 C 208.046 10.886 213.373 10.56 218.68 10.196 C 223.8 9.849 228.969 9.547 233.995 8.976 C 238.907 8.416 243.692 7.657 248.516 6.96 C 249.963 6.752 251.428 6.545 252.896 6.354 C 256.025 6.192 259.172 6.067 262.347 5.994 C 266.284 5.906 270.226 5.877 274.168 5.877 C 277.893 5.877 281.619 5.903 285.34 5.93 L 285.34 5.93 C 285.776 5.933 286.211 5.936 286.646 5.939 C 289.471 5.961 292.297 5.987 295.124 6.002 C 293.656 6.16 292.192 6.333 290.743 6.523 C 290.56 6.549 290.593 6.675 290.786 6.675 C 295.282 6.678 299.771 6.802 304.268 6.825 C 301.914 7.143 299.581 7.479 297.201 7.753 C 297.002 7.775 297.062 7.896 297.244 7.905 C 305.34 8.258 313.55 8.537 321.726 8.537 C 334.287 8.537 346.77 7.878 358.643 5.812 C 359.04 5.741 359.438 5.67 359.831 5.598 C 360 5.566 359.994 5.446 359.786 5.446 C 356.775 5.446 353.763 5.438 350.762 5.325 C 356.55 4.453 362.341 3.576 367.988 2.527 C 368.159 2.495 368.148 2.381 367.945 2.377 C 366.968 2.361 365.991 2.354 365.014 2.354 C 360.561 2.354 356.113 2.504 351.681 2.685 C 349.732 2.763 347.785 2.835 345.842 2.905 C 346.091 2.858 346.339 2.811 346.587 2.764 C 347.734 2.549 348.882 2.34 350.04 2.143 C 355.792 1.172 361.748 0.99 367.795 0.99 C 368.629 0.99 369.465 0.994 370.301 0.999 C 372.597 1.015 374.902 1.041 377.207 1.048 L 377.207 5.004 C 372.712 5.331 368.346 5.94 363.98 6.515 C 357.263 7.403 350.46 8.295 343.61 8.928 C 336.565 9.583 329.412 9.772 322.234 9.775 C 322.217 9.775 322.198 9.775 322.181 9.775 C 307.36 9.775 292.655 8.97 277.934 8.29 C 273.307 8.078 268.648 7.912 263.993 7.912 C 261.77 7.912 259.55 7.95 257.332 8.039 C 253.085 8.209 248.925 8.601 244.779 9.028 C 239.506 9.336 234.268 9.753 229.035 10.177 C 225.247 10.484 221.462 10.795 217.663 11.072 C 217.656 11.073 217.649 11.074 217.641 11.075 C 214.635 11.294 211.622 11.493 208.594 11.651 C 204.695 11.856 200.793 11.965 196.892 12.006 C 196.254 11.953 195.617 11.901 194.978 11.851 C 188.19 11.308 181.345 10.973 174.486 10.666 C 167.746 10.369 161.008 9.985 154.25 9.792 C 150.121 9.673 145.987 9.617 141.854 9.617 C 132.497 9.617 123.142 9.904 113.847 10.399 C 107.022 10.764 100.226 11.229 93.453 11.766 C 90.123 12.031 86.795 12.312 83.472 12.607 C 80.149 12.903 76.837 13.263 73.484 13.474 C 71.33 13.609 69.173 13.661 67.014 13.661 Z " fill="rgb(87,141,75)"/><path d=" M 61.711 14.286 C 55.392 14.287 49.076 14.069 42.755 13.908 L 42.755 12.536 C 46.586 12.694 50.404 12.956 54.231 13.103 C 58.377 13.261 62.536 13.459 66.691 13.459 C 68.821 13.459 70.95 13.407 73.075 13.272 C 76.384 13.061 79.651 12.701 82.93 12.405 C 86.208 12.109 89.493 11.829 92.778 11.564 C 99.46 11.027 106.166 10.562 112.901 10.197 C 122.071 9.702 131.302 9.415 140.534 9.415 C 144.613 9.415 148.692 9.471 152.766 9.59 C 159.434 9.783 166.082 10.167 172.733 10.464 C 179.5 10.771 186.254 11.106 192.952 11.649 C 193.582 11.699 194.211 11.751 194.84 11.804 C 193.628 11.817 192.416 11.823 191.205 11.823 C 190.466 11.823 189.728 11.821 188.989 11.817 C 188.982 11.816 188.976 11.816 188.969 11.816 C 188.94 11.816 188.911 11.816 188.883 11.816 C 188.866 11.816 188.85 11.816 188.833 11.816 C 188.814 11.815 188.797 11.815 188.778 11.815 C 188.754 11.815 188.73 11.815 188.707 11.815 C 188.696 11.815 188.686 11.815 188.675 11.815 C 188.644 11.814 188.612 11.814 188.581 11.814 C 188.579 11.814 188.578 11.814 188.576 11.814 C 179.476 11.752 170.379 11.383 161.287 11.056 L 161.287 11.056 C 153.089 10.758 144.933 10.539 136.778 10.539 C 129.829 10.539 122.882 10.698 115.907 11.104 L 115.907 11.104 C 114.372 11.192 112.837 11.287 111.304 11.387 C 98.012 12.248 84.834 13.45 71.465 14.076 C 68.213 14.229 64.961 14.286 61.711 14.286 Z " fill="rgb(75,124,70)"/><path d=" M 317.124 10.234 C 310.137 10.234 303.146 10.062 296.202 9.817 C 284.06 9.391 271.766 8.548 259.539 8.548 C 256.689 8.548 253.844 8.594 251.004 8.701 C 248.772 8.785 246.551 8.897 244.335 9.028 C 248.426 8.601 252.53 8.209 256.721 8.039 C 258.909 7.95 261.1 7.912 263.293 7.912 C 267.886 7.912 272.483 8.078 277.048 8.29 C 291.574 8.97 306.083 9.775 320.706 9.775 C 320.723 9.775 320.742 9.775 320.759 9.775 C 327.841 9.772 334.899 9.583 341.85 8.928 C 348.609 8.295 355.321 7.403 361.949 6.515 C 366.257 5.94 370.565 5.331 375 5.004 L 375 7.043 C 374.97 7.043 374.94 7.043 374.91 7.043 C 370.913 7.046 366.933 7.14 362.922 7.438 C 355.62 7.975 348.453 8.827 341.163 9.39 C 333.22 10.005 325.175 10.234 317.124 10.234 Z " fill="rgb(75,124,70)"/><path d=" M 362.922 5.438 C 355.62 5.975 348.453 6.827 341.163 7.39 C 326.327 8.538 311.147 8.343 296.202 7.817 C 281.23 7.291 266.029 6.133 251.004 6.701 C 236.733 7.24 222.834 8.897 208.632 9.651 C 193.602 10.45 178.555 9.801 163.532 9.258 C 148.348 8.707 133.312 8.425 118.152 9.306 C 103.292 10.165 88.621 11.58 73.71 12.278 C 63.388 12.763 53.076 12.29 42.755 12.056 L 42.755 25.04 L 377.207 25.04 L 377.207 5.05 C 372.436 5.018 367.7 5.083 362.922 5.438 Z " fill="rgb(122,192,82)"/><path d=" M 102.635 14.989 C 102.332 14.989 102.028 14.987 101.724 14.984 C 103.69 14.756 105.677 14.568 107.538 14.188 C 107.681 14.158 107.621 14.045 107.47 14.045 C 107.465 14.045 107.459 14.045 107.453 14.045 C 103.843 14.232 100.221 14.357 96.597 14.357 C 94.785 14.357 92.972 14.326 91.16 14.256 C 93.484 14.062 95.742 13.722 97.813 13.189 C 97.948 13.154 97.898 13.046 97.742 13.046 C 97.738 13.046 97.734 13.046 97.729 13.046 C 97.088 13.069 96.44 13.077 95.785 13.083 C 97.379 12.912 98.964 12.717 100.542 12.512 C 104.872 12.19 109.205 11.87 113.55 11.589 C 115.082 11.489 116.616 11.395 118.152 11.306 L 118.152 11.306 C 125.127 10.9 132.074 10.741 139.023 10.741 C 147.178 10.741 155.334 10.96 163.532 11.258 L 163.532 11.258 C 172.623 11.586 181.721 11.954 190.821 12.016 C 190.823 12.016 190.824 12.016 190.826 12.016 C 190.857 12.016 190.889 12.016 190.92 12.017 C 190.931 12.017 190.941 12.017 190.952 12.017 C 190.975 12.017 191 12.017 191.023 12.017 C 191.042 12.017 191.06 12.018 191.078 12.018 C 191.095 12.018 191.111 12.018 191.128 12.018 C 191.157 12.018 191.185 12.018 191.214 12.018 C 191.22 12.019 191.228 12.019 191.234 12.019 C 191.353 12.019 191.472 12.02 191.591 12.021 C 190.102 12.175 188.603 12.312 187.094 12.425 C 184.708 12.602 182.269 12.714 179.837 12.714 C 177.805 12.714 175.777 12.635 173.789 12.45 C 173.285 12.375 172.767 12.318 172.226 12.281 C 172.215 12.281 172.206 12.28 172.196 12.28 C 172.008 12.28 171.932 12.403 172.136 12.431 C 172.655 12.495 173.175 12.551 173.701 12.599 C 174.274 12.687 174.825 12.808 175.334 12.961 C 170.927 12.896 166.509 12.88 162.118 12.664 C 162.111 12.664 162.103 12.663 162.096 12.663 C 161.919 12.663 161.913 12.788 162.077 12.813 C 162.634 12.903 163.183 13.008 163.722 13.116 C 156.491 12.786 149.233 12.582 141.96 12.582 C 141.246 12.582 140.531 12.584 139.817 12.588 C 139.632 12.588 139.584 12.719 139.774 12.737 C 141.128 12.866 142.459 13.034 143.788 13.213 C 143.23 13.217 142.671 13.219 142.112 13.219 C 141.476 13.219 140.839 13.217 140.201 13.215 C 139.563 13.213 138.925 13.211 138.286 13.211 C 135.589 13.211 132.896 13.249 130.247 13.485 C 125.916 13.871 121.67 14.647 117.213 14.66 C 117.879 14.458 118.585 14.295 119.276 14.112 C 119.433 14.07 119.345 13.969 119.189 13.969 C 119.176 13.969 119.162 13.97 119.148 13.972 C 113.702 14.508 108.208 14.989 102.635 14.989 Z " fill="rgb(145,200,95)"/><path d=" M 206.344 16.09 C 202.599 15.744 198.906 15.291 195.334 14.655 C 197.318 14.628 199.303 14.509 201.105 14.112 C 201.262 14.079 201.182 13.969 201.023 13.969 C 199.343 13.966 197.651 13.901 196.082 13.618 C 200.651 13.265 205.28 13.091 209.787 12.585 C 209.975 12.563 209.932 12.434 209.741 12.434 C 208.032 12.441 206.329 12.553 204.625 12.553 C 204.434 12.553 204.243 12.552 204.052 12.549 C 208.576 12.103 213.06 11.575 217.558 11.075 C 221.312 10.797 225.056 10.485 228.8 10.177 C 236.164 9.573 243.533 8.984 251.004 8.701 C 253.844 8.594 256.689 8.548 259.539 8.548 C 271.766 8.548 284.06 9.391 296.202 9.817 C 299.176 9.924 302.161 10.014 305.151 10.084 C 307.05 10.335 308.969 10.557 310.874 10.796 C 308.954 10.909 307.025 10.941 305.092 10.941 C 303.824 10.941 302.554 10.927 301.285 10.913 C 300.016 10.899 298.748 10.886 297.481 10.886 C 296.854 10.886 296.227 10.889 295.601 10.897 C 295.412 10.899 295.37 11.024 295.555 11.049 C 297.536 11.312 299.627 11.302 301.612 11.545 C 296.383 11.74 291.124 11.801 285.997 12.359 C 285.81 12.38 285.853 12.51 286.043 12.51 C 287.9 12.507 289.763 12.467 291.625 12.444 C 284.943 13.111 278.553 14.26 272.013 15.161 C 272.78 14.993 273.525 14.802 274.223 14.571 C 274.334 14.532 274.322 14.429 274.158 14.429 C 274.151 14.429 274.143 14.429 274.136 14.43 C 268.038 14.729 262.036 15.348 255.929 15.614 C 257.114 15.4 258.318 15.213 259.464 14.957 C 259.634 14.92 259.525 14.821 259.382 14.813 C 258.112 14.737 256.837 14.706 255.559 14.706 C 251.147 14.706 246.7 15.079 242.354 15.302 C 237.144 15.565 231.899 15.671 226.687 15.926 C 227.884 15.774 229.076 15.614 230.246 15.423 C 230.414 15.396 230.401 15.274 230.207 15.274 C 230.205 15.274 230.203 15.274 230.2 15.274 C 228.627 15.293 227.053 15.303 225.48 15.303 C 220.733 15.303 215.986 15.217 211.252 15.044 C 211.246 15.044 211.239 15.044 211.233 15.044 C 211.031 15.044 211.049 15.185 211.252 15.198 C 212.457 15.271 213.649 15.387 214.83 15.517 C 212.101 15.907 209.212 16.063 206.344 16.09 Z " fill="rgb(145,200,95)"/><path d=" M 374.91 7.043 C 374.94 7.043 374.97 7.043 375 7.043 L 375 7.043 C 374.97 7.043 374.94 7.043 374.91 7.043 Z " fill="rgb(61,106,64)"/><path d=" M 249.535 20.403 C 245.54 20.403 241.562 20.324 237.586 20.183 C 237.589 20.184 237.591 20.184 237.594 20.185 C 231.896 19.982 226.22 19.654 220.561 19.263 C 220.567 19.264 220.572 19.265 220.577 19.266 C 216.214 18.964 211.863 18.622 207.52 18.27 C 193.059 17.098 178.543 15.788 163.832 15.511 C 161.55 15.468 159.264 15.449 156.98 15.449 C 143.781 15.449 130.566 16.091 117.417 16.47 C 110.896 16.659 104.39 16.798 97.9 16.798 C 89.529 16.798 81.181 16.567 72.842 15.917 C 72.198 15.866 71.554 15.815 70.911 15.762 C 70.913 15.762 70.914 15.762 70.916 15.762 C 69.424 15.641 67.931 15.515 66.439 15.387 C 61.347 14.951 56.256 14.493 51.145 14.13 C 51.129 14.129 51.113 14.128 51.096 14.126 C 51.09 14.126 51.082 14.125 51.076 14.125 C 49.788 14.034 48.498 13.948 47.207 13.871 L 47.207 13.81 C 53.528 13.971 59.844 14.188 66.163 14.188 C 69.414 14.188 72.666 14.131 75.917 13.978 C 79.89 13.793 83.849 13.557 87.797 13.292 C 87.634 13.318 87.683 13.437 87.861 13.437 C 89.72 13.435 91.581 13.393 93.44 13.373 C 88.484 13.885 83.539 14.448 78.474 14.668 C 78.295 14.672 78.227 14.799 78.428 14.817 C 79.328 14.894 80.231 14.911 81.136 14.911 C 81.557 14.911 81.98 14.907 82.402 14.904 C 81.05 15.082 79.65 15.171 78.258 15.284 C 78.098 15.298 78.098 15.418 78.258 15.429 C 83.407 15.877 88.644 15.99 93.879 16.005 C 95.397 16.008 96.917 16.011 98.439 16.011 C 102.26 16.011 106.086 15.993 109.896 15.924 C 120.839 15.728 131.696 14.971 142.601 14.554 C 148.909 14.314 155.242 14.2 161.575 14.2 C 165.964 14.2 170.352 14.254 174.731 14.36 C 185.394 14.614 195.737 15.643 206.136 16.689 C 210.256 17.106 214.382 17.512 218.535 17.846 C 220.523 18.006 222.512 18.147 224.509 18.267 C 225.44 18.324 226.371 18.376 227.304 18.42 C 226.749 18.449 226.196 18.476 225.646 18.505 C 225.492 18.514 225.4 18.609 225.559 18.648 C 227.266 19.074 229.259 19.165 231.164 19.229 C 233.504 19.305 235.851 19.354 238.195 19.396 C 240.898 19.448 243.596 19.48 246.295 19.48 C 248.951 19.48 251.607 19.449 254.265 19.375 C 263.022 19.135 278.505 17.685 279.324 17.685 C 279.364 17.685 279.369 17.688 279.335 17.696 C 279.185 17.73 279.252 17.84 279.41 17.84 C 279.412 17.84 279.415 17.84 279.418 17.839 C 283.766 17.778 287.795 16.997 291.848 16.316 C 291.49 16.448 291.143 16.589 290.812 16.734 C 290.701 16.785 290.797 16.868 290.935 16.868 C 290.949 16.868 290.964 16.867 290.979 16.865 C 292.299 16.715 293.62 16.557 294.938 16.397 C 296.839 16.276 298.696 15.998 300.529 15.683 C 307.757 14.727 314.935 13.682 322.205 12.795 C 330.164 11.821 338.206 10.968 346.328 10.333 C 350.042 10.148 353.738 9.798 357.477 9.736 C 361.63 9.668 365.797 9.607 369.952 9.607 C 370.051 9.607 370.15 9.607 370.248 9.607 C 371.688 9.607 373.135 9.589 374.567 9.511 C 375.436 9.464 376.379 9.402 377.207 9.242 L 377.207 10.466 C 376.596 10.465 375.984 10.464 375.373 10.464 C 370.324 10.464 365.265 10.524 360.214 10.662 C 360.218 10.662 360.222 10.662 360.227 10.663 C 351.805 10.893 343.415 11.338 335.153 12.077 C 325.988 12.896 316.992 14.025 308.016 15.191 C 308.017 15.19 308.018 15.19 308.018 15.19 C 307.708 15.23 307.397 15.271 307.087 15.311 C 302.204 15.946 297.325 16.59 292.426 17.197 C 289.218 17.594 285.994 17.977 282.755 18.332 C 282.757 18.331 282.759 18.33 282.761 18.329 C 271.975 19.514 261.017 20.382 249.899 20.403 L 249.899 20.403 L 249.899 20.403 L 249.899 20.403 C 249.778 20.403 249.656 20.403 249.535 20.403 Z  M 377.207 7.624 C 377.184 7.617 377.161 7.611 377.138 7.605 C 375.707 7.233 373.947 7.106 372.343 7.007 C 371.43 6.951 370.517 6.916 369.6 6.886 C 372.106 6.786 374.609 6.745 377.117 6.742 C 377.147 6.742 377.177 6.742 377.207 6.742 L 377.207 7.624 Z " fill="rgb(89,162,80)"/><path d=" M 332.946 10.377 C 318.478 11.671 304.433 13.735 290.219 15.497 C 276.332 17.216 262.146 18.678 247.692 18.703 C 233.43 18.729 219.322 17.707 205.313 16.57 C 190.852 15.398 176.336 14.088 161.625 13.812 C 146.153 13.519 130.634 14.326 115.21 14.771 C 100.277 15.203 85.439 15.372 70.635 14.217 C 61.349 13.49 52.1 12.534 42.755 12.045 L 42.755 25.04 L 377.207 25.04 L 377.207 8.776 C 362.416 8.687 347.479 9.077 332.946 10.377 Z " fill="rgb(173,205,69)"/><path d=" M 235.396 20.487 C 229.7 20.285 224.026 19.959 218.37 19.566 C 218.365 19.565 218.36 19.564 218.354 19.563 C 224.013 19.955 229.689 20.283 235.387 20.485 C 235.39 20.485 235.393 20.486 235.396 20.487 Z  M 68.704 16.063 C 67.213 15.941 65.722 15.815 64.232 15.688 C 65.724 15.815 67.216 15.941 68.709 16.063 C 68.707 16.063 68.705 16.063 68.704 16.063 Z  M 304.88 15.612 C 305.19 15.571 305.501 15.531 305.811 15.49 C 305.811 15.49 305.81 15.491 305.809 15.491 C 305.499 15.531 305.19 15.571 304.88 15.612 Z " fill="rgb(83,154,79)"/><path d=" M 358.02 10.963 C 358.015 10.963 358.011 10.962 358.007 10.962 C 363.058 10.824 368.117 10.764 373.166 10.764 C 373.777 10.764 374.389 10.765 375 10.767 L 375 10.767 C 374.405 10.765 373.811 10.764 373.216 10.764 C 368.154 10.764 363.081 10.825 358.02 10.963 Z " fill="rgb(83,154,79)"/><path d=" M 331.884 24.47 L 282 24.47 C 282.449 24.391 282.916 24.336 283.384 24.28 C 281.474 24.226 279.55 24.266 277.643 24.19 C 275.866 24.122 273.698 24.03 272.368 23.421 C 272.285 23.385 272.316 23.304 272.441 23.292 C 278.761 22.797 284.904 21.96 290.913 20.944 C 290.246 20.909 289.576 20.897 288.906 20.897 C 288.159 20.897 287.41 20.912 286.662 20.927 C 285.915 20.942 285.168 20.957 284.424 20.957 C 282.985 20.957 281.557 20.901 280.155 20.68 C 280.032 20.659 279.972 20.567 280.114 20.539 C 280.934 20.376 281.793 20.251 282.603 20.078 C 281.883 20.091 281.163 20.117 280.445 20.117 C 279.749 20.117 279.055 20.093 278.367 20.012 C 278.189 19.991 278.224 19.892 278.367 19.864 C 281.477 19.27 284.997 19.107 287.918 18.316 C 286.24 18.285 284.558 18.308 282.883 18.224 C 282.725 18.215 282.686 18.146 282.755 18.103 C 285.994 17.748 289.218 17.364 292.426 16.967 C 297.324 16.361 302.203 15.718 307.087 15.082 C 307.397 15.041 307.706 15.001 308.016 14.961 C 303.313 16.006 298.246 16.685 293.231 17.358 C 293.048 17.383 293.091 17.504 293.278 17.506 C 293.485 17.511 293.691 17.514 293.898 17.514 C 294.833 17.514 295.761 17.465 296.686 17.408 C 293.229 17.994 289.866 18.7 286.303 19.149 C 286.118 19.172 286.161 19.295 286.349 19.298 C 286.534 19.302 286.719 19.304 286.904 19.304 C 288.453 19.304 289.986 19.186 291.528 19.121 C 290.06 19.47 288.44 19.662 286.932 19.977 C 286.775 20.007 286.864 20.118 287.019 20.118 C 287.15 20.119 287.282 20.119 287.414 20.119 C 292.251 20.119 296.948 19.538 301.722 19.25 C 300.077 19.619 298.393 19.945 296.771 20.333 C 296.632 20.367 296.685 20.477 296.841 20.477 C 296.846 20.477 296.851 20.477 296.856 20.477 C 298.219 20.414 299.5 20.178 300.839 20.064 C 294.99 21.836 288.204 22.799 281.384 23.448 C 281.188 23.467 281.253 23.59 281.428 23.6 C 281.913 23.617 282.396 23.625 282.876 23.625 C 288.717 23.625 294.198 22.45 299.951 22.097 C 299.106 22.37 298.17 22.581 297.408 22.904 C 297.284 22.957 297.403 23.034 297.545 23.034 C 297.554 23.034 297.562 23.033 297.57 23.033 C 302.485 22.67 306.798 21.464 311.547 20.851 C 310.805 21.2 309.915 21.47 309.068 21.764 C 308.951 21.807 308.964 21.88 309.109 21.906 C 309.751 22.016 310.43 22.054 311.114 22.054 C 311.843 22.054 312.58 22.011 313.286 21.964 C 315.083 21.846 316.881 21.68 318.67 21.531 C 320.939 21.346 323.187 21.11 325.421 20.842 C 325.298 20.879 325.179 20.914 325.056 20.946 C 324.938 20.981 324.944 21.074 325.096 21.087 C 325.952 21.163 326.804 21.196 327.653 21.196 C 331.051 21.196 334.391 20.671 337.65 20.254 C 341.631 19.746 345.786 19.403 349.482 18.519 C 349.604 18.494 349.587 18.39 349.444 18.379 C 349.045 18.351 348.648 18.34 348.251 18.34 C 347.367 18.34 346.486 18.396 345.603 18.45 C 348.962 18.114 352.443 18.033 355.705 17.504 C 355.865 17.478 355.863 17.383 355.705 17.358 C 354.407 17.143 353.009 17.069 351.595 17.069 C 350.674 17.069 349.745 17.101 348.834 17.144 C 351.989 16.733 355.193 16.372 358.463 16.244 C 361.44 16.128 364.156 15.638 367.483 15.451 C 367.638 15.442 367.567 15.332 367.441 15.309 C 366.031 15.066 364.581 15.011 363.117 15.011 C 362.511 15.011 361.902 15.02 361.293 15.03 C 360.684 15.039 360.074 15.048 359.466 15.048 C 358.696 15.048 357.928 15.033 357.166 14.984 C 363.077 13.488 370.091 13.518 376.496 12.744 C 376.645 12.727 376.651 12.64 376.536 12.606 C 373.928 11.777 370.72 11.428 367.661 11.127 C 365.193 10.883 362.716 10.633 360.227 10.433 C 365.288 10.295 370.361 10.234 375.423 10.234 C 376.018 10.234 376.612 10.235 377.207 10.237 L 377.207 13.921 C 375.784 14.036 374.379 14.197 373.013 14.403 C 374.239 14.541 375.509 14.576 376.72 14.748 C 376.848 14.763 376.899 14.857 376.761 14.887 C 375.129 15.226 373.362 15.428 371.804 15.836 C 373.533 16.131 375.542 15.798 377.207 16.224 L 377.207 16.371 C 376.676 16.515 375.355 16.799 374.608 16.885 C 373.396 17.019 372.222 17.222 371.065 17.44 C 368.51 17.915 366.008 18.463 363.582 19.065 C 359.265 20.134 355.012 21.275 350.447 22.118 C 352.024 22.035 353.59 21.904 355.176 21.904 C 355.336 21.904 355.497 21.906 355.658 21.909 C 355.792 21.911 355.895 21.996 355.777 22.041 C 354.862 22.386 353.724 22.547 352.712 22.815 C 354.227 22.755 355.734 22.552 357.246 22.552 C 357.737 22.552 358.229 22.574 358.722 22.628 C 358.868 22.643 358.879 22.736 358.76 22.769 C 356.786 23.345 354.214 23.576 351.957 23.821 C 349.192 24.117 346.368 24.23 343.536 24.303 C 339.675 24.403 335.764 24.371 331.884 24.47 Z  M 202.035 24.47 L 82.956 24.47 C 82.774 24.458 82.593 24.447 82.412 24.434 C 77.856 24.127 72.713 24.03 68.828 22.769 C 68.729 22.736 68.71 22.665 68.828 22.637 C 70.803 22.122 72.918 21.748 75.087 21.447 C 74.783 21.432 74.48 21.425 74.177 21.425 C 73.242 21.425 72.313 21.487 71.382 21.549 C 70.451 21.611 69.519 21.673 68.58 21.673 C 68.282 21.673 67.984 21.666 67.685 21.652 C 67.519 21.644 67.453 21.555 67.599 21.508 C 68.431 21.256 69.279 21.014 70.177 20.817 C 68.4 20.877 66.617 20.933 64.834 20.933 C 64.517 20.933 64.201 20.931 63.884 20.927 C 61.718 20.898 59.664 20.747 57.552 20.539 C 54.757 20.265 51.118 20.012 49.23 18.918 C 49.169 18.882 49.158 18.82 49.264 18.797 C 52.131 18.198 55.457 18.41 58.537 18.26 C 57.682 18.106 56.815 17.97 55.972 17.804 C 55.836 17.777 55.882 17.678 56.015 17.665 C 57.104 17.548 58.207 17.518 59.32 17.509 C 56.558 17.026 53.726 16.629 50.981 16.122 C 50.835 16.097 50.81 15.998 50.981 15.974 C 52.717 15.746 54.53 15.796 56.306 15.69 C 55.587 15.476 54.687 15.408 53.962 15.194 C 53.835 15.156 53.861 15.076 53.998 15.054 C 56.276 14.694 58.668 14.694 61.046 14.694 C 57.832 14.418 54.614 14.149 51.389 13.918 C 56.418 14.278 61.428 14.729 66.439 15.158 C 67.93 15.285 69.42 15.411 70.911 15.533 C 70.688 15.538 70.463 15.542 70.24 15.546 C 66.443 15.606 62.645 15.653 58.853 15.718 C 58.68 15.718 58.628 15.816 58.765 15.859 C 60.816 16.499 63.208 16.833 65.611 17.092 C 64.827 17.144 64.059 17.231 63.28 17.306 C 63.089 17.323 63.138 17.456 63.321 17.456 C 64.134 17.456 64.944 17.461 65.752 17.481 C 64.64 17.699 63.706 18.049 62.757 18.401 C 62.637 18.445 62.745 18.531 62.876 18.531 C 63.028 18.533 63.179 18.533 63.331 18.533 C 64.465 18.533 65.612 18.487 66.761 18.441 C 67.91 18.396 69.06 18.35 70.201 18.35 C 71.17 18.35 72.133 18.383 73.082 18.477 C 72.523 18.586 71.948 18.679 71.399 18.797 C 71.261 18.829 71.313 18.92 71.441 18.939 C 72.176 19.041 72.924 19.077 73.677 19.077 C 74.935 19.077 76.209 18.977 77.463 18.918 C 76.806 19.107 76.187 19.321 75.534 19.515 C 75.399 19.555 75.46 19.66 75.607 19.66 C 75.625 19.66 75.644 19.658 75.665 19.655 C 79.128 19.063 82.82 18.949 86.516 18.949 C 88.221 18.949 89.928 18.974 91.612 18.986 C 90.771 19.102 89.966 19.27 89.175 19.463 C 89.005 19.504 89.113 19.606 89.272 19.606 C 89.282 19.606 89.292 19.606 89.302 19.605 C 90.774 19.481 92.277 19.414 93.778 19.414 C 94.516 19.414 95.253 19.43 95.987 19.463 C 94.296 19.748 92.731 20.164 91.186 20.59 C 91.057 20.625 91.098 20.732 91.259 20.732 C 91.263 20.732 91.268 20.732 91.272 20.732 C 94.355 20.612 97.451 20.688 100.536 20.595 C 102.548 20.537 104.569 20.45 106.582 20.356 C 103.295 20.851 100.103 21.473 97.11 22.278 C 96.985 22.312 97.018 22.422 97.173 22.422 C 97.18 22.422 97.187 22.422 97.194 22.421 C 97.885 22.381 98.573 22.348 99.265 22.331 C 98.662 22.47 98.063 22.612 97.526 22.803 C 97.431 22.834 97.48 22.921 97.6 22.929 C 98.752 23.007 99.908 23.041 101.066 23.041 C 102.543 23.041 104.021 22.986 105.491 22.896 C 105.012 23.016 104.553 23.155 104.122 23.315 C 104.001 23.358 104.105 23.442 104.241 23.445 C 104.395 23.446 104.549 23.446 104.704 23.446 C 111.839 23.446 118.819 22.639 125.729 21.892 C 125.084 22.092 124.403 22.269 123.797 22.494 C 123.679 22.538 123.782 22.622 123.915 22.625 C 123.969 22.626 124.024 22.626 124.078 22.626 C 126.331 22.626 128.48 22.156 130.564 21.812 C 132.869 21.43 135.372 21.074 137.814 20.914 C 137.407 21.131 136.989 21.351 136.626 21.59 C 136.535 21.647 136.661 21.702 136.785 21.702 C 136.809 21.702 136.834 21.7 136.856 21.695 C 140.031 21.04 143.338 20.651 146.708 20.37 C 144.328 20.875 142.134 21.563 140.229 22.392 C 140.101 22.447 140.223 22.519 140.363 22.519 C 140.386 22.519 140.41 22.517 140.433 22.513 C 141.916 22.226 143.486 22.061 145.01 21.829 C 144.251 22.088 143.513 22.362 142.8 22.649 C 142.7 22.689 142.767 22.781 142.903 22.781 C 142.909 22.781 142.914 22.781 142.92 22.781 C 147.654 22.489 152.364 22.115 157.081 21.774 C 156.308 21.964 155.538 22.159 154.793 22.381 C 154.661 22.421 154.708 22.525 154.88 22.525 C 157.926 22.501 160.758 21.781 163.793 21.781 C 164.014 21.781 164.238 21.785 164.462 21.794 C 165.937 21.846 167.241 22.254 168.522 22.552 C 169.596 22.806 170.722 22.987 171.931 22.987 C 172.023 22.987 172.115 22.986 172.208 22.984 C 172.313 22.981 172.406 22.935 172.368 22.887 C 172.249 22.715 172.093 22.552 171.918 22.392 C 173.214 22.634 174.614 22.769 175.965 22.929 C 175.98 22.931 175.994 22.932 176.008 22.932 C 176.13 22.932 176.225 22.869 176.153 22.817 C 175.932 22.649 175.672 22.496 175.385 22.35 C 176.755 22.655 178.319 22.807 179.765 22.924 C 182.281 23.127 184.841 23.168 187.366 23.34 C 187.376 23.341 187.386 23.341 187.396 23.341 C 187.567 23.341 187.65 23.247 187.497 23.201 C 187.375 23.16 187.25 23.124 187.127 23.087 C 189.611 23.201 192.152 23.203 194.565 23.343 C 194.572 23.344 194.578 23.344 194.584 23.344 C 194.722 23.344 194.778 23.253 194.687 23.211 C 194.578 23.163 194.471 23.119 194.361 23.076 C 194.981 23.1 195.606 23.105 196.215 23.105 C 196.692 23.105 197.16 23.102 197.604 23.101 C 200.621 23.087 203.629 23.068 206.572 22.725 C 206.698 22.709 206.734 22.637 206.645 22.598 C 206.452 22.505 206.246 22.419 206.034 22.336 C 206.34 22.349 206.646 22.356 206.95 22.356 C 207.346 22.356 207.741 22.344 208.135 22.317 C 208.249 22.308 208.286 22.243 208.239 22.204 C 207.678 21.764 206.892 21.391 206.008 21.062 C 210.535 21.85 215.29 22.584 220.058 22.584 C 221.638 22.584 223.221 22.503 224.796 22.317 C 224.946 22.296 224.946 22.212 224.835 22.176 C 223.247 21.65 221.48 21.261 219.674 20.915 C 222.167 21.194 224.808 21.433 227.381 21.433 C 229.026 21.433 230.643 21.335 232.174 21.087 C 232.324 21.066 232.344 20.96 232.174 20.939 C 230.426 20.729 228.553 20.75 226.872 20.456 C 227.764 20.513 228.66 20.539 229.557 20.539 C 231.107 20.539 232.658 20.46 234.186 20.32 C 234.379 20.303 234.32 20.173 234.141 20.169 C 230.927 20.105 227.858 19.847 224.721 19.543 C 223.381 19.415 221.91 19.283 220.577 19.037 C 226.233 19.429 231.907 19.756 237.603 19.957 C 238.274 20.075 238.941 20.197 239.588 20.333 C 239.739 20.365 239.673 20.452 239.55 20.473 C 238.399 20.677 237.175 20.722 235.958 20.784 C 237.989 20.981 240.094 20.987 242.121 21.195 C 242.259 21.208 242.294 21.307 242.164 21.335 C 238.831 22.052 235.136 22.061 231.585 22.37 C 231.989 22.449 232.386 22.536 232.773 22.637 C 232.899 22.668 232.874 22.76 232.732 22.778 C 231.449 22.921 230.144 22.963 228.831 22.963 C 227.903 22.963 226.971 22.942 226.04 22.921 C 225.11 22.9 224.18 22.879 223.255 22.879 C 223.2 22.879 223.144 22.879 223.089 22.879 C 224.311 23.191 225.699 23.331 226.961 23.608 C 227.127 23.644 227.021 23.745 226.874 23.751 C 219.094 24.111 211.284 24.384 203.469 24.398 C 202.991 24.422 202.513 24.446 202.035 24.47 Z  M 51.382 13.917 C 51.369 13.916 51.356 13.915 51.343 13.914 C 51.355 13.915 51.369 13.916 51.382 13.917 Z " fill="rgb(158,195,73)"/><path d=" M 279.793 25 L 199.828 25 C 200.306 24.976 200.784 24.952 201.262 24.928 C 209.077 24.914 216.887 24.641 224.667 24.281 C 224.814 24.274 224.92 24.174 224.754 24.138 C 223.492 23.861 222.104 23.721 220.882 23.409 C 220.937 23.409 220.993 23.409 221.048 23.409 C 221.973 23.409 222.903 23.43 223.833 23.451 C 224.764 23.472 225.696 23.493 226.624 23.493 C 227.937 23.493 229.242 23.451 230.525 23.308 C 230.667 23.29 230.692 23.198 230.566 23.167 C 230.179 23.065 229.782 22.979 229.378 22.899 C 232.929 22.591 236.624 22.582 239.957 21.864 C 240.087 21.837 240.052 21.738 239.914 21.725 C 237.887 21.517 235.782 21.511 233.751 21.313 C 234.968 21.252 236.192 21.207 237.343 21.003 C 237.466 20.981 237.532 20.895 237.381 20.863 C 236.734 20.727 236.067 20.605 235.396 20.487 C 239.309 20.625 243.234 20.704 247.169 20.703 C 247.278 20.703 247.388 20.703 247.496 20.703 C 247.506 20.703 247.515 20.703 247.525 20.703 C 247.581 20.703 247.637 20.703 247.692 20.703 L 247.692 20.703 L 247.692 20.703 C 258.807 20.684 269.764 19.815 280.548 18.632 C 280.479 18.676 280.518 18.745 280.676 18.754 C 282.351 18.838 284.033 18.814 285.711 18.846 C 282.79 19.637 279.27 19.8 276.16 20.394 C 276.017 20.422 275.982 20.521 276.16 20.542 C 276.848 20.623 277.542 20.646 278.238 20.646 C 278.956 20.646 279.676 20.621 280.396 20.607 C 279.586 20.781 278.727 20.906 277.907 21.068 C 277.765 21.097 277.825 21.188 277.948 21.21 C 279.35 21.43 280.778 21.486 282.217 21.486 C 282.961 21.486 283.708 21.471 284.455 21.456 C 285.203 21.441 285.952 21.426 286.699 21.426 C 287.369 21.426 288.039 21.439 288.706 21.474 C 282.697 22.489 276.554 23.327 270.234 23.822 C 270.109 23.834 270.078 23.915 270.161 23.951 C 271.491 24.56 273.659 24.651 275.436 24.72 C 277.343 24.796 279.267 24.756 281.177 24.81 C 280.709 24.866 280.242 24.921 279.793 25 Z " fill="rgb(133,177,76)"/><path d=" M 78.503 20.487 L 42.755 20.487 L 42.755 9.658 C 43.788 9.72 44.82 9.787 45.851 9.858 C 45.86 9.858 45.869 9.859 45.878 9.86 C 45.898 9.861 45.918 9.862 45.938 9.864 C 45.959 9.865 45.978 9.867 45.999 9.868 C 46.004 9.868 46.01 9.869 46.016 9.869 C 46.308 9.889 46.599 9.91 46.891 9.931 C 46.904 9.932 46.917 9.933 46.93 9.934 C 46.932 9.934 46.934 9.934 46.937 9.934 C 50.162 10.166 53.38 10.434 56.594 10.71 C 54.216 10.71 51.824 10.71 49.546 11.071 C 49.409 11.092 49.383 11.172 49.51 11.21 C 50.234 11.424 51.135 11.492 51.854 11.706 C 50.078 11.813 48.265 11.762 46.529 11.99 C 46.357 12.015 46.383 12.113 46.529 12.139 C 49.273 12.646 52.106 13.042 54.868 13.526 C 53.755 13.534 52.652 13.565 51.562 13.681 C 51.43 13.695 51.384 13.793 51.52 13.82 C 52.363 13.987 53.229 14.122 54.084 14.277 C 51.005 14.426 47.679 14.214 44.812 14.814 C 44.706 14.836 44.717 14.899 44.778 14.934 C 46.666 16.029 50.305 16.281 53.1 16.555 C 55.212 16.763 57.266 16.914 59.432 16.944 C 59.749 16.947 60.065 16.949 60.382 16.949 C 62.165 16.949 63.948 16.893 65.725 16.833 C 64.827 17.031 63.979 17.273 63.147 17.525 C 63.001 17.571 63.067 17.66 63.232 17.668 C 63.532 17.683 63.83 17.689 64.128 17.689 C 65.067 17.689 65.999 17.627 66.93 17.565 C 67.861 17.503 68.79 17.441 69.725 17.441 C 70.028 17.441 70.331 17.448 70.635 17.463 C 68.466 17.764 66.351 18.139 64.375 18.654 C 64.258 18.682 64.277 18.752 64.375 18.785 C 68.261 20.046 73.404 20.144 77.96 20.45 C 78.141 20.463 78.322 20.475 78.503 20.487 Z " fill="rgb(133,177,76)"/><path d=" M -282.676 -1.001 C -276.802 -1.038 -270.956 -0.929 -265.115 -0.239 C -251.939 1.318 -228.391 9.96 -216.3 2.414 C -215.729 2.058 -215.212 1.621 -214.687 1.199 C -211.97 -0.983 -209.717 -2.972 -206.018 -3 C -193.809 -3.089 -182.754 4.116 -170.26 4.031 C -153.453 3.916 -137.361 3.838 -120.546 2.506 C -117.357 2.253 -113.856 1.949 -110.618 2.16 C -91.802 3.387 -71.727 10.985 -52.789 7.652 C -46.926 6.62 -41.088 5.878 -35.234 5.088 C -31.762 4.619 -29.91 4.609 -26.217 4.762 C -26.217 4.762 -17.507 5.447 -17.507 5.447 C 4.803 9.394 20.792 7.053 42.755 1.707 L 42.755 1.707 L 42.755 25.041 L -291.697 25.041 L -291.697 -0.953 C -287.688 -0.937 -286.683 -0.972 -282.676 -1.001 L -282.676 -1.001 Z " fill="rgb(102,160,78)"/><path d=" M 18.495 13.662 C 26.593 13.662 34.668 13.069 42.755 12.738 L 42.755 12.738 L 42.755 4.21 C 40.478 4.672 29.152 6.363 21.934 8.825 L 21.934 8.825 L 35.709 8.825 C 36.598 8.825 28.037 10.407 28.038 10.411 C 28.188 11.039 36.686 10.679 36.558 11.231 C 36.305 12.319 28.866 12.75 28.085 12.812 C 25.108 13.049 22.069 13.046 19.085 12.955 C 11.622 12.728 -5.767 14.736 -11.654 10.339 C -11.654 10.339 2.178 9.109 2.178 9.109 C -17.101 6.609 -38.517 6.908 -57.873 8.056 C -80.356 9.389 -102.664 11.916 -125.2 10.723 C -150.365 9.391 -174.563 5.746 -199.83 5.93 L -199.83 5.93 L -199.83 5.93 C -203.012 5.952 -206.474 5.583 -209.615 6.003 C -209.615 6.003 -205.123 6.556 -205.123 6.556 C -205.017 6.73 -218.603 6.798 -218.758 6.826 C -218.758 6.826 -211.613 7.885 -211.613 7.885 C -216.626 11.767 -233.825 8.67 -240.924 8.517 C -244.047 8.45 -247.171 8.388 -250.291 8.235 C -253.48 8.078 -272.423 8.74 -274.426 5.564 C -274.426 5.564 -265.252 5.326 -265.252 5.326 C -268.022 4.379 -271.046 4.484 -273.936 4.015 C -296.231 0.394 -265.583 2.832 -260.333 2.906 C -260.333 2.906 -282.285 0.991 -282.285 0.991 C -285.422 0.979 -288.56 1.039 -291.697 1.048 L -291.697 1.048 L -291.697 5.004 C -255.469 7.639 -222.013 8.986 -185.468 7.996 C -183.14 7.933 -180.811 7.927 -178.483 7.913 C -175.21 7.892 -171.914 7.962 -168.648 8.195 C -168.648 8.195 -159.269 9.029 -159.269 9.029 C -156.641 9.228 -154.007 9.353 -151.377 9.545 C -148.758 9.736 -146.142 9.966 -143.525 10.178 C -107.371 13.102 -71.538 8.766 -35.316 10.055 C -19.482 10.618 -3.767 12.416 12.026 13.474 C 14.724 13.655 15.792 13.662 18.495 13.662 L 18.495 13.662 Z " fill="rgb(87,141,75)"/><path d=" M 23.798 14.287 C 32.224 14.287 34.332 14.123 42.755 13.908 L 42.755 13.908 L 42.755 12.536 C 5.945 14.06 -30.414 8.373 -67.256 9.59 C -70.587 9.701 -73.918 9.83 -77.248 9.976 C -80.574 10.121 -83.898 10.305 -87.223 10.464 C -87.223 10.464 -109.33 11.805 -109.33 11.805 C -98.418 12.985 -86.328 11.437 -75.777 11.056 L -75.777 11.056 L -75.777 11.056 C -60.653 10.508 -45.515 10.226 -30.397 11.104 L -30.397 11.104 L -30.397 11.104 C -12.338 12.147 5.694 14.287 23.798 14.287 L 23.798 14.287 Z " fill="rgb(75,124,70)"/><path d=" M -231.614 10.235 C -221.588 10.235 -211.582 9.877 -201.567 9.446 C -189.541 8.928 -177.531 8.274 -165.494 8.702 C -165.494 8.702 -158.825 9.029 -158.825 9.029 C -158.825 9.029 -177.783 7.913 -177.783 7.913 C -198.713 8.045 -219.614 10.298 -240.558 9.75 C -247.557 9.567 -254.456 9.224 -261.404 8.421 C -270.75 7.342 -280.102 5.696 -289.49 5.004 L -289.49 5.004 L -289.49 7.043 C -270.141 7.107 -251 10.235 -231.614 10.235 L -231.614 10.235 Z " fill="rgb(75,124,70)"/><path d=" M -277.412 5.438 C -239.85 8.201 -202.994 5.348 -165.494 6.702 C -126.67 8.103 -88.533 8.563 -49.66 8.746 C -21.358 8.879 6.679 12.899 35.015 12.262 C 37.595 12.204 40.175 12.115 42.755 12.056 L 42.755 12.056 L 42.755 25.041 L -291.697 25.041 L -291.697 5.05 C -286.931 5.018 -282.167 5.085 -277.412 5.438 L -277.412 5.438 Z " fill="rgb(122,192,82)"/><path d=" M -17.125 14.989 C -13.443 14.989 -22.883 14.666 -22.062 14.059 C -19.065 11.846 -9.803 15.312 -5.65 14.256 C -5.65 14.256 -15.032 12.512 -15.032 12.512 C -20.891 11.994 -26.771 11.646 -32.643 11.306 L -32.643 11.306 L -32.643 11.306 C -47.76 10.428 -62.898 10.71 -78.022 11.258 L -78.022 11.258 L -78.022 11.258 C -85.78 11.539 -89.787 11.716 -98.486 11.932 C -98.486 11.932 -106.081 12.021 -106.081 12.021 C -103.395 12.313 -100.677 12.551 -97.979 12.658 C -97.323 12.684 -82.732 11.851 -88.191 12.599 C -88.191 12.599 -78.212 13.117 -78.212 13.117 C -78.212 13.117 -61.903 12.608 -61.903 12.608 C -45.43 12.303 -62.764 13.242 -54.691 13.215 C -51.363 13.204 -48.06 13.213 -44.737 13.486 C -44.737 13.486 -35.019 14.556 -35.019 14.556 C -24.772 15.431 -42.119 13.393 -29.548 14.367 C -23.639 14.825 -22.171 14.989 -17.125 14.989 L -17.125 14.989 Z " fill="rgb(145,200,95)"/><path d=" M -120.834 16.09 C -118.473 15.872 -108.186 14.823 -111.312 14.624 C -123.181 13.867 -97.856 14.739 -117.456 13.178 C -117.456 13.178 -125.056 12.466 -125.056 12.466 C -125.056 12.466 -117.379 12.623 -117.379 12.623 C -121.459 11.045 -131.725 11.115 -135.324 10.784 C -140.347 10.322 -145.374 9.904 -150.404 9.53 C -156.006 9.114 -160.171 8.91 -165.494 8.702 C -170.073 8.523 -169.446 8.536 -174.029 8.548 C -176.234 8.555 -178.438 8.538 -180.642 8.583 C -183.03 8.632 -185.415 8.75 -187.802 8.832 C -190.451 8.923 -193.099 9.014 -195.749 9.103 C -199.776 9.238 -213.652 9.575 -219.641 10.084 C -219.641 10.084 -225.332 10.905 -225.332 10.905 C -221.813 13.588 -213.071 7.781 -209.968 10.915 C -209.968 10.915 -216.102 11.545 -216.102 11.545 C -216.102 11.545 -200.376 12.389 -200.376 12.389 C -208.743 12.833 -214.034 11.306 -191.389 14.455 C -185.957 15.21 -184.624 14.759 -174.975 15.37 C -157.316 16.487 -197.781 14.474 -163.414 14.893 C -154.828 14.998 -146.035 15.683 -137.483 16.136 C -137.483 16.136 -144.84 15.391 -144.84 15.391 C -137.778 14.364 -129.29 15.175 -122.319 15.048 C -122.319 15.048 -129.32 15.517 -129.32 15.517 C -129.586 15.959 -121.621 16.083 -120.834 16.09 L -120.834 16.09 L -120.834 16.09 Z " fill="rgb(145,200,95)"/><path d=" M -289.4 7.043 C -289.44 7.043 -289.45 7.043 -289.49 7.043 L -289.49 7.043 L -289.49 7.043 C -289.46 7.043 -289.43 7.043 -289.4 7.043 L -289.4 7.043 Z " fill="rgb(61,106,64)"/><path d=" M -164.025 20.404 C -162.031 20.404 -160.036 20.401 -158.041 20.364 C -156.052 20.328 -154.065 20.244 -152.076 20.184 C -152.076 20.184 -143.548 19.819 -143.548 19.819 C -82.889 16.538 -22.314 17.51 38.303 13.871 L 38.303 13.871 L 38.303 13.81 C 35.143 13.891 31.984 14.017 28.824 14.08 C 25.665 14.143 22.506 14.171 19.346 14.189 C 15.302 14.211 13.633 14.159 9.593 13.979 C 9.593 13.979 -7.93 13.373 -7.93 13.373 C -7.93 13.373 7.199 14.791 7.199 14.791 C 4.391 19.742 2.316 9.088 7.352 15.308 C 7.373 15.334 7.373 15.382 7.352 15.408 C 5.152 18.085 -8.539 16.016 -12.929 16.012 C -19.48 16.005 -26.036 15.978 -32.583 15.708 C -38.03 15.482 -43.473 15.166 -48.918 14.91 C -51.642 14.782 -54.366 14.656 -57.091 14.555 C -90.458 13.321 -124.834 18.901 -152.685 19.396 C -168.879 19.684 -193.734 14.578 -205.425 16.868 C -210.408 17.844 -222.152 14.696 -225.836 14.205 C -247.317 11.343 -270.627 13.302 -291.697 9.243 L -291.697 9.243 L -291.697 10.467 C -248.933 10.341 -207.032 20.325 -164.389 20.403 L -164.389 20.403 L -164.389 20.403 L -164.389 20.403 L -164.389 20.403 C -164.228 20.404 -164.187 20.404 -164.025 20.404 L -164.025 20.404 Z  M -291.697 7.624 C -285.084 5.787 -281.746 6.743 -291.697 6.743 L -291.697 6.743 L -291.697 7.624 Z " fill-rule="evenodd" fill="rgb(89,162,80)"/><path d=" M -247.436 10.377 C -245.631 10.539 -243.826 10.695 -242.024 10.887 C -200.411 15.319 -161.725 19.973 -119.803 16.571 C -65.676 12.178 -11.471 14.885 42.755 12.045 L 42.755 12.045 L 42.755 25.041 L -291.697 25.041 L -291.697 8.777 C -276.928 8.687 -262.152 9.061 -247.436 10.377 L -247.436 10.377 Z " fill="rgb(173,205,69)"/><path d=" M -149.886 20.487 C -147.06 20.387 -118.663 18.892 -141.341 20.119 L -149.886 20.487 L -149.886 20.487 Z  M 16.806 16.063 C 16.806 16.063 21.277 15.688 21.277 15.688 L 16.806 16.063 L 16.806 16.063 Z  M -219.37 15.612 C -220.497 15.465 -220.499 15.465 -219.37 15.612 L -219.37 15.612 Z " fill-rule="evenodd" fill="rgb(83,154,79)"/><path d=" M -272.51 10.963 C -272.51 10.963 -289.49 10.767 -289.49 10.767 L -289.49 10.767 L -289.49 10.767 C -283.827 10.751 -278.172 10.809 -272.51 10.963 L -272.51 10.963 Z " fill="rgb(83,154,79)"/><path d=" M -246.374 24.471 L -196.49 24.471 C -201.204 23.643 -186.263 24.278 -186.791 23.345 C -188.051 21.12 -201.973 21.705 -205.403 20.944 C -205.403 20.944 -194.523 20.568 -194.523 20.568 C -194.638 20.26 -196.889 20.347 -197.093 20.078 C -197.093 20.078 -192.75 19.987 -192.75 19.987 C -192.75 19.987 -200.143 18.831 -200.143 18.831 C -200.907 18.708 -202.74 19.016 -202.408 18.316 C -202.35 18.193 -197.353 18.331 -197.196 18.181 C -197.159 18.146 -206.827 16.979 -206.916 16.968 C -206.916 16.968 -222.506 14.961 -222.506 14.961 C -220.941 15.303 -202.498 17.767 -209.787 17.49 C -209.787 17.49 -200.793 19.149 -200.793 19.149 C -200.756 19.155 -200.702 19.146 -200.683 19.179 C -200.683 19.179 -206.018 19.121 -206.018 19.121 C -206.018 19.121 -201.335 20.01 -201.335 20.01 C -201.335 20.01 -212.641 19.503 -212.641 19.503 C -217.356 19.152 -217.167 19.029 -213.725 19.782 C -206.691 21.321 -215.401 19.944 -215.329 20.064 C -215.329 20.064 -195.801 23.579 -195.801 23.579 C -199.089 26.169 -210.614 22.083 -214.441 22.098 C -214.493 22.098 -211.666 22.837 -211.834 22.996 C -211.834 22.996 -217.394 22.35 -217.394 22.35 C -219.111 22.055 -220.814 21.683 -222.53 21.386 C -229.48 20.181 -225.251 21.187 -223.558 21.765 C -223.425 21.81 -223.497 21.892 -223.599 21.906 C -230.082 22.838 -236.707 21.266 -242.143 21.196 C -244.77 21.162 -263.161 20.478 -264.046 18.491 C -264.046 18.491 -260.093 18.45 -260.093 18.45 C -267.022 17.909 -263.346 18.306 -270.195 17.505 C -270.23 17.501 -270.273 17.503 -270.295 17.477 C -270.314 17.453 -270.314 17.409 -270.294 17.386 C -270.294 17.386 -263.324 17.144 -263.324 17.144 C -265.315 16.66 -281.535 16.738 -282.061 15.432 C -282.061 15.432 -271.656 14.984 -271.656 14.984 C -271.656 14.984 -291.097 12.639 -291.097 12.639 C -291.097 12.639 -274.717 10.434 -274.717 10.434 C -280.196 9.735 -286.172 10.221 -291.697 10.237 L -291.697 10.237 L -291.697 13.921 C -291.649 13.925 -287.566 14.269 -287.503 14.403 C -287.371 14.685 -291.535 14.326 -291.331 14.857 C -291.331 14.857 -286.294 15.836 -286.294 15.836 C -286.294 15.836 -291.697 16.225 -291.697 16.225 L -291.697 16.225 L -291.697 16.371 C -283.311 18.646 -272.662 18.187 -264.937 22.118 C -264.937 22.118 -270.334 21.954 -270.334 21.954 C -270.54 22.182 -267.106 22.789 -267.202 22.815 C -267.202 22.815 -271.736 22.553 -271.736 22.553 C -271.982 22.545 -272.228 22.551 -272.473 22.563 C -272.72 22.576 -272.966 22.603 -273.212 22.629 C -273.244 22.632 -273.282 22.628 -273.305 22.65 C -273.326 22.67 -273.336 22.71 -273.323 22.737 C -272.801 23.883 -267.792 23.7 -266.447 23.821 C -259.762 24.426 -253.078 24.3 -246.374 24.471 L -246.374 24.471 Z  M -116.525 24.471 L 2.554 24.471 C 5.669 24.27 8.783 24.15 11.887 23.78 C 24.729 22.249 1.955 22.026 17.377 21.67 C 17.526 21.666 17.676 21.661 17.825 21.652 C 17.863 21.65 17.905 21.656 17.937 21.636 C 17.966 21.618 18.001 21.583 17.994 21.549 C 17.994 21.549 15.333 20.817 15.333 20.817 C 18.196 20.327 21.848 21.005 24.819 20.823 C 25.879 20.758 36.623 19.822 36.346 18.852 C 35.991 17.604 28.128 18.578 26.973 18.261 C 26.973 18.261 29.617 17.775 29.617 17.775 C 29.981 16.827 18.309 18.834 30.368 16.828 C 31.755 16.597 33.142 16.362 34.528 16.123 C 34.561 16.117 34.601 16.12 34.623 16.095 C 34.643 16.071 34.652 16.027 34.633 16.002 C 34.398 15.704 29.501 15.755 29.204 15.69 C 29.204 15.69 31.623 15.16 31.623 15.16 C 31.623 15.16 26.249 14.694 26.249 14.694 C 25.654 14.679 23.874 14.774 24.463 14.694 C 24.463 14.694 34.121 13.918 34.121 13.918 C 27.616 14.448 21.094 14.88 14.599 15.533 C 14.599 15.533 26.772 15.731 26.772 15.731 C 26.772 15.731 19.898 17.093 19.898 17.093 C 19.898 17.093 22.343 17.334 22.343 17.334 C 22.49 17.581 19.751 17.474 19.758 17.481 C 19.758 17.481 22.819 18.488 22.819 18.488 C 22.819 18.488 12.96 19.059 12.96 19.059 C 5.399 19.526 13.251 19.787 7.219 19.271 C 3.607 18.962 0.048 18.936 -3.565 18.962 C -5.962 18.979 -1.049 19.237 -9.375 19.423 C -9.742 19.431 -10.82 19.33 -10.477 19.464 C -10.477 19.464 -5.643 20.719 -5.643 20.719 C -9.112 23.207 -17.174 18.646 -21.072 20.356 C -21.072 20.356 -12.719 22.365 -12.719 22.365 C -15.213 22.257 -12.532 22.612 -12.016 22.804 C -11.984 22.816 -11.928 22.849 -11.946 22.878 C -12.769 24.286 -20.058 23.486 -21.865 23.421 C -27.184 23.229 -29.283 23.017 -35.028 22.46 C -45.532 21.441 -32.544 23.805 -43.483 22.086 C -44.923 21.86 -54.076 19.452 -51.116 21.591 C -51.116 21.591 -51.275 21.702 -51.275 21.702 C -54.379 22.065 -58.055 19.633 -61.198 20.37 C -61.198 20.37 -54.652 22.484 -54.652 22.484 C -55.152 22.959 -58.877 21.787 -59.5 21.83 C -60.861 21.924 -40.483 24.01 -64.499 22.302 C -88.679 20.583 -68.253 21.865 -69.257 22.512 C -71.591 24.018 -76.88 21.346 -80.037 21.878 C -80.037 21.878 -89.875 22.351 -89.875 22.351 C -97.57 23.052 -105.006 23.102 -110.705 23.106 C -113.74 23.108 -120.391 22.439 -120.524 22.337 C -120.524 22.337 -120.498 21.062 -120.498 21.062 C -123.531 21.159 -136.455 25.196 -139.38 22.294 C -139.38 22.294 -134.164 20.916 -134.164 20.916 C -134.164 20.916 -146.768 20.966 -146.768 20.966 C -144.627 18.258 -138.707 21.172 -148.676 20.32 C -148.715 20.317 -148.77 20.327 -148.789 20.294 C -148.789 20.294 -135.067 19.037 -135.067 19.037 C -137.902 19.144 -140.727 19.439 -143.56 19.593 C -150.502 19.968 -149.521 19.458 -153.098 20.136 C -154.884 20.476 -147.242 20.51 -156.611 21.195 C -156.642 21.198 -156.679 21.195 -156.702 21.216 C -156.725 21.237 -156.743 21.276 -156.731 21.306 C -156.731 21.306 -147.222 22.778 -147.222 22.778 C -147.222 22.778 -137.579 22.88 -137.579 22.88 C -137.579 22.88 -141.542 23.644 -141.542 23.644 C -141.542 23.644 -123.82 24.356 -123.82 24.356 C -121.324 24.411 -118.969 24.345 -116.525 24.471 L -116.525 24.471 Z  M 34.128 13.918 C 34.171 13.915 34.171 13.915 34.128 13.918 L 34.128 13.918 Z " fill-rule="evenodd" fill="rgb(158,195,73)"/><path d=" M -194.283 25 L -114.318 25 C -116.762 24.875 -119.117 24.941 -121.613 24.885 C -121.613 24.885 -139.335 24.173 -139.335 24.173 C -139.335 24.173 -135.372 23.41 -135.372 23.41 C -135.372 23.41 -145.132 23.198 -145.132 23.198 C -143.91 20.36 -153.242 25.033 -154.524 21.835 C -154.794 21.161 -144.048 21.751 -150.07 21.23 C -150.07 21.23 -149.886 20.487 -149.886 20.487 C -153.984 20.486 -158.081 20.711 -162.182 20.704 L -162.182 20.704 L -162.182 20.704 L -162.182 20.704 C -163.57 20.701 -164.958 20.708 -166.345 20.67 C -169.105 20.594 -171.866 20.521 -174.622 20.362 C -174.622 20.362 -194.989 18.711 -194.989 18.711 C -195.146 18.861 -200.143 18.723 -200.201 18.846 C -200.201 18.846 -190.543 20.517 -190.543 20.517 C -190.543 20.517 -194.886 20.608 -194.886 20.608 C -193.805 22.03 -189.384 21.441 -196.707 21.487 C -197.08 21.489 -197.452 21.484 -197.825 21.479 C -198.198 21.474 -198.572 21.464 -198.945 21.457 C -199.319 21.449 -199.694 21.439 -200.068 21.434 C -200.068 21.434 -203.196 21.474 -203.196 21.474 C -199.766 22.235 -185.844 21.65 -184.584 23.875 C -184.056 24.808 -198.997 24.173 -194.283 25 L -194.283 25 Z " fill="rgb(133,177,76)"/><path d=" M 7.006 20.487 L 42.755 20.487 L 42.755 9.658 C 38.159 9.934 33.451 10.098 28.915 10.711 C 28.915 10.711 36.076 11.177 36.076 11.177 C 35.703 11.995 29.478 11.422 36.339 11.788 C 36.339 11.788 39.085 12.018 39.085 12.018 C 39.788 12.914 26.07 13.257 32.306 13.55 C 32.306 13.55 31.425 14.277 31.425 14.277 C 32.58 14.594 40.443 13.62 40.798 14.868 C 41.075 15.838 30.331 16.774 29.271 16.839 C 26.3 17.021 22.648 16.344 19.785 16.834 C 19.785 16.834 22.446 17.565 22.446 17.565 C 22.473 17.7 16.331 17.45 15.785 17.442 C 15.634 17.44 15.482 17.442 15.33 17.445 C 15.178 17.449 14.725 17.436 14.874 17.463 C 26.299 19.552 17.803 19.743 11.04 20.247 C 9.705 20.347 8.35 20.4 7.006 20.487 L 7.006 20.487 Z " fill="rgb(133,177,76)"/><path d=" M -300.718 -1.001 C -307.531 -1.045 -314.252 -0.962 -320.709 0.143 C -327.084 1.235 -333.16 2.755 -339.921 3.303 C -347.085 3.885 -354.335 3.759 -361.569 3.921 C -369.219 4.094 -369.723 -2.946 -377.376 -3 C -384.935 -3.056 -399.679 3.822 -407.235 3.994 C -415.099 4.176 -422.974 3.555 -430.709 4.21 C -445.489 5.46 -455.82 2.332 -470.904 2.143 C -480.723 2.021 -494.47 6.943 -504.257 6.582 C -510.087 6.366 -516.358 8.866 -522.196 8.701 C -529.806 8.485 -536.932 5.618 -544.542 5.874 C -550.885 4.054 -557.668 4.707 -565.887 5.446 C -572.78 6.937 -581.486 9.226 -589.336 8.928 C -595.241 8.706 -601.161 6.298 -607.037 5.939 C -613.405 5.551 -620.288 3.134 -626.149 1.707 L -626.149 25.04 L -291.697 25.04 L -291.697 -0.953 C -294.703 -0.941 -297.72 -0.98 -300.718 -1.001 Z " fill="rgb(102,160,78)"/><path d=" M -601.89 13.661 C -606.102 13.661 -610.317 13.464 -614.518 13.305 C -618.397 13.158 -622.267 12.896 -626.149 12.738 L -626.149 4.21 C -624.989 4.445 -623.801 4.655 -622.591 4.845 C -623.146 4.884 -623.7 4.929 -624.251 4.99 C -624.396 5.005 -624.412 5.098 -624.291 5.128 C -618.357 6.743 -610.903 6.923 -605.329 8.824 L -619.104 8.824 C -619.269 8.824 -619.35 8.935 -619.192 8.968 C -616.675 9.524 -613.914 9.825 -611.432 10.41 C -614.186 10.717 -616.965 10.981 -619.787 11.128 C -619.957 11.136 -620.013 11.224 -619.87 11.271 C -615.856 12.6 -610.901 12.999 -605.96 12.999 C -603.639 12.999 -601.32 12.911 -599.104 12.79 C -591.345 12.368 -583.82 11.396 -576.177 10.695 C -574.744 10.565 -573.305 10.448 -571.86 10.36 C -571.683 10.349 -571.616 10.233 -571.814 10.211 C -576.328 9.672 -580.948 9.373 -585.573 9.108 C -580.928 9.019 -576.322 8.701 -571.696 8.498 C -569.416 8.398 -567.126 8.317 -564.833 8.251 C -564.428 8.265 -564.024 8.276 -563.618 8.285 C -562.708 8.305 -561.795 8.314 -560.88 8.314 C -555.815 8.314 -550.686 8.039 -545.717 7.874 C -542.824 7.779 -539.938 7.741 -537.052 7.741 C -536.134 7.741 -535.216 7.744 -534.299 7.752 C -533.446 7.759 -532.593 7.769 -531.74 7.781 C -515.133 8.406 -498.815 10.307 -482.182 10.947 C -479.023 11.07 -475.862 11.134 -472.7 11.134 C -470.539 11.134 -468.377 11.104 -466.215 11.043 C -460.858 10.886 -455.531 10.56 -450.224 10.196 C -445.104 9.849 -439.936 9.547 -434.91 8.976 C -429.997 8.416 -425.213 7.657 -420.388 6.96 C -418.941 6.752 -417.477 6.545 -416.008 6.354 C -412.879 6.192 -409.732 6.067 -406.557 5.994 C -402.62 5.906 -398.678 5.877 -394.736 5.877 C -391.011 5.877 -387.286 5.903 -383.564 5.93 L -383.564 5.93 C -383.128 5.933 -382.694 5.936 -382.258 5.939 C -379.433 5.961 -376.608 5.987 -373.78 6.002 C -375.248 6.16 -376.712 6.333 -378.161 6.523 C -378.345 6.549 -378.311 6.675 -378.119 6.675 C -373.622 6.678 -369.133 6.802 -364.636 6.825 C -366.99 7.143 -369.324 7.479 -371.703 7.753 C -371.902 7.775 -371.842 7.896 -371.661 7.905 C -363.564 8.258 -355.355 8.537 -347.178 8.537 C -334.618 8.537 -322.134 7.878 -310.261 5.812 C -309.864 5.741 -309.466 5.67 -309.074 5.598 C -308.904 5.566 -308.91 5.446 -309.118 5.446 C -312.129 5.446 -315.141 5.438 -318.142 5.325 C -312.354 4.453 -306.563 3.576 -300.916 2.527 C -300.746 2.495 -300.756 2.381 -300.96 2.377 C -301.937 2.361 -302.914 2.354 -303.891 2.354 C -308.343 2.354 -312.791 2.504 -317.223 2.685 C -319.172 2.763 -321.119 2.835 -323.062 2.905 C -322.813 2.858 -322.565 2.811 -322.317 2.764 C -321.171 2.549 -320.022 2.34 -318.864 2.143 C -313.112 1.172 -307.156 0.99 -301.11 0.99 C -300.275 0.99 -299.439 0.994 -298.603 0.999 C -296.308 1.015 -294.002 1.041 -291.697 1.048 L -291.697 5.004 C -296.192 5.331 -300.558 5.94 -304.924 6.515 C -311.642 7.403 -318.444 8.295 -325.294 8.928 C -332.339 9.583 -339.492 9.772 -346.67 9.775 C -346.687 9.775 -346.706 9.775 -346.724 9.775 C -361.544 9.775 -376.249 8.97 -390.971 8.29 C -395.597 8.078 -400.256 7.912 -404.911 7.912 C -407.134 7.912 -409.354 7.95 -411.572 8.039 C -415.819 8.209 -419.979 8.601 -424.125 9.028 C -429.398 9.336 -434.636 9.753 -439.87 10.177 C -443.657 10.484 -447.442 10.795 -451.241 11.072 C -451.248 11.073 -451.255 11.074 -451.263 11.075 C -454.269 11.294 -457.282 11.493 -460.31 11.651 C -464.21 11.856 -468.112 11.965 -472.013 12.006 C -472.65 11.953 -473.287 11.901 -473.926 11.851 C -480.714 11.308 -487.559 10.973 -494.418 10.666 C -501.158 10.369 -507.896 9.985 -514.654 9.792 C -518.783 9.673 -522.917 9.617 -527.051 9.617 C -536.408 9.617 -545.763 9.904 -555.057 10.399 C -561.882 10.764 -568.679 11.229 -575.451 11.766 C -578.781 12.031 -582.109 12.312 -585.432 12.607 C -588.755 12.903 -592.067 13.263 -595.42 13.474 C -597.574 13.609 -599.732 13.661 -601.89 13.661 Z " fill="rgb(87,141,75)"/><path d=" M -607.193 14.286 C -613.512 14.287 -619.829 14.069 -626.149 13.908 L -626.149 12.536 C -622.318 12.694 -618.5 12.956 -614.673 13.103 C -610.528 13.261 -606.369 13.459 -602.213 13.459 C -600.083 13.459 -597.955 13.407 -595.829 13.272 C -592.52 13.061 -589.253 12.701 -585.974 12.405 C -582.696 12.109 -579.412 11.829 -576.126 11.564 C -569.444 11.027 -562.738 10.562 -556.003 10.197 C -546.833 9.702 -537.602 9.415 -528.37 9.415 C -524.291 9.415 -520.212 9.471 -516.138 9.59 C -509.47 9.783 -502.822 10.167 -496.171 10.464 C -489.404 10.771 -482.65 11.106 -475.952 11.649 C -475.322 11.699 -474.693 11.751 -474.064 11.804 C -475.276 11.817 -476.488 11.823 -477.699 11.823 C -478.438 11.823 -479.176 11.821 -479.915 11.817 C -479.922 11.816 -479.928 11.816 -479.935 11.816 C -479.964 11.816 -479.993 11.816 -480.021 11.816 C -480.038 11.816 -480.054 11.816 -480.071 11.816 C -480.09 11.815 -480.107 11.815 -480.126 11.815 C -480.15 11.815 -480.174 11.815 -480.197 11.815 C -480.208 11.815 -480.218 11.815 -480.229 11.815 C -480.26 11.814 -480.292 11.814 -480.323 11.814 C -480.325 11.814 -480.326 11.814 -480.328 11.814 C -489.428 11.752 -498.525 11.383 -507.617 11.056 L -507.617 11.056 C -515.815 10.758 -523.971 10.539 -532.126 10.539 C -539.075 10.539 -546.022 10.698 -552.997 11.104 L -552.997 11.104 C -554.533 11.192 -556.067 11.287 -557.6 11.387 C -570.892 12.248 -584.07 13.45 -597.439 14.076 C -600.691 14.229 -603.943 14.286 -607.193 14.286 Z " fill="rgb(75,124,70)"/><path d=" M -351.78 10.234 C -358.767 10.234 -365.758 10.062 -372.702 9.817 C -384.844 9.391 -397.138 8.548 -409.365 8.548 C -412.215 8.548 -415.06 8.594 -417.9 8.701 C -420.132 8.785 -422.353 8.897 -424.569 9.028 C -420.478 8.601 -416.374 8.209 -412.183 8.039 C -409.995 7.95 -407.804 7.912 -405.611 7.912 C -401.018 7.912 -396.421 8.078 -391.856 8.29 C -377.33 8.97 -362.821 9.775 -348.198 9.775 C -348.181 9.775 -348.162 9.775 -348.145 9.775 C -341.063 9.772 -334.005 9.583 -327.054 8.928 C -320.295 8.295 -313.583 7.403 -306.955 6.515 C -302.647 5.94 -298.339 5.331 -293.904 5.004 L -293.904 7.043 C -293.934 7.043 -293.964 7.043 -293.994 7.043 C -297.991 7.046 -301.971 7.14 -305.982 7.438 C -313.284 7.975 -320.451 8.827 -327.741 9.39 C -335.684 10.005 -343.729 10.234 -351.78 10.234 Z " fill="rgb(75,124,70)"/><path d=" M -305.982 5.438 C -313.284 5.975 -320.451 6.827 -327.741 7.39 C -342.577 8.538 -357.757 8.343 -372.702 7.817 C -387.674 7.291 -402.875 6.133 -417.9 6.701 C -432.171 7.24 -446.07 8.897 -460.272 9.651 C -475.302 10.45 -490.349 9.801 -505.372 9.258 C -520.556 8.707 -535.592 8.425 -550.752 9.306 C -565.612 10.165 -580.283 11.58 -595.194 12.278 C -605.516 12.763 -615.829 12.29 -626.149 12.056 L -626.149 25.04 L -291.697 25.04 L -291.697 5.05 C -296.468 5.018 -301.204 5.083 -305.982 5.438 Z " fill="rgb(122,192,82)"/><path d=" M -566.269 14.989 C -566.573 14.989 -566.877 14.987 -567.181 14.984 C -565.214 14.756 -563.227 14.568 -561.366 14.188 C -561.223 14.158 -561.283 14.045 -561.434 14.045 C -561.44 14.045 -561.445 14.045 -561.451 14.045 C -565.061 14.232 -568.683 14.357 -572.308 14.357 C -574.12 14.357 -575.932 14.326 -577.745 14.256 C -575.42 14.062 -573.162 13.722 -571.091 13.189 C -570.957 13.154 -571.006 13.046 -571.163 13.046 C -571.167 13.046 -571.171 13.046 -571.175 13.046 C -571.816 13.069 -572.464 13.077 -573.119 13.083 C -571.525 12.912 -569.94 12.717 -568.362 12.512 C -564.033 12.19 -559.699 11.87 -555.355 11.589 C -553.822 11.489 -552.288 11.395 -550.752 11.306 L -550.752 11.306 C -543.777 10.9 -536.83 10.741 -529.881 10.741 C -521.726 10.741 -513.57 10.96 -505.372 11.258 L -505.372 11.258 C -496.281 11.586 -487.183 11.954 -478.083 12.016 C -478.081 12.016 -478.08 12.016 -478.078 12.016 C -478.047 12.016 -478.015 12.016 -477.984 12.017 C -477.973 12.017 -477.963 12.017 -477.952 12.017 C -477.929 12.017 -477.904 12.017 -477.881 12.017 C -477.862 12.017 -477.844 12.018 -477.826 12.018 C -477.809 12.018 -477.793 12.018 -477.776 12.018 C -477.747 12.018 -477.719 12.018 -477.69 12.018 C -477.684 12.019 -477.676 12.019 -477.67 12.019 C -477.551 12.019 -477.432 12.02 -477.313 12.021 C -478.802 12.175 -480.301 12.312 -481.81 12.425 C -484.196 12.602 -486.635 12.714 -489.067 12.714 C -491.099 12.714 -493.127 12.635 -495.115 12.45 C -495.619 12.375 -496.137 12.318 -496.678 12.281 C -496.689 12.281 -496.698 12.28 -496.708 12.28 C -496.896 12.28 -496.972 12.403 -496.768 12.431 C -496.249 12.495 -495.729 12.551 -495.203 12.599 C -494.63 12.687 -494.079 12.808 -493.57 12.961 C -497.977 12.896 -502.395 12.88 -506.786 12.664 C -506.793 12.664 -506.801 12.663 -506.808 12.663 C -506.985 12.663 -506.991 12.788 -506.827 12.813 C -506.27 12.903 -505.721 13.008 -505.182 13.116 C -512.413 12.786 -519.671 12.582 -526.945 12.582 C -527.658 12.582 -528.373 12.584 -529.087 12.588 C -529.272 12.588 -529.321 12.719 -529.13 12.737 C -527.776 12.866 -526.446 13.034 -525.117 13.213 C -525.674 13.217 -526.233 13.219 -526.792 13.219 C -527.428 13.219 -528.066 13.217 -528.703 13.215 C -529.341 13.213 -529.979 13.211 -530.618 13.211 C -533.315 13.211 -536.008 13.249 -538.657 13.485 C -542.989 13.871 -547.234 14.647 -551.691 14.66 C -551.025 14.458 -550.319 14.295 -549.628 14.112 C -549.471 14.07 -549.559 13.969 -549.715 13.969 C -549.728 13.969 -549.742 13.97 -549.756 13.972 C -555.202 14.508 -560.696 14.989 -566.269 14.989 Z " fill="rgb(145,200,95)"/><path d=" M -462.56 16.09 C -466.305 15.744 -469.998 15.291 -473.57 14.655 C -471.586 14.628 -469.601 14.509 -467.799 14.112 C -467.642 14.079 -467.722 13.969 -467.881 13.969 C -469.561 13.966 -471.253 13.901 -472.822 13.618 C -468.253 13.265 -463.624 13.091 -459.117 12.585 C -458.929 12.563 -458.972 12.434 -459.163 12.434 C -460.872 12.441 -462.575 12.553 -464.279 12.553 C -464.47 12.553 -464.661 12.552 -464.852 12.549 C -460.328 12.103 -455.844 11.575 -451.346 11.075 C -447.592 10.797 -443.848 10.485 -440.104 10.177 C -432.74 9.573 -425.371 8.984 -417.9 8.701 C -415.06 8.594 -412.215 8.548 -409.365 8.548 C -397.138 8.548 -384.844 9.391 -372.702 9.817 C -369.728 9.924 -366.743 10.014 -363.753 10.084 C -361.854 10.335 -359.935 10.557 -358.03 10.796 C -359.95 10.909 -361.879 10.941 -363.812 10.941 C -365.08 10.941 -366.35 10.927 -367.619 10.913 C -368.888 10.899 -370.156 10.886 -371.423 10.886 C -372.05 10.886 -372.677 10.889 -373.303 10.897 C -373.492 10.899 -373.534 11.024 -373.349 11.049 C -371.368 11.312 -369.277 11.302 -367.292 11.545 C -372.521 11.74 -377.78 11.801 -382.907 12.359 C -383.094 12.38 -383.051 12.51 -382.861 12.51 C -381.004 12.507 -379.141 12.467 -377.279 12.444 C -383.961 13.111 -390.351 14.26 -396.891 15.161 C -396.124 14.993 -395.379 14.802 -394.681 14.571 C -394.57 14.532 -394.582 14.429 -394.746 14.429 C -394.753 14.429 -394.761 14.429 -394.768 14.43 C -400.866 14.729 -406.868 15.348 -412.975 15.614 C -411.79 15.4 -410.586 15.213 -409.44 14.957 C -409.27 14.92 -409.379 14.821 -409.522 14.813 C -410.792 14.737 -412.067 14.706 -413.345 14.706 C -417.757 14.706 -422.204 15.079 -426.55 15.302 C -431.76 15.565 -437.005 15.671 -442.217 15.926 C -441.02 15.774 -439.828 15.614 -438.658 15.423 C -438.49 15.396 -438.503 15.274 -438.697 15.274 C -438.699 15.274 -438.701 15.274 -438.704 15.274 C -440.277 15.293 -441.851 15.303 -443.424 15.303 C -448.171 15.303 -452.918 15.217 -457.652 15.044 C -457.658 15.044 -457.665 15.044 -457.671 15.044 C -457.873 15.044 -457.855 15.185 -457.652 15.198 C -456.447 15.271 -455.255 15.387 -454.074 15.517 C -456.803 15.907 -459.692 16.063 -462.56 16.09 Z " fill="rgb(145,200,95)"/><path d=" M -293.994 7.043 C -293.964 7.043 -293.934 7.043 -293.904 7.043 L -293.904 7.043 C -293.934 7.043 -293.964 7.043 -293.994 7.043 Z " fill="rgb(61,106,64)"/><path d=" M -419.369 20.403 C -423.364 20.403 -427.342 20.324 -431.318 20.183 C -431.315 20.184 -431.313 20.184 -431.31 20.185 C -437.008 19.982 -442.684 19.654 -448.343 19.263 C -448.337 19.264 -448.332 19.265 -448.327 19.266 C -452.69 18.964 -457.041 18.622 -461.384 18.27 C -475.845 17.098 -490.361 15.788 -505.072 15.511 C -507.354 15.468 -509.64 15.449 -511.924 15.449 C -525.123 15.449 -538.338 16.091 -551.487 16.47 C -558.008 16.659 -564.514 16.798 -571.004 16.798 C -579.375 16.798 -587.723 16.567 -596.062 15.917 C -596.706 15.866 -597.35 15.815 -597.993 15.762 C -597.992 15.762 -597.99 15.762 -597.988 15.762 C -599.481 15.641 -600.973 15.515 -602.465 15.387 C -607.558 14.951 -612.649 14.493 -617.759 14.13 C -617.776 14.129 -617.791 14.128 -617.808 14.126 C -617.814 14.126 -617.822 14.125 -617.828 14.125 C -619.117 14.034 -620.406 13.948 -621.697 13.871 L -621.697 13.81 C -615.377 13.971 -609.06 14.188 -602.741 14.188 C -599.491 14.188 -596.239 14.131 -592.987 13.978 C -589.015 13.793 -585.056 13.557 -581.107 13.292 C -581.271 13.318 -581.221 13.437 -581.043 13.437 C -579.184 13.435 -577.323 13.393 -575.464 13.373 C -580.42 13.885 -585.366 14.448 -590.431 14.668 C -590.609 14.672 -590.677 14.799 -590.477 14.817 C -589.576 14.894 -588.673 14.911 -587.768 14.911 C -587.347 14.911 -586.924 14.907 -586.502 14.904 C -587.854 15.082 -589.254 15.171 -590.646 15.284 C -590.806 15.298 -590.806 15.418 -590.646 15.429 C -585.497 15.877 -580.26 15.99 -575.025 16.005 C -573.507 16.008 -571.987 16.011 -570.465 16.011 C -566.645 16.011 -562.818 15.993 -559.009 15.924 C -548.065 15.728 -537.208 14.971 -526.303 14.554 C -519.995 14.314 -513.662 14.2 -507.329 14.2 C -502.94 14.2 -498.552 14.254 -494.173 14.36 C -483.51 14.614 -473.167 15.643 -462.768 16.689 C -458.648 17.106 -454.522 17.512 -450.369 17.846 C -448.381 18.006 -446.392 18.147 -444.395 18.267 C -443.464 18.324 -442.533 18.376 -441.6 18.42 C -442.155 18.449 -442.708 18.476 -443.258 18.505 C -443.412 18.514 -443.504 18.609 -443.345 18.648 C -441.638 19.074 -439.645 19.165 -437.74 19.229 C -435.4 19.305 -433.053 19.354 -430.709 19.396 C -428.006 19.448 -425.308 19.48 -422.609 19.48 C -419.953 19.48 -417.297 19.449 -414.639 19.375 C -405.882 19.135 -390.399 17.685 -389.58 17.685 C -389.54 17.685 -389.535 17.688 -389.569 17.696 C -389.719 17.73 -389.652 17.84 -389.494 17.84 C -389.492 17.84 -389.489 17.84 -389.486 17.839 C -385.138 17.778 -381.109 16.997 -377.056 16.316 C -377.414 16.448 -377.761 16.589 -378.092 16.734 C -378.203 16.785 -378.107 16.868 -377.969 16.868 C -377.955 16.868 -377.94 16.867 -377.925 16.865 C -376.605 16.715 -375.284 16.557 -373.966 16.397 C -372.065 16.276 -370.208 15.998 -368.375 15.683 C -361.147 14.727 -353.969 13.682 -346.699 12.795 C -338.74 11.821 -330.698 10.968 -322.576 10.333 C -318.862 10.148 -315.166 9.798 -311.427 9.736 C -307.274 9.668 -303.107 9.607 -298.952 9.607 C -298.853 9.607 -298.754 9.607 -298.656 9.607 C -297.216 9.607 -295.769 9.589 -294.337 9.511 C -293.468 9.464 -292.525 9.402 -291.697 9.242 L -291.697 10.466 C -292.308 10.465 -292.92 10.464 -293.531 10.464 C -298.58 10.464 -303.639 10.524 -308.69 10.662 C -308.686 10.662 -308.682 10.662 -308.677 10.663 C -317.099 10.893 -325.489 11.338 -333.751 12.077 C -342.916 12.896 -351.912 14.025 -360.888 15.191 C -360.887 15.19 -360.886 15.19 -360.886 15.19 C -361.196 15.23 -361.507 15.271 -361.817 15.311 C -366.7 15.946 -371.579 16.59 -376.478 17.197 C -379.686 17.594 -382.91 17.977 -386.149 18.332 C -386.147 18.331 -386.145 18.33 -386.143 18.329 C -396.929 19.514 -407.887 20.382 -419.005 20.403 L -419.005 20.403 L -419.005 20.403 L -419.005 20.403 C -419.126 20.403 -419.248 20.403 -419.369 20.403 Z  M -291.697 7.624 C -291.72 7.617 -291.743 7.611 -291.766 7.605 C -293.197 7.233 -294.957 7.106 -296.561 7.007 C -297.474 6.951 -298.387 6.916 -299.304 6.886 C -296.798 6.786 -294.295 6.745 -291.787 6.742 C -291.757 6.742 -291.727 6.742 -291.697 6.742 L -291.697 7.624 Z " fill="rgb(89,162,80)"/><path d=" M -335.958 10.377 C -350.426 11.671 -364.471 13.735 -378.685 15.497 C -392.572 17.216 -406.758 18.678 -421.212 18.703 C -435.474 18.729 -449.582 17.707 -463.591 16.57 C -478.052 15.398 -492.568 14.088 -507.279 13.812 C -522.751 13.519 -538.27 14.326 -553.694 14.771 C -568.627 15.203 -583.465 15.372 -598.269 14.217 C -607.556 13.49 -616.805 12.534 -626.149 12.045 L -626.149 25.04 L -291.697 25.04 L -291.697 8.776 C -306.488 8.687 -321.425 9.077 -335.958 10.377 Z " fill="rgb(173,205,69)"/><path d=" M -433.508 20.487 C -439.204 20.285 -444.878 19.959 -450.534 19.566 C -450.539 19.565 -450.544 19.564 -450.55 19.563 C -444.891 19.955 -439.215 20.283 -433.517 20.485 C -433.514 20.485 -433.511 20.486 -433.508 20.487 Z  M -600.2 16.063 C -601.692 15.941 -603.182 15.815 -604.672 15.688 C -603.18 15.815 -601.688 15.941 -600.195 16.063 C -600.197 16.063 -600.199 16.063 -600.2 16.063 Z  M -364.024 15.612 C -363.714 15.571 -363.403 15.531 -363.093 15.49 C -363.093 15.49 -363.094 15.491 -363.095 15.491 C -363.405 15.531 -363.714 15.571 -364.024 15.612 Z " fill="rgb(83,154,79)"/><path d=" M -310.884 10.963 C -310.889 10.963 -310.893 10.962 -310.897 10.962 C -305.846 10.824 -300.787 10.764 -295.738 10.764 C -295.127 10.764 -294.515 10.765 -293.904 10.767 L -293.904 10.767 C -294.499 10.765 -295.093 10.764 -295.688 10.764 C -300.75 10.764 -305.823 10.825 -310.884 10.963 Z " fill="rgb(83,154,79)"/><path d=" M -337.02 24.47 L -386.904 24.47 C -386.455 24.391 -385.988 24.336 -385.52 24.28 C -387.43 24.226 -389.354 24.266 -391.261 24.19 C -393.038 24.122 -395.206 24.03 -396.536 23.421 C -396.619 23.385 -396.588 23.304 -396.463 23.292 C -390.143 22.797 -384 21.96 -377.991 20.944 C -378.658 20.909 -379.328 20.897 -379.998 20.897 C -380.745 20.897 -381.494 20.912 -382.242 20.927 C -382.989 20.942 -383.736 20.957 -384.48 20.957 C -385.919 20.957 -387.347 20.901 -388.749 20.68 C -388.872 20.659 -388.932 20.567 -388.79 20.539 C -387.97 20.376 -387.111 20.251 -386.301 20.078 C -387.021 20.091 -387.741 20.117 -388.459 20.117 C -389.155 20.117 -389.849 20.093 -390.537 20.012 C -390.715 19.991 -390.68 19.892 -390.537 19.864 C -387.427 19.27 -383.907 19.107 -380.986 18.316 C -382.664 18.285 -384.346 18.308 -386.021 18.224 C -386.179 18.215 -386.218 18.146 -386.149 18.103 C -382.91 17.748 -379.686 17.364 -376.478 16.967 C -371.58 16.361 -366.701 15.718 -361.817 15.082 C -361.507 15.041 -361.198 15.001 -360.888 14.961 C -365.591 16.006 -370.658 16.685 -375.673 17.358 C -375.856 17.383 -375.813 17.504 -375.626 17.506 C -375.419 17.511 -375.213 17.514 -375.006 17.514 C -374.071 17.514 -373.143 17.465 -372.218 17.408 C -375.675 17.994 -379.038 18.7 -382.601 19.149 C -382.786 19.172 -382.743 19.295 -382.555 19.298 C -382.37 19.302 -382.185 19.304 -382 19.304 C -380.451 19.304 -378.918 19.186 -377.376 19.121 C -378.844 19.47 -380.464 19.662 -381.972 19.977 C -382.129 20.007 -382.04 20.118 -381.885 20.118 C -381.754 20.119 -381.622 20.119 -381.49 20.119 C -376.653 20.119 -371.956 19.538 -367.182 19.25 C -368.827 19.619 -370.511 19.945 -372.133 20.333 C -372.272 20.367 -372.219 20.477 -372.063 20.477 C -372.058 20.477 -372.053 20.477 -372.048 20.477 C -370.685 20.414 -369.404 20.178 -368.065 20.064 C -373.914 21.836 -380.7 22.799 -387.52 23.448 C -387.716 23.467 -387.651 23.59 -387.476 23.6 C -386.991 23.617 -386.508 23.625 -386.028 23.625 C -380.187 23.625 -374.706 22.45 -368.953 22.097 C -369.798 22.37 -370.734 22.581 -371.496 22.904 C -371.62 22.957 -371.501 23.034 -371.359 23.034 C -371.35 23.034 -371.342 23.033 -371.334 23.033 C -366.419 22.67 -362.106 21.464 -357.357 20.851 C -358.099 21.2 -358.989 21.47 -359.836 21.764 C -359.953 21.807 -359.94 21.88 -359.795 21.906 C -359.153 22.016 -358.474 22.054 -357.79 22.054 C -357.061 22.054 -356.324 22.011 -355.618 21.964 C -353.821 21.846 -352.023 21.68 -350.234 21.531 C -347.965 21.346 -345.717 21.11 -343.483 20.842 C -343.606 20.879 -343.725 20.914 -343.848 20.946 C -343.966 20.981 -343.96 21.074 -343.808 21.087 C -342.952 21.163 -342.1 21.196 -341.251 21.196 C -337.853 21.196 -334.513 20.671 -331.254 20.254 C -327.273 19.746 -323.118 19.403 -319.422 18.519 C -319.3 18.494 -319.317 18.39 -319.46 18.379 C -319.859 18.351 -320.256 18.34 -320.653 18.34 C -321.537 18.34 -322.418 18.396 -323.301 18.45 C -319.942 18.114 -316.461 18.033 -313.199 17.504 C -313.039 17.478 -313.041 17.383 -313.199 17.358 C -314.497 17.143 -315.895 17.069 -317.309 17.069 C -318.23 17.069 -319.159 17.101 -320.07 17.144 C -316.915 16.733 -313.711 16.372 -310.441 16.244 C -307.464 16.128 -304.748 15.638 -301.421 15.451 C -301.266 15.442 -301.337 15.332 -301.463 15.309 C -302.873 15.066 -304.323 15.011 -305.787 15.011 C -306.393 15.011 -307.002 15.02 -307.611 15.03 C -308.22 15.039 -308.83 15.048 -309.438 15.048 C -310.208 15.048 -310.976 15.033 -311.738 14.984 C -305.827 13.488 -298.813 13.518 -292.408 12.744 C -292.259 12.727 -292.253 12.64 -292.368 12.606 C -294.976 11.777 -298.184 11.428 -301.243 11.127 C -303.711 10.883 -306.188 10.633 -308.677 10.433 C -303.616 10.295 -298.543 10.234 -293.481 10.234 C -292.886 10.234 -292.292 10.235 -291.697 10.237 L -291.697 13.921 C -293.12 14.036 -294.525 14.197 -295.891 14.403 C -294.665 14.541 -293.395 14.576 -292.184 14.748 C -292.056 14.763 -292.005 14.857 -292.143 14.887 C -293.775 15.226 -295.542 15.428 -297.1 15.836 C -295.371 16.131 -293.362 15.798 -291.697 16.224 L -291.697 16.371 C -292.228 16.515 -293.549 16.799 -294.296 16.885 C -295.508 17.019 -296.682 17.222 -297.839 17.44 C -300.394 17.915 -302.896 18.463 -305.322 19.065 C -309.639 20.134 -313.892 21.275 -318.457 22.118 C -316.88 22.035 -315.314 21.904 -313.728 21.904 C -313.568 21.904 -313.407 21.906 -313.246 21.909 C -313.112 21.911 -313.009 21.996 -313.127 22.041 C -314.042 22.386 -315.18 22.547 -316.192 22.815 C -314.677 22.755 -313.17 22.552 -311.658 22.552 C -311.167 22.552 -310.675 22.574 -310.182 22.628 C -310.036 22.643 -310.025 22.736 -310.144 22.769 C -312.118 23.345 -314.69 23.576 -316.947 23.821 C -319.712 24.117 -322.536 24.23 -325.368 24.303 C -329.229 24.403 -333.14 24.371 -337.02 24.47 Z  M -466.869 24.47 L -585.949 24.47 C -586.13 24.458 -586.311 24.447 -586.492 24.434 C -591.048 24.127 -596.191 24.03 -600.077 22.769 C -600.175 22.736 -600.194 22.665 -600.077 22.637 C -598.102 22.122 -595.986 21.748 -593.817 21.447 C -594.121 21.432 -594.425 21.425 -594.728 21.425 C -595.662 21.425 -596.591 21.487 -597.522 21.549 C -598.453 21.611 -599.385 21.673 -600.324 21.673 C -600.622 21.673 -600.92 21.666 -601.22 21.652 C -601.385 21.644 -601.451 21.555 -601.305 21.508 C -600.473 21.256 -599.625 21.014 -598.727 20.817 C -600.504 20.877 -602.287 20.933 -604.07 20.933 C -604.387 20.933 -604.703 20.931 -605.02 20.927 C -607.186 20.898 -609.24 20.747 -611.352 20.539 C -614.147 20.265 -617.786 20.012 -619.674 18.918 C -619.735 18.882 -619.747 18.82 -619.64 18.797 C -616.773 18.198 -613.447 18.41 -610.368 18.26 C -611.223 18.106 -612.089 17.97 -612.933 17.804 C -613.068 17.777 -613.022 17.678 -612.89 17.665 C -611.8 17.548 -610.697 17.518 -609.584 17.509 C -612.346 17.026 -615.179 16.629 -617.923 16.122 C -618.069 16.097 -618.095 15.998 -617.923 15.974 C -616.187 15.746 -614.374 15.796 -612.599 15.69 C -613.317 15.476 -614.218 15.408 -614.942 15.194 C -615.069 15.156 -615.043 15.076 -614.906 15.054 C -612.628 14.694 -610.236 14.694 -607.858 14.694 C -611.072 14.418 -614.29 14.149 -617.515 13.918 C -612.487 14.278 -607.476 14.729 -602.465 15.158 C -600.975 15.285 -599.485 15.411 -597.993 15.533 C -598.216 15.538 -598.441 15.542 -598.665 15.546 C -602.461 15.606 -606.259 15.653 -610.052 15.718 C -610.225 15.718 -610.276 15.816 -610.139 15.859 C -608.088 16.499 -605.696 16.833 -603.293 17.092 C -604.077 17.144 -604.845 17.231 -605.625 17.306 C -605.815 17.323 -605.767 17.456 -605.583 17.456 C -604.771 17.456 -603.96 17.461 -603.152 17.481 C -604.265 17.699 -605.198 18.049 -606.147 18.401 C -606.268 18.445 -606.159 18.531 -606.028 18.531 C -605.877 18.533 -605.725 18.533 -605.573 18.533 C -604.439 18.533 -603.292 18.487 -602.143 18.441 C -600.995 18.396 -599.845 18.35 -598.703 18.35 C -597.734 18.35 -596.772 18.383 -595.822 18.477 C -596.381 18.586 -596.956 18.679 -597.505 18.797 C -597.644 18.829 -597.591 18.92 -597.463 18.939 C -596.728 19.041 -595.981 19.077 -595.227 19.077 C -593.969 19.077 -592.696 18.977 -591.441 18.918 C -592.099 19.107 -592.717 19.321 -593.37 19.515 C -593.505 19.555 -593.445 19.66 -593.298 19.66 C -593.28 19.66 -593.26 19.658 -593.239 19.655 C -589.777 19.063 -586.084 18.949 -582.388 18.949 C -580.683 18.949 -578.976 18.974 -577.292 18.986 C -578.134 19.102 -578.938 19.27 -579.729 19.463 C -579.899 19.504 -579.791 19.606 -579.632 19.606 C -579.622 19.606 -579.612 19.606 -579.602 19.605 C -578.13 19.481 -576.628 19.414 -575.127 19.414 C -574.389 19.414 -573.651 19.43 -572.917 19.463 C -574.608 19.748 -576.173 20.164 -577.719 20.59 C -577.848 20.625 -577.806 20.732 -577.645 20.732 C -577.641 20.732 -577.637 20.732 -577.632 20.732 C -574.549 20.612 -571.453 20.688 -568.369 20.595 C -566.356 20.537 -564.335 20.45 -562.322 20.356 C -565.609 20.851 -568.802 21.473 -571.794 22.278 C -571.92 22.312 -571.886 22.422 -571.731 22.422 C -571.724 22.422 -571.717 22.422 -571.71 22.421 C -571.019 22.381 -570.331 22.348 -569.64 22.331 C -570.242 22.47 -570.842 22.612 -571.378 22.803 C -571.473 22.834 -571.424 22.921 -571.305 22.929 C -570.152 23.007 -568.996 23.041 -567.839 23.041 C -566.361 23.041 -564.883 22.986 -563.414 22.896 C -563.892 23.016 -564.351 23.155 -564.783 23.315 C -564.903 23.358 -564.799 23.442 -564.664 23.445 C -564.509 23.446 -564.355 23.446 -564.201 23.446 C -557.066 23.446 -550.085 22.639 -543.176 21.892 C -543.82 22.092 -544.501 22.269 -545.107 22.494 C -545.226 22.538 -545.123 22.622 -544.989 22.625 C -544.935 22.626 -544.881 22.626 -544.826 22.626 C -542.573 22.626 -540.424 22.156 -538.34 21.812 C -536.036 21.43 -533.532 21.074 -531.09 20.914 C -531.498 21.131 -531.915 21.351 -532.278 21.59 C -532.369 21.647 -532.243 21.702 -532.12 21.702 C -532.095 21.702 -532.071 21.7 -532.048 21.695 C -528.873 21.04 -525.566 20.651 -522.196 20.37 C -524.577 20.875 -526.771 21.563 -528.675 22.392 C -528.804 22.447 -528.682 22.519 -528.541 22.519 C -528.518 22.519 -528.495 22.517 -528.472 22.513 C -526.988 22.226 -525.418 22.061 -523.894 21.829 C -524.653 22.088 -525.392 22.362 -526.104 22.649 C -526.204 22.689 -526.137 22.781 -526.001 22.781 C -525.995 22.781 -525.99 22.781 -525.984 22.781 C -521.25 22.489 -516.54 22.115 -511.823 21.774 C -512.596 21.964 -513.366 22.159 -514.111 22.381 C -514.243 22.421 -514.196 22.525 -514.024 22.525 C -510.978 22.501 -508.146 21.781 -505.111 21.781 C -504.89 21.781 -504.666 21.785 -504.442 21.794 C -502.967 21.846 -501.663 22.254 -500.382 22.552 C -499.308 22.806 -498.182 22.987 -496.973 22.987 C -496.881 22.987 -496.789 22.986 -496.696 22.984 C -496.591 22.981 -496.498 22.935 -496.536 22.887 C -496.655 22.715 -496.811 22.552 -496.986 22.392 C -495.69 22.634 -494.29 22.769 -492.939 22.929 C -492.924 22.931 -492.91 22.932 -492.896 22.932 C -492.774 22.932 -492.679 22.869 -492.751 22.817 C -492.972 22.649 -493.232 22.496 -493.519 22.35 C -492.149 22.655 -490.585 22.807 -489.139 22.924 C -486.623 23.127 -484.063 23.168 -481.538 23.34 C -481.528 23.341 -481.518 23.341 -481.508 23.341 C -481.337 23.341 -481.254 23.247 -481.407 23.201 C -481.529 23.16 -481.654 23.124 -481.777 23.087 C -479.293 23.201 -476.752 23.203 -474.339 23.343 C -474.332 23.344 -474.326 23.344 -474.32 23.344 C -474.182 23.344 -474.126 23.253 -474.217 23.211 C -474.326 23.163 -474.433 23.119 -474.543 23.076 C -473.923 23.1 -473.298 23.105 -472.689 23.105 C -472.212 23.105 -471.744 23.102 -471.3 23.101 C -468.283 23.087 -465.275 23.068 -462.332 22.725 C -462.206 22.709 -462.17 22.637 -462.259 22.598 C -462.452 22.505 -462.658 22.419 -462.87 22.336 C -462.564 22.349 -462.258 22.356 -461.954 22.356 C -461.558 22.356 -461.163 22.344 -460.769 22.317 C -460.655 22.308 -460.618 22.243 -460.665 22.204 C -461.226 21.764 -462.012 21.391 -462.896 21.062 C -458.369 21.85 -453.614 22.584 -448.846 22.584 C -447.266 22.584 -445.683 22.503 -444.108 22.317 C -443.958 22.296 -443.958 22.212 -444.069 22.176 C -445.657 21.65 -447.424 21.261 -449.23 20.915 C -446.737 21.194 -444.096 21.433 -441.523 21.433 C -439.878 21.433 -438.261 21.335 -436.73 21.087 C -436.58 21.066 -436.56 20.96 -436.73 20.939 C -438.478 20.729 -440.351 20.75 -442.032 20.456 C -441.14 20.513 -440.244 20.539 -439.347 20.539 C -437.797 20.539 -436.246 20.46 -434.718 20.32 C -434.525 20.303 -434.584 20.173 -434.763 20.169 C -437.977 20.105 -441.046 19.847 -444.183 19.543 C -445.523 19.415 -446.994 19.283 -448.327 19.037 C -442.671 19.429 -436.997 19.756 -431.301 19.957 C -430.63 20.075 -429.963 20.197 -429.316 20.333 C -429.165 20.365 -429.231 20.452 -429.354 20.473 C -430.505 20.677 -431.729 20.722 -432.946 20.784 C -430.915 20.981 -428.81 20.987 -426.783 21.195 C -426.645 21.208 -426.61 21.307 -426.74 21.335 C -430.073 22.052 -433.768 22.061 -437.319 22.37 C -436.915 22.449 -436.518 22.536 -436.131 22.637 C -436.005 22.668 -436.03 22.76 -436.172 22.778 C -437.455 22.921 -438.76 22.963 -440.073 22.963 C -441.001 22.963 -441.933 22.942 -442.864 22.921 C -443.794 22.9 -444.724 22.879 -445.649 22.879 C -445.704 22.879 -445.76 22.879 -445.815 22.879 C -444.593 23.191 -443.205 23.331 -441.943 23.608 C -441.777 23.644 -441.883 23.745 -442.03 23.751 C -449.81 24.111 -457.62 24.384 -465.435 24.398 C -465.913 24.422 -466.391 24.446 -466.869 24.47 Z  M -617.522 13.917 C -617.536 13.916 -617.548 13.915 -617.561 13.914 C -617.549 13.915 -617.535 13.916 -617.522 13.917 Z " fill="rgb(158,195,73)"/><path d=" M -389.111 25 L -469.076 25 C -468.598 24.976 -468.12 24.952 -467.642 24.928 C -459.827 24.914 -452.017 24.641 -444.237 24.281 C -444.09 24.274 -443.984 24.174 -444.15 24.138 C -445.412 23.861 -446.8 23.721 -448.022 23.409 C -447.967 23.409 -447.911 23.409 -447.856 23.409 C -446.931 23.409 -446.001 23.43 -445.071 23.451 C -444.14 23.472 -443.208 23.493 -442.28 23.493 C -440.967 23.493 -439.662 23.451 -438.379 23.308 C -438.237 23.29 -438.212 23.198 -438.338 23.167 C -438.725 23.065 -439.122 22.979 -439.526 22.899 C -435.975 22.591 -432.28 22.582 -428.947 21.864 C -428.817 21.837 -428.852 21.738 -428.99 21.725 C -431.017 21.517 -433.122 21.511 -435.153 21.313 C -433.936 21.252 -432.712 21.207 -431.561 21.003 C -431.438 20.981 -431.372 20.895 -431.523 20.863 C -432.17 20.727 -432.837 20.605 -433.508 20.487 C -429.595 20.625 -425.67 20.704 -421.735 20.703 C -421.626 20.703 -421.516 20.703 -421.408 20.703 C -421.398 20.703 -421.389 20.703 -421.379 20.703 C -421.323 20.703 -421.267 20.703 -421.212 20.703 L -421.212 20.703 L -421.212 20.703 C -410.097 20.684 -399.14 19.815 -388.356 18.632 C -388.425 18.676 -388.386 18.745 -388.228 18.754 C -386.553 18.838 -384.871 18.814 -383.193 18.846 C -386.114 19.637 -389.634 19.8 -392.744 20.394 C -392.887 20.422 -392.922 20.521 -392.744 20.542 C -392.056 20.623 -391.362 20.646 -390.666 20.646 C -389.948 20.646 -389.228 20.621 -388.508 20.607 C -389.318 20.781 -390.177 20.906 -390.997 21.068 C -391.139 21.097 -391.079 21.188 -390.956 21.21 C -389.554 21.43 -388.126 21.486 -386.687 21.486 C -385.943 21.486 -385.196 21.471 -384.449 21.456 C -383.701 21.441 -382.952 21.426 -382.205 21.426 C -381.535 21.426 -380.865 21.439 -380.198 21.474 C -386.207 22.489 -392.35 23.327 -398.67 23.822 C -398.795 23.834 -398.826 23.915 -398.743 23.951 C -397.413 24.56 -395.245 24.651 -393.468 24.72 C -391.561 24.796 -389.637 24.756 -387.727 24.81 C -388.195 24.866 -388.662 24.921 -389.111 25 Z " fill="rgb(133,177,76)"/><path d=" M -590.401 20.487 L -626.149 20.487 L -626.149 9.658 C -625.116 9.72 -624.084 9.787 -623.053 9.858 C -623.044 9.858 -623.035 9.859 -623.026 9.86 C -623.006 9.861 -622.986 9.862 -622.966 9.864 C -622.946 9.865 -622.926 9.867 -622.906 9.868 C -622.9 9.868 -622.894 9.869 -622.889 9.869 C -622.597 9.889 -622.306 9.91 -622.014 9.931 C -622.001 9.932 -621.988 9.933 -621.975 9.934 C -621.972 9.934 -621.97 9.934 -621.968 9.934 C -618.742 10.166 -615.524 10.434 -612.31 10.71 C -614.688 10.71 -617.08 10.71 -619.358 11.071 C -619.495 11.092 -619.521 11.172 -619.394 11.21 C -618.67 11.424 -617.769 11.492 -617.051 11.706 C -618.827 11.813 -620.64 11.762 -622.375 11.99 C -622.547 12.015 -622.521 12.113 -622.375 12.139 C -619.631 12.646 -616.798 13.042 -614.037 13.526 C -615.149 13.534 -616.252 13.565 -617.342 13.681 C -617.474 13.695 -617.52 13.793 -617.385 13.82 C -616.541 13.987 -615.675 14.122 -614.82 14.277 C -617.899 14.426 -621.225 14.214 -624.092 14.814 C -624.199 14.836 -624.187 14.899 -624.126 14.934 C -622.238 16.029 -618.6 16.281 -615.804 16.555 C -613.692 16.763 -611.638 16.914 -609.472 16.944 C -609.155 16.947 -608.839 16.949 -608.522 16.949 C -606.739 16.949 -604.956 16.893 -603.18 16.833 C -604.078 17.031 -604.925 17.273 -605.757 17.525 C -605.903 17.571 -605.837 17.66 -605.672 17.668 C -605.372 17.683 -605.074 17.689 -604.776 17.689 C -603.838 17.689 -602.905 17.627 -601.974 17.565 C -601.044 17.503 -600.114 17.441 -599.18 17.441 C -598.877 17.441 -598.573 17.448 -598.269 17.463 C -600.438 17.764 -602.554 18.139 -604.529 18.654 C -604.646 18.682 -604.627 18.752 -604.529 18.785 C -600.644 20.046 -595.5 20.144 -590.944 20.45 C -590.763 20.463 -590.582 20.475 -590.401 20.487 Z " fill="rgb(133,177,76)"/><path d=" M -951.58 -1.001 C -945.706 -1.038 -939.86 -0.929 -934.019 -0.239 C -920.844 1.318 -897.295 9.96 -885.204 2.414 C -884.633 2.058 -884.116 1.621 -883.592 1.199 C -880.874 -0.983 -878.621 -2.972 -874.922 -3 C -862.713 -3.089 -851.659 4.116 -839.164 4.031 C -822.357 3.916 -806.266 3.838 -789.45 2.506 C -786.261 2.253 -782.76 1.949 -779.523 2.16 C -760.707 3.387 -740.631 10.985 -721.693 7.652 C -715.83 6.62 -709.992 5.878 -704.138 5.088 C -700.667 4.619 -698.815 4.609 -695.121 4.762 C -695.121 4.762 -686.412 5.447 -686.412 5.447 C -664.101 9.394 -648.112 7.053 -626.149 1.707 L -626.149 1.707 L -626.149 25.041 L -960.601 25.041 L -960.601 -0.953 C -956.593 -0.937 -955.587 -0.972 -951.58 -1.001 L -951.58 -1.001 Z " fill="rgb(102,160,78)"/><path d=" M -650.409 13.662 C -642.311 13.662 -634.236 13.069 -626.149 12.738 L -626.149 12.738 L -626.149 4.21 C -628.426 4.672 -639.752 6.363 -646.97 8.825 L -646.97 8.825 L -633.195 8.825 C -632.306 8.825 -640.867 10.407 -640.866 10.411 C -640.716 11.039 -632.218 10.679 -632.346 11.231 C -632.599 12.319 -640.038 12.75 -640.819 12.812 C -643.796 13.049 -646.835 13.046 -649.819 12.955 C -657.282 12.728 -674.672 14.736 -680.558 10.339 C -680.558 10.339 -666.726 9.109 -666.726 9.109 C -686.005 6.609 -707.421 6.908 -726.777 8.056 C -749.26 9.389 -771.568 11.916 -794.104 10.723 C -819.269 9.391 -843.468 5.746 -868.735 5.93 L -868.735 5.93 L -868.735 5.93 C -871.917 5.952 -875.379 5.583 -878.519 6.003 C -878.519 6.003 -874.027 6.556 -874.027 6.556 C -873.921 6.73 -887.507 6.798 -887.663 6.826 C -887.663 6.826 -880.517 7.885 -880.517 7.885 C -885.531 11.767 -902.73 8.67 -909.829 8.517 C -912.951 8.45 -916.075 8.388 -919.195 8.235 C -922.384 8.078 -941.327 8.74 -943.33 5.564 C -943.33 5.564 -934.156 5.326 -934.156 5.326 C -936.926 4.379 -939.951 4.484 -942.84 4.015 C -965.136 0.394 -934.487 2.832 -929.237 2.906 C -929.237 2.906 -951.189 0.991 -951.189 0.991 C -954.327 0.979 -957.464 1.039 -960.601 1.048 L -960.601 1.048 L -960.601 5.004 C -924.373 7.639 -890.917 8.986 -854.372 7.996 C -852.044 7.933 -849.716 7.927 -847.387 7.913 C -844.114 7.892 -840.818 7.962 -837.552 8.195 C -837.552 8.195 -828.174 9.029 -828.174 9.029 C -825.545 9.228 -822.911 9.353 -820.282 9.545 C -817.663 9.736 -815.046 9.966 -812.429 10.178 C -776.275 13.102 -740.443 8.766 -704.22 10.055 C -688.386 10.618 -672.671 12.416 -656.879 13.474 C -654.18 13.655 -653.112 13.662 -650.409 13.662 L -650.409 13.662 Z " fill="rgb(87,141,75)"/><path d=" M -645.106 14.287 C -636.68 14.287 -634.572 14.123 -626.149 13.908 L -626.149 13.908 L -626.149 12.536 C -662.959 14.06 -699.318 8.373 -736.16 9.59 C -739.492 9.701 -742.822 9.83 -746.152 9.976 C -749.478 10.121 -752.802 10.305 -756.127 10.464 C -756.127 10.464 -778.234 11.805 -778.234 11.805 C -767.322 12.985 -755.233 11.437 -744.681 11.056 L -744.681 11.056 L -744.681 11.056 C -729.558 10.508 -714.419 10.226 -699.302 11.104 L -699.302 11.104 L -699.302 11.104 C -681.242 12.147 -663.211 14.287 -645.106 14.287 L -645.106 14.287 Z " fill="rgb(75,124,70)"/><path d=" M -900.518 10.235 C -890.492 10.235 -880.486 9.877 -870.471 9.446 C -858.445 8.928 -846.436 8.274 -834.398 8.702 C -834.398 8.702 -827.729 9.029 -827.729 9.029 C -827.729 9.029 -846.687 7.913 -846.687 7.913 C -867.618 8.045 -888.518 10.298 -909.462 9.75 C -916.461 9.567 -923.36 9.224 -930.308 8.421 C -939.654 7.342 -949.006 5.696 -958.394 5.004 L -958.394 5.004 L -958.394 7.043 C -939.045 7.107 -919.904 10.235 -900.518 10.235 L -900.518 10.235 Z " fill="rgb(75,124,70)"/><path d=" M -946.316 5.438 C -908.754 8.201 -871.898 5.348 -834.398 6.702 C -795.574 8.103 -757.437 8.563 -718.564 8.746 C -690.263 8.879 -662.226 12.899 -633.889 12.262 C -631.309 12.204 -628.729 12.115 -626.149 12.056 L -626.149 12.056 L -626.149 25.041 L -960.601 25.041 L -960.601 5.05 C -955.835 5.018 -951.072 5.085 -946.316 5.438 L -946.316 5.438 Z " fill="rgb(122,192,82)"/><path d=" M -686.029 14.989 C -682.348 14.989 -691.788 14.666 -690.966 14.059 C -687.969 11.846 -678.707 15.312 -674.554 14.256 C -674.554 14.256 -683.936 12.512 -683.936 12.512 C -689.795 11.994 -695.675 11.646 -701.547 11.306 L -701.547 11.306 L -701.547 11.306 C -716.664 10.428 -731.803 10.71 -746.926 11.258 L -746.926 11.258 L -746.926 11.258 C -754.684 11.539 -758.692 11.716 -767.391 11.932 C -767.391 11.932 -774.985 12.021 -774.985 12.021 C -772.299 12.313 -769.581 12.551 -766.883 12.658 C -766.227 12.684 -751.636 11.851 -757.095 12.599 C -757.095 12.599 -747.116 13.117 -747.116 13.117 C -747.116 13.117 -730.807 12.608 -730.807 12.608 C -714.334 12.303 -731.668 13.242 -723.596 13.215 C -720.267 13.204 -716.964 13.213 -713.642 13.486 C -713.642 13.486 -703.924 14.556 -703.924 14.556 C -693.676 15.431 -711.023 13.393 -698.452 14.367 C -692.544 14.825 -691.075 14.989 -686.029 14.989 L -686.029 14.989 Z " fill="rgb(145,200,95)"/><path d=" M -789.738 16.09 C -787.377 15.872 -777.09 14.823 -780.217 14.624 C -792.085 13.867 -766.761 14.739 -786.36 13.178 C -786.36 13.178 -793.96 12.466 -793.96 12.466 C -793.96 12.466 -786.283 12.623 -786.283 12.623 C -790.364 11.045 -800.629 11.115 -804.228 10.784 C -809.251 10.322 -814.278 9.904 -819.308 9.53 C -824.91 9.114 -829.076 8.91 -834.398 8.702 C -838.977 8.523 -838.35 8.536 -842.933 8.548 C -845.138 8.555 -847.343 8.538 -849.546 8.583 C -851.934 8.632 -854.319 8.75 -856.706 8.832 C -859.355 8.923 -862.004 9.014 -864.653 9.103 C -868.68 9.238 -882.556 9.575 -888.545 10.084 C -888.545 10.084 -894.236 10.905 -894.236 10.905 C -890.717 13.588 -881.975 7.781 -878.872 10.915 C -878.872 10.915 -885.006 11.545 -885.006 11.545 C -885.006 11.545 -869.28 12.389 -869.28 12.389 C -877.647 12.833 -882.938 11.306 -860.294 14.455 C -854.862 15.21 -853.529 14.759 -843.88 15.37 C -826.221 16.487 -866.685 14.474 -832.318 14.893 C -823.732 14.998 -814.939 15.683 -806.387 16.136 C -806.387 16.136 -813.744 15.391 -813.744 15.391 C -806.682 14.364 -798.194 15.175 -791.223 15.048 C -791.223 15.048 -798.224 15.517 -798.224 15.517 C -798.49 15.959 -790.525 16.083 -789.738 16.09 L -789.738 16.09 L -789.738 16.09 Z " fill="rgb(145,200,95)"/><path d=" M -958.304 7.043 C -958.344 7.043 -958.354 7.043 -958.394 7.043 L -958.394 7.043 L -958.394 7.043 C -958.364 7.043 -958.334 7.043 -958.304 7.043 L -958.304 7.043 Z " fill="rgb(61,106,64)"/><path d=" M -832.929 20.404 C -830.935 20.404 -828.94 20.401 -826.945 20.364 C -824.957 20.328 -822.969 20.244 -820.98 20.184 C -820.98 20.184 -812.452 19.819 -812.452 19.819 C -751.794 16.538 -691.218 17.51 -630.601 13.871 L -630.601 13.871 L -630.601 13.81 C -633.761 13.891 -636.92 14.017 -640.08 14.08 C -643.239 14.143 -646.399 14.171 -649.558 14.189 C -653.602 14.211 -655.271 14.159 -659.311 13.979 C -659.311 13.979 -676.834 13.373 -676.834 13.373 C -676.834 13.373 -661.705 14.791 -661.705 14.791 C -664.514 19.742 -666.588 9.088 -661.552 15.308 C -661.532 15.334 -661.531 15.382 -661.552 15.408 C -663.752 18.085 -677.443 16.016 -681.833 16.012 C -688.384 16.005 -694.94 15.978 -701.487 15.708 C -706.934 15.482 -712.377 15.166 -717.823 14.91 C -720.546 14.782 -723.27 14.656 -725.995 14.555 C -759.362 13.321 -793.738 18.901 -821.589 19.396 C -837.783 19.684 -862.638 14.578 -874.329 16.868 C -879.312 17.844 -891.056 14.696 -894.74 14.205 C -916.221 11.343 -939.531 13.302 -960.601 9.243 L -960.601 9.243 L -960.601 10.467 C -917.838 10.341 -875.936 20.325 -833.293 20.403 L -833.293 20.403 L -833.293 20.403 L -833.293 20.403 L -833.293 20.403 C -833.132 20.404 -833.091 20.404 -832.929 20.404 L -832.929 20.404 Z  M -960.601 7.624 C -953.988 5.787 -950.65 6.743 -960.601 6.743 L -960.601 6.743 L -960.601 7.624 Z " fill-rule="evenodd" fill="rgb(89,162,80)"/><path d=" M -916.34 10.377 C -914.536 10.539 -912.73 10.695 -910.928 10.887 C -869.315 15.319 -830.629 19.973 -788.707 16.571 C -734.58 12.178 -680.375 14.885 -626.149 12.045 L -626.149 12.045 L -626.149 25.041 L -960.601 25.041 L -960.601 8.777 C -945.832 8.687 -931.057 9.061 -916.34 10.377 L -916.34 10.377 Z " fill="rgb(173,205,69)"/><path d=" M -818.79 20.487 C -815.964 20.387 -787.567 18.892 -810.245 20.119 L -818.79 20.487 L -818.79 20.487 Z  M -652.098 16.063 C -652.098 16.063 -647.627 15.688 -647.627 15.688 L -652.098 16.063 L -652.098 16.063 Z  M -888.274 15.612 C -889.401 15.465 -889.403 15.465 -888.274 15.612 L -888.274 15.612 Z " fill-rule="evenodd" fill="rgb(83,154,79)"/><path d=" M -941.414 10.963 C -941.414 10.963 -958.394 10.767 -958.394 10.767 L -958.394 10.767 L -958.394 10.767 C -952.731 10.751 -947.076 10.809 -941.414 10.963 L -941.414 10.963 Z " fill="rgb(83,154,79)"/><path d=" M -915.278 24.471 L -865.394 24.471 C -870.108 23.643 -855.167 24.278 -855.695 23.345 C -856.955 21.12 -870.877 21.705 -874.307 20.944 C -874.307 20.944 -863.427 20.568 -863.427 20.568 C -863.542 20.26 -865.793 20.347 -865.997 20.078 C -865.997 20.078 -861.655 19.987 -861.655 19.987 C -861.655 19.987 -869.047 18.831 -869.047 18.831 C -869.811 18.708 -871.644 19.016 -871.312 18.316 C -871.254 18.193 -866.258 18.331 -866.1 18.181 C -866.063 18.146 -875.731 16.979 -875.82 16.968 C -875.82 16.968 -891.41 14.961 -891.41 14.961 C -889.845 15.303 -871.403 17.767 -878.691 17.49 C -878.691 17.49 -869.697 19.149 -869.697 19.149 C -869.66 19.155 -869.606 19.146 -869.587 19.179 C -869.587 19.179 -874.922 19.121 -874.922 19.121 C -874.922 19.121 -870.239 20.01 -870.239 20.01 C -870.239 20.01 -881.546 19.503 -881.546 19.503 C -886.261 19.152 -886.071 19.029 -882.629 19.782 C -875.596 21.321 -884.306 19.944 -884.233 20.064 C -884.233 20.064 -864.705 23.579 -864.705 23.579 C -867.993 26.169 -879.518 22.083 -883.345 22.098 C -883.397 22.098 -880.57 22.837 -880.738 22.996 C -880.738 22.996 -886.298 22.35 -886.298 22.35 C -888.015 22.055 -889.718 21.683 -891.434 21.386 C -898.384 20.181 -894.155 21.187 -892.462 21.765 C -892.329 21.81 -892.401 21.892 -892.503 21.906 C -898.986 22.838 -905.611 21.266 -911.047 21.196 C -913.675 21.162 -932.065 20.478 -932.951 18.491 C -932.951 18.491 -928.997 18.45 -928.997 18.45 C -935.926 17.909 -932.25 18.306 -939.099 17.505 C -939.134 17.501 -939.177 17.503 -939.199 17.477 C -939.218 17.453 -939.218 17.409 -939.198 17.386 C -939.198 17.386 -932.228 17.144 -932.228 17.144 C -934.219 16.66 -950.439 16.738 -950.965 15.432 C -950.965 15.432 -940.56 14.984 -940.56 14.984 C -940.56 14.984 -960.002 12.639 -960.002 12.639 C -960.002 12.639 -943.621 10.434 -943.621 10.434 C -949.1 9.735 -955.076 10.221 -960.601 10.237 L -960.601 10.237 L -960.601 13.921 C -960.553 13.925 -956.471 14.269 -956.407 14.403 C -956.275 14.685 -960.439 14.326 -960.235 14.857 C -960.235 14.857 -955.198 15.836 -955.198 15.836 C -955.198 15.836 -960.601 16.225 -960.601 16.225 L -960.601 16.225 L -960.601 16.371 C -952.215 18.646 -941.566 18.187 -933.841 22.118 C -933.841 22.118 -939.238 21.954 -939.238 21.954 C -939.444 22.182 -936.01 22.789 -936.106 22.815 C -936.106 22.815 -940.64 22.553 -940.64 22.553 C -940.886 22.545 -941.132 22.551 -941.377 22.563 C -941.624 22.576 -941.87 22.603 -942.116 22.629 C -942.148 22.632 -942.186 22.628 -942.209 22.65 C -942.23 22.67 -942.24 22.71 -942.227 22.737 C -941.705 23.883 -936.696 23.7 -935.351 23.821 C -928.667 24.426 -921.983 24.3 -915.278 24.471 L -915.278 24.471 Z  M -785.429 24.471 L -666.35 24.471 C -663.235 24.27 -660.121 24.15 -657.017 23.78 C -644.175 22.249 -666.949 22.026 -651.527 21.67 C -651.378 21.666 -651.228 21.661 -651.079 21.652 C -651.042 21.65 -650.999 21.656 -650.967 21.636 C -650.938 21.618 -650.904 21.583 -650.911 21.549 C -650.911 21.549 -653.571 20.817 -653.571 20.817 C -650.709 20.327 -647.056 21.005 -644.086 20.823 C -643.025 20.758 -632.282 19.822 -632.558 18.852 C -632.913 17.604 -640.776 18.578 -641.931 18.261 C -641.931 18.261 -639.287 17.775 -639.287 17.775 C -638.924 16.827 -650.595 18.834 -638.536 16.828 C -637.149 16.597 -635.762 16.362 -634.376 16.123 C -634.343 16.117 -634.303 16.12 -634.281 16.095 C -634.261 16.071 -634.253 16.027 -634.272 16.002 C -634.506 15.704 -639.403 15.755 -639.7 15.69 C -639.7 15.69 -637.281 15.16 -637.281 15.16 C -637.281 15.16 -642.655 14.694 -642.655 14.694 C -643.25 14.679 -645.031 14.774 -644.441 14.694 C -644.441 14.694 -634.783 13.918 -634.783 13.918 C -641.289 14.448 -647.81 14.88 -654.305 15.533 C -654.305 15.533 -642.132 15.731 -642.132 15.731 C -642.132 15.731 -649.006 17.093 -649.006 17.093 C -649.006 17.093 -646.561 17.334 -646.561 17.334 C -646.414 17.581 -649.153 17.474 -649.146 17.481 C -649.146 17.481 -646.085 18.488 -646.085 18.488 C -646.085 18.488 -655.944 19.059 -655.944 19.059 C -663.505 19.526 -655.653 19.787 -661.685 19.271 C -665.297 18.962 -668.856 18.936 -672.469 18.962 C -674.867 18.979 -669.954 19.237 -678.279 19.423 C -678.647 19.431 -679.724 19.33 -679.381 19.464 C -679.381 19.464 -674.548 20.719 -674.548 20.719 C -678.016 23.207 -686.079 18.646 -689.976 20.356 C -689.976 20.356 -681.624 22.365 -681.624 22.365 C -684.117 22.257 -681.436 22.612 -680.92 22.804 C -680.888 22.816 -680.833 22.849 -680.85 22.878 C -681.673 24.286 -688.962 23.486 -690.769 23.421 C -696.088 23.229 -698.187 23.017 -703.932 22.46 C -714.436 21.441 -701.448 23.805 -712.387 22.086 C -713.827 21.86 -722.98 19.452 -720.02 21.591 C -720.02 21.591 -720.179 21.702 -720.179 21.702 C -723.283 22.065 -726.959 19.633 -730.102 20.37 C -730.102 20.37 -723.556 22.484 -723.556 22.484 C -724.056 22.959 -727.782 21.787 -728.405 21.83 C -729.765 21.924 -709.388 24.01 -733.403 22.302 C -757.583 20.583 -737.158 21.865 -738.161 22.512 C -740.495 24.018 -745.784 21.346 -748.941 21.878 C -748.941 21.878 -758.779 22.351 -758.779 22.351 C -766.474 23.052 -773.911 23.102 -779.609 23.106 C -782.644 23.108 -789.295 22.439 -789.428 22.337 C -789.428 22.337 -789.402 21.062 -789.402 21.062 C -792.435 21.159 -805.359 25.196 -808.284 22.294 C -808.284 22.294 -803.068 20.916 -803.068 20.916 C -803.068 20.916 -815.672 20.966 -815.672 20.966 C -813.531 18.258 -807.612 21.172 -817.58 20.32 C -817.619 20.317 -817.675 20.327 -817.694 20.294 C -817.694 20.294 -803.971 19.037 -803.971 19.037 C -806.806 19.144 -809.632 19.44 -812.464 19.593 C -819.406 19.968 -818.426 19.458 -822.002 20.136 C -823.789 20.476 -816.146 20.51 -825.515 21.195 C -825.546 21.198 -825.583 21.195 -825.606 21.216 C -825.629 21.237 -825.647 21.276 -825.635 21.306 C -825.635 21.306 -816.126 22.778 -816.126 22.778 C -816.126 22.778 -806.483 22.88 -806.483 22.88 C -806.483 22.88 -810.446 23.644 -810.446 23.644 C -810.446 23.644 -792.724 24.356 -792.724 24.356 C -790.228 24.411 -787.873 24.345 -785.429 24.471 L -785.429 24.471 Z  M -634.776 13.918 C -634.733 13.915 -634.733 13.915 -634.776 13.918 L -634.776 13.918 Z " fill-rule="evenodd" fill="rgb(158,195,73)"/><path d=" M -863.187 25 L -783.222 25 C -785.666 24.875 -788.021 24.941 -790.517 24.885 C -790.517 24.885 -808.239 24.173 -808.239 24.173 C -808.239 24.173 -804.276 23.41 -804.276 23.41 C -804.276 23.41 -814.036 23.198 -814.036 23.198 C -812.814 20.36 -822.146 25.033 -823.428 21.835 C -823.699 21.161 -812.953 21.751 -818.974 21.23 C -818.974 21.23 -818.79 20.487 -818.79 20.487 C -822.888 20.486 -826.985 20.711 -831.086 20.704 L -831.086 20.704 L -831.086 20.704 L -831.086 20.704 C -832.474 20.701 -833.862 20.708 -835.25 20.67 C -838.009 20.594 -840.77 20.521 -843.526 20.362 C -843.526 20.362 -863.893 18.711 -863.893 18.711 C -864.051 18.861 -869.047 18.723 -869.105 18.846 C -869.105 18.846 -859.448 20.517 -859.448 20.517 C -859.448 20.517 -863.79 20.608 -863.79 20.608 C -862.709 22.03 -858.288 21.441 -865.611 21.487 C -865.984 21.489 -866.356 21.484 -866.729 21.479 C -867.102 21.474 -867.476 21.464 -867.849 21.457 C -868.224 21.449 -868.598 21.439 -868.972 21.434 C -868.972 21.434 -872.1 21.474 -872.1 21.474 C -868.67 22.235 -854.748 21.65 -853.488 23.875 C -852.96 24.808 -867.901 24.173 -863.187 25 L -863.187 25 Z " fill="rgb(133,177,76)"/><path d=" M -661.898 20.487 L -626.149 20.487 L -626.149 9.658 C -630.745 9.934 -635.453 10.098 -639.989 10.711 C -639.989 10.711 -632.829 11.177 -632.829 11.177 C -633.201 11.995 -639.426 11.422 -632.566 11.788 C -632.566 11.788 -629.82 12.018 -629.82 12.018 C -629.116 12.914 -642.834 13.257 -636.598 13.55 C -636.598 13.55 -637.479 14.277 -637.479 14.277 C -636.324 14.594 -628.461 13.62 -628.106 14.868 C -627.829 15.838 -638.573 16.774 -639.633 16.839 C -642.604 17.021 -646.256 16.344 -649.119 16.834 C -649.119 16.834 -646.458 17.565 -646.458 17.565 C -646.431 17.7 -652.573 17.45 -653.119 17.442 C -653.271 17.44 -653.422 17.442 -653.574 17.445 C -653.726 17.449 -654.179 17.436 -654.03 17.463 C -642.606 19.552 -651.102 19.743 -657.864 20.247 C -659.199 20.346 -660.555 20.4 -661.898 20.487 L -661.898 20.487 Z " fill="rgb(133,177,76)"/></svg>