<?xml version="1.0" encoding="UTF-8" standalone="no"?><!-- Generator: Gravit.io --><svg xmlns="http://www.w3.org/2000/svg" xmlns:xlink="http://www.w3.org/1999/xlink" style="isolation:isolate" viewBox="0 0 1337.81 28.04" width="1337.81pt" height="28.04pt"><path d=" M 1328.786 1.999 C 1321.973 1.955 1315.252 2.038 1308.795 3.143 C 1302.42 4.235 1296.344 5.755 1289.583 6.303 C 1282.419 6.885 1275.169 6.759 1267.935 6.921 C 1260.285 7.094 1247.663 0.513 1240.01 0.459 C 1232.451 0.403 1229.825 6.822 1222.269 6.994 C 1214.405 7.176 1206.53 6.555 1198.795 7.21 C 1184.015 8.46 1173.684 5.332 1158.6 5.143 C 1148.781 5.021 1135.034 9.943 1125.247 9.582 C 1119.417 9.366 1113.146 11.866 1107.308 11.701 C 1099.699 11.485 1092.573 8.618 1084.962 8.874 C 1078.619 7.054 1071.836 7.707 1063.617 8.446 C 1056.724 9.937 1048.018 12.226 1040.168 11.928 C 1034.263 11.706 1028.344 9.298 1022.467 8.939 C 1016.099 8.551 1009.217 6.134 1003.355 4.707 L 1003.355 28.04 L 1337.807 28.04 L 1337.807 2.047 C 1334.801 2.059 1331.784 2.02 1328.786 1.999 Z " fill="rgb(102,160,78)"/><path d=" M 1027.614 16.661 C 1023.403 16.661 1019.187 16.464 1014.986 16.305 C 1011.107 16.158 1007.238 15.896 1003.355 15.738 L 1003.355 7.21 C 1004.515 7.445 1005.704 7.655 1006.913 7.845 C 1006.359 7.884 1005.804 7.929 1005.253 7.99 C 1005.108 8.005 1005.092 8.098 1005.213 8.128 C 1011.147 9.743 1018.601 9.923 1024.175 11.824 L 1010.4 11.824 C 1010.235 11.824 1010.154 11.935 1010.313 11.968 C 1012.829 12.524 1015.59 12.825 1018.072 13.41 C 1015.318 13.717 1012.54 13.981 1009.717 14.128 C 1009.548 14.136 1009.491 14.224 1009.634 14.271 C 1013.648 15.6 1018.603 15.999 1023.544 15.999 C 1025.865 15.999 1028.184 15.911 1030.401 15.79 C 1038.159 15.368 1045.684 14.396 1053.327 13.695 C 1054.76 13.565 1056.199 13.448 1057.644 13.36 C 1057.822 13.349 1057.888 13.233 1057.69 13.211 C 1053.176 12.672 1048.556 12.373 1043.932 12.108 C 1048.577 12.019 1053.182 11.701 1057.808 11.498 C 1060.089 11.398 1062.379 11.317 1064.672 11.251 C 1065.076 11.265 1065.481 11.276 1065.887 11.285 C 1066.796 11.305 1067.709 11.314 1068.624 11.314 C 1073.69 11.314 1078.819 11.039 1083.787 10.874 C 1086.68 10.779 1089.567 10.741 1092.452 10.741 C 1093.37 10.741 1094.288 10.744 1095.206 10.752 C 1096.058 10.759 1096.911 10.769 1097.764 10.781 C 1114.372 11.406 1130.689 13.307 1147.322 13.947 C 1150.481 14.07 1153.642 14.134 1156.805 14.134 C 1158.965 14.134 1161.127 14.104 1163.289 14.043 C 1168.646 13.886 1173.973 13.56 1179.28 13.196 C 1184.4 12.849 1189.569 12.547 1194.595 11.976 C 1199.507 11.416 1204.292 10.657 1209.116 9.96 C 1210.563 9.752 1212.028 9.545 1213.496 9.354 C 1216.625 9.192 1219.772 9.067 1222.947 8.994 C 1226.884 8.906 1230.826 8.877 1234.768 8.877 C 1238.493 8.877 1242.219 8.903 1245.94 8.93 L 1245.94 8.93 C 1246.376 8.933 1246.811 8.936 1247.246 8.939 C 1250.071 8.961 1252.897 8.987 1255.724 9.002 C 1254.256 9.16 1252.792 9.333 1251.343 9.523 C 1251.16 9.549 1251.193 9.675 1251.386 9.675 C 1255.882 9.678 1260.371 9.802 1264.868 9.825 C 1262.514 10.143 1260.181 10.479 1257.801 10.753 C 1257.602 10.775 1257.662 10.896 1257.844 10.905 C 1265.94 11.258 1274.15 11.537 1282.326 11.537 C 1294.887 11.537 1307.37 10.878 1319.243 8.812 C 1319.64 8.741 1320.038 8.67 1320.431 8.598 C 1320.6 8.566 1320.594 8.446 1320.386 8.446 C 1317.375 8.446 1314.363 8.438 1311.362 8.325 C 1317.15 7.453 1322.941 6.576 1328.588 5.527 C 1328.759 5.495 1328.748 5.381 1328.545 5.377 C 1327.568 5.361 1326.591 5.354 1325.614 5.354 C 1321.161 5.354 1316.713 5.504 1312.281 5.685 C 1310.332 5.763 1308.385 5.835 1306.442 5.905 C 1306.691 5.858 1306.939 5.811 1307.187 5.764 C 1308.334 5.549 1309.482 5.34 1310.64 5.143 C 1316.392 4.172 1322.348 3.99 1328.395 3.99 C 1329.229 3.99 1330.065 3.994 1330.901 3.999 C 1333.197 4.015 1335.502 4.041 1337.807 4.048 L 1337.807 8.004 C 1333.312 8.331 1328.946 8.94 1324.58 9.515 C 1317.863 10.403 1311.06 11.295 1304.21 11.928 C 1297.165 12.583 1290.012 12.772 1282.834 12.775 C 1282.817 12.775 1282.798 12.775 1282.781 12.775 C 1267.96 12.775 1253.255 11.97 1238.534 11.29 C 1233.907 11.078 1229.248 10.912 1224.593 10.912 C 1222.37 10.912 1220.15 10.95 1217.932 11.039 C 1213.685 11.209 1209.525 11.601 1205.379 12.028 C 1200.106 12.336 1194.868 12.753 1189.635 13.177 C 1185.847 13.484 1182.062 13.795 1178.263 14.072 C 1178.256 14.073 1178.249 14.074 1178.241 14.075 C 1175.235 14.294 1172.222 14.493 1169.194 14.651 C 1165.295 14.856 1161.393 14.965 1157.492 15.006 C 1156.854 14.953 1156.217 14.901 1155.578 14.851 C 1148.79 14.308 1141.945 13.973 1135.086 13.666 C 1128.346 13.369 1121.608 12.985 1114.85 12.792 C 1110.721 12.673 1106.587 12.617 1102.454 12.617 C 1093.097 12.617 1083.742 12.904 1074.447 13.399 C 1067.622 13.764 1060.826 14.229 1054.053 14.766 C 1050.723 15.031 1047.395 15.312 1044.072 15.607 C 1040.749 15.903 1037.437 16.263 1034.084 16.474 C 1031.93 16.609 1029.773 16.661 1027.614 16.661 Z " fill="rgb(87,141,75)"/><path d=" M 1022.311 17.286 C 1015.992 17.287 1009.676 17.069 1003.355 16.908 L 1003.355 15.536 C 1007.186 15.694 1011.004 15.956 1014.831 16.103 C 1018.977 16.261 1023.136 16.459 1027.291 16.459 C 1029.421 16.459 1031.55 16.407 1033.675 16.272 C 1036.984 16.061 1040.251 15.701 1043.53 15.405 C 1046.808 15.109 1050.093 14.829 1053.378 14.564 C 1060.06 14.027 1066.766 13.562 1073.501 13.197 C 1082.671 12.702 1091.902 12.415 1101.134 12.415 C 1105.213 12.415 1109.292 12.471 1113.366 12.59 C 1120.034 12.783 1126.682 13.167 1133.333 13.464 C 1140.1 13.771 1146.854 14.106 1153.552 14.649 C 1154.182 14.699 1154.811 14.751 1155.44 14.804 C 1154.228 14.817 1153.016 14.823 1151.805 14.823 C 1151.066 14.823 1150.328 14.821 1149.589 14.817 C 1149.582 14.816 1149.576 14.816 1149.569 14.816 C 1149.54 14.816 1149.511 14.816 1149.483 14.816 C 1149.466 14.816 1149.45 14.816 1149.433 14.816 C 1149.414 14.815 1149.397 14.815 1149.378 14.815 C 1149.354 14.815 1149.33 14.815 1149.307 14.815 C 1149.296 14.815 1149.286 14.815 1149.275 14.815 C 1149.244 14.814 1149.212 14.814 1149.181 14.814 C 1149.179 14.814 1149.178 14.814 1149.176 14.814 C 1140.076 14.752 1130.979 14.383 1121.887 14.056 L 1121.887 14.056 C 1113.689 13.758 1105.533 13.539 1097.378 13.539 C 1090.429 13.539 1083.482 13.698 1076.507 14.104 L 1076.507 14.104 C 1074.972 14.192 1073.437 14.287 1071.904 14.387 C 1058.612 15.248 1045.434 16.45 1032.065 17.076 C 1028.813 17.229 1025.561 17.286 1022.311 17.286 Z " fill="rgb(75,124,70)"/><path d=" M 1277.724 13.234 C 1270.737 13.234 1263.746 13.062 1256.802 12.817 C 1244.66 12.391 1232.366 11.548 1220.139 11.548 C 1217.289 11.548 1214.444 11.594 1211.604 11.701 C 1209.372 11.785 1207.151 11.897 1204.935 12.028 C 1209.026 11.601 1213.13 11.209 1217.321 11.039 C 1219.509 10.95 1221.7 10.912 1223.893 10.912 C 1228.486 10.912 1233.083 11.078 1237.648 11.29 C 1252.174 11.97 1266.683 12.775 1281.306 12.775 C 1281.323 12.775 1281.342 12.775 1281.359 12.775 C 1288.441 12.772 1295.499 12.583 1302.45 11.928 C 1309.209 11.295 1315.921 10.403 1322.549 9.515 C 1326.857 8.94 1331.165 8.331 1335.6 8.004 L 1335.6 10.043 C 1335.57 10.043 1335.54 10.043 1335.51 10.043 C 1331.513 10.046 1327.533 10.14 1323.522 10.438 C 1316.22 10.975 1309.053 11.827 1301.763 12.39 C 1293.82 13.005 1285.775 13.234 1277.724 13.234 Z " fill="rgb(75,124,70)"/><path d=" M 1323.522 8.438 C 1316.22 8.975 1309.053 9.827 1301.763 10.39 C 1286.927 11.538 1271.747 11.343 1256.802 10.817 C 1241.83 10.291 1226.629 9.133 1211.604 9.701 C 1197.333 10.24 1183.434 11.897 1169.232 12.651 C 1154.202 13.45 1139.155 12.801 1124.132 12.258 C 1108.948 11.707 1093.912 11.425 1078.752 12.306 C 1063.892 13.165 1049.221 14.58 1034.31 15.278 C 1023.988 15.763 1013.676 15.29 1003.355 15.056 L 1003.355 28.04 L 1337.807 28.04 L 1337.807 8.05 C 1333.036 8.018 1328.3 8.083 1323.522 8.438 Z " fill="rgb(122,192,82)"/><path d=" M 1063.235 17.989 C 1062.932 17.989 1062.628 17.987 1062.324 17.984 C 1064.29 17.756 1066.277 17.568 1068.138 17.188 C 1068.281 17.158 1068.221 17.045 1068.07 17.045 C 1068.065 17.045 1068.059 17.045 1068.053 17.045 C 1064.443 17.232 1060.821 17.357 1057.197 17.357 C 1055.385 17.357 1053.572 17.326 1051.76 17.256 C 1054.084 17.062 1056.342 16.722 1058.413 16.189 C 1058.548 16.154 1058.498 16.046 1058.342 16.046 C 1058.338 16.046 1058.334 16.046 1058.329 16.046 C 1057.688 16.069 1057.04 16.077 1056.385 16.083 C 1057.979 15.912 1059.564 15.717 1061.142 15.512 C 1065.472 15.19 1069.805 14.87 1074.15 14.589 C 1075.682 14.489 1077.216 14.395 1078.752 14.306 L 1078.752 14.306 C 1085.727 13.9 1092.674 13.741 1099.623 13.741 C 1107.778 13.741 1115.934 13.96 1124.132 14.258 L 1124.132 14.258 C 1133.223 14.586 1142.321 14.954 1151.421 15.016 C 1151.423 15.016 1151.424 15.016 1151.426 15.016 C 1151.457 15.016 1151.489 15.016 1151.52 15.017 C 1151.531 15.017 1151.541 15.017 1151.552 15.017 C 1151.575 15.017 1151.6 15.017 1151.623 15.017 C 1151.642 15.017 1151.66 15.018 1151.678 15.018 C 1151.695 15.018 1151.711 15.018 1151.728 15.018 C 1151.757 15.018 1151.785 15.018 1151.814 15.018 C 1151.82 15.019 1151.828 15.019 1151.834 15.019 C 1151.953 15.019 1152.072 15.02 1152.191 15.021 C 1150.702 15.175 1149.203 15.312 1147.694 15.425 C 1145.308 15.602 1142.869 15.714 1140.437 15.714 C 1138.405 15.714 1136.377 15.635 1134.389 15.45 C 1133.885 15.375 1133.367 15.318 1132.826 15.281 C 1132.815 15.281 1132.806 15.28 1132.796 15.28 C 1132.608 15.28 1132.532 15.403 1132.736 15.431 C 1133.255 15.495 1133.775 15.551 1134.301 15.599 C 1134.874 15.687 1135.425 15.808 1135.934 15.961 C 1131.527 15.896 1127.109 15.88 1122.718 15.664 C 1122.711 15.664 1122.703 15.663 1122.696 15.663 C 1122.519 15.663 1122.513 15.788 1122.677 15.813 C 1123.234 15.903 1123.783 16.008 1124.322 16.116 C 1117.091 15.786 1109.833 15.582 1102.56 15.582 C 1101.846 15.582 1101.131 15.584 1100.417 15.588 C 1100.232 15.588 1100.184 15.719 1100.374 15.737 C 1101.728 15.866 1103.059 16.034 1104.388 16.213 C 1103.83 16.217 1103.271 16.219 1102.712 16.219 C 1102.076 16.219 1101.439 16.217 1100.801 16.215 C 1100.163 16.213 1099.525 16.211 1098.886 16.211 C 1096.189 16.211 1093.496 16.249 1090.847 16.485 C 1086.516 16.871 1082.27 17.647 1077.813 17.66 C 1078.479 17.458 1079.185 17.295 1079.876 17.112 C 1080.033 17.07 1079.945 16.969 1079.789 16.969 C 1079.776 16.969 1079.762 16.97 1079.748 16.972 C 1074.302 17.508 1068.808 17.989 1063.235 17.989 Z " fill="rgb(145,200,95)"/><path d=" M 1166.944 19.09 C 1163.199 18.744 1159.506 18.291 1155.934 17.655 C 1157.918 17.628 1159.903 17.509 1161.705 17.112 C 1161.862 17.079 1161.782 16.969 1161.623 16.969 C 1159.943 16.966 1158.251 16.901 1156.682 16.618 C 1161.251 16.265 1165.88 16.091 1170.387 15.585 C 1170.575 15.563 1170.532 15.434 1170.341 15.434 C 1168.632 15.441 1166.929 15.553 1165.225 15.553 C 1165.034 15.553 1164.843 15.552 1164.652 15.549 C 1169.176 15.103 1173.66 14.575 1178.158 14.075 C 1181.912 13.797 1185.656 13.485 1189.4 13.177 C 1196.764 12.573 1204.133 11.984 1211.604 11.701 C 1214.444 11.594 1217.289 11.548 1220.139 11.548 C 1232.366 11.548 1244.66 12.391 1256.802 12.817 C 1259.776 12.924 1262.761 13.014 1265.751 13.084 C 1267.65 13.335 1269.569 13.557 1271.474 13.796 C 1269.554 13.909 1267.625 13.941 1265.692 13.941 C 1264.424 13.941 1263.154 13.927 1261.885 13.913 C 1260.616 13.899 1259.348 13.886 1258.081 13.886 C 1257.454 13.886 1256.827 13.889 1256.201 13.897 C 1256.012 13.899 1255.97 14.024 1256.155 14.049 C 1258.136 14.312 1260.227 14.302 1262.212 14.545 C 1256.983 14.74 1251.724 14.801 1246.597 15.359 C 1246.41 15.38 1246.453 15.51 1246.643 15.51 C 1248.5 15.507 1250.363 15.467 1252.225 15.444 C 1245.543 16.111 1239.153 17.26 1232.613 18.161 C 1233.38 17.993 1234.125 17.802 1234.823 17.571 C 1234.934 17.532 1234.922 17.429 1234.758 17.429 C 1234.751 17.429 1234.743 17.429 1234.736 17.43 C 1228.638 17.729 1222.636 18.348 1216.529 18.614 C 1217.714 18.4 1218.918 18.213 1220.064 17.957 C 1220.234 17.92 1220.125 17.821 1219.982 17.813 C 1218.712 17.737 1217.437 17.706 1216.159 17.706 C 1211.747 17.706 1207.3 18.079 1202.954 18.302 C 1197.744 18.565 1192.499 18.671 1187.287 18.926 C 1188.484 18.774 1189.676 18.614 1190.846 18.423 C 1191.014 18.396 1191.001 18.274 1190.807 18.274 C 1190.805 18.274 1190.803 18.274 1190.8 18.274 C 1189.227 18.293 1187.653 18.303 1186.08 18.303 C 1181.333 18.303 1176.586 18.217 1171.852 18.044 C 1171.846 18.044 1171.839 18.044 1171.833 18.044 C 1171.631 18.044 1171.649 18.185 1171.852 18.198 C 1173.057 18.271 1174.249 18.387 1175.43 18.517 C 1172.701 18.907 1169.812 19.063 1166.944 19.09 Z " fill="rgb(145,200,95)"/><path d=" M 1335.51 10.043 C 1335.54 10.043 1335.57 10.043 1335.6 10.043 L 1335.6 10.043 C 1335.57 10.043 1335.54 10.043 1335.51 10.043 Z " fill="rgb(61,106,64)"/><path d=" M 1210.135 23.403 C 1206.14 23.403 1202.162 23.324 1198.186 23.183 C 1198.189 23.184 1198.191 23.184 1198.194 23.185 C 1192.496 22.982 1186.82 22.654 1181.161 22.263 C 1181.167 22.264 1181.172 22.265 1181.177 22.266 C 1176.814 21.964 1172.463 21.622 1168.12 21.27 C 1153.659 20.098 1139.143 18.788 1124.432 18.511 C 1122.15 18.468 1119.864 18.449 1117.58 18.449 C 1104.381 18.449 1091.166 19.091 1078.017 19.47 C 1071.496 19.659 1064.99 19.798 1058.5 19.798 C 1050.129 19.798 1041.781 19.567 1033.442 18.917 C 1032.798 18.866 1032.154 18.815 1031.511 18.762 C 1031.513 18.762 1031.514 18.762 1031.516 18.762 C 1030.024 18.641 1028.531 18.515 1027.039 18.387 C 1021.947 17.951 1016.856 17.493 1011.745 17.13 C 1011.729 17.129 1011.713 17.128 1011.696 17.126 C 1011.69 17.126 1011.682 17.125 1011.676 17.125 C 1010.388 17.034 1009.098 16.948 1007.807 16.871 L 1007.807 16.81 C 1014.128 16.971 1020.444 17.188 1026.763 17.188 C 1030.014 17.188 1033.266 17.131 1036.517 16.978 C 1040.49 16.793 1044.449 16.557 1048.397 16.292 C 1048.234 16.318 1048.283 16.437 1048.461 16.437 C 1050.32 16.435 1052.181 16.393 1054.04 16.373 C 1049.084 16.885 1044.139 17.448 1039.074 17.668 C 1038.895 17.672 1038.827 17.799 1039.028 17.817 C 1039.928 17.894 1040.831 17.911 1041.736 17.911 C 1042.157 17.911 1042.58 17.907 1043.002 17.904 C 1041.65 18.082 1040.25 18.171 1038.858 18.284 C 1038.698 18.298 1038.698 18.418 1038.858 18.429 C 1044.007 18.877 1049.244 18.99 1054.479 19.005 C 1055.997 19.008 1057.517 19.011 1059.039 19.011 C 1062.86 19.011 1066.686 18.993 1070.496 18.924 C 1081.439 18.728 1092.296 17.971 1103.201 17.554 C 1109.509 17.314 1115.842 17.2 1122.175 17.2 C 1126.564 17.2 1130.952 17.254 1135.331 17.36 C 1145.994 17.614 1156.337 18.643 1166.736 19.689 C 1170.856 20.106 1174.982 20.512 1179.135 20.846 C 1181.123 21.006 1183.112 21.147 1185.109 21.267 C 1186.04 21.324 1186.971 21.376 1187.904 21.42 C 1187.349 21.449 1186.796 21.476 1186.246 21.505 C 1186.092 21.514 1186 21.609 1186.159 21.648 C 1187.866 22.074 1189.859 22.165 1191.764 22.229 C 1194.104 22.305 1196.451 22.354 1198.795 22.396 C 1201.498 22.448 1204.196 22.48 1206.895 22.48 C 1209.551 22.48 1212.207 22.449 1214.865 22.375 C 1223.622 22.135 1239.105 20.685 1239.924 20.685 C 1239.964 20.685 1239.969 20.688 1239.935 20.696 C 1239.785 20.73 1239.852 20.84 1240.01 20.84 C 1240.012 20.84 1240.015 20.84 1240.018 20.839 C 1244.366 20.778 1248.395 19.997 1252.448 19.316 C 1252.09 19.448 1251.743 19.589 1251.412 19.734 C 1251.301 19.785 1251.397 19.868 1251.535 19.868 C 1251.549 19.868 1251.564 19.867 1251.579 19.865 C 1252.899 19.715 1254.22 19.557 1255.538 19.397 C 1257.439 19.276 1259.296 18.998 1261.129 18.683 C 1268.357 17.727 1275.535 16.682 1282.805 15.795 C 1290.764 14.821 1298.806 13.968 1306.928 13.333 C 1310.642 13.148 1314.338 12.798 1318.077 12.736 C 1322.23 12.668 1326.397 12.607 1330.552 12.607 C 1330.651 12.607 1330.75 12.607 1330.848 12.607 C 1332.288 12.607 1333.735 12.589 1335.167 12.511 C 1336.036 12.464 1336.979 12.402 1337.807 12.242 L 1337.807 13.466 C 1337.196 13.465 1336.584 13.464 1335.973 13.464 C 1330.924 13.464 1325.865 13.524 1320.814 13.662 C 1320.818 13.662 1320.822 13.662 1320.827 13.663 C 1312.405 13.893 1304.015 14.338 1295.753 15.077 C 1286.588 15.896 1277.592 17.025 1268.616 18.191 C 1268.617 18.19 1268.618 18.19 1268.618 18.19 C 1268.308 18.23 1267.997 18.271 1267.687 18.311 C 1262.804 18.946 1257.925 19.59 1253.026 20.197 C 1249.818 20.594 1246.594 20.977 1243.355 21.332 C 1243.357 21.331 1243.359 21.33 1243.361 21.329 C 1232.575 22.514 1221.617 23.382 1210.499 23.403 L 1210.499 23.403 L 1210.499 23.403 L 1210.499 23.403 C 1210.378 23.403 1210.256 23.403 1210.135 23.403 Z  M 1337.807 10.624 C 1337.784 10.617 1337.761 10.611 1337.738 10.605 C 1336.307 10.233 1334.547 10.106 1332.943 10.007 C 1332.03 9.951 1331.117 9.916 1330.2 9.886 C 1332.706 9.786 1335.209 9.745 1337.717 9.742 C 1337.747 9.742 1337.777 9.742 1337.807 9.742 L 1337.807 10.624 Z " fill="rgb(89,162,80)"/><path d=" M 1293.546 13.377 C 1279.078 14.671 1265.033 16.735 1250.819 18.497 C 1236.932 20.216 1222.746 21.678 1208.292 21.703 C 1194.03 21.729 1179.922 20.707 1165.913 19.57 C 1151.452 18.398 1136.936 17.088 1122.225 16.812 C 1106.753 16.519 1091.234 17.326 1075.81 17.771 C 1060.877 18.203 1046.039 18.372 1031.235 17.217 C 1021.949 16.49 1012.7 15.534 1003.355 15.045 L 1003.355 28.04 L 1337.807 28.04 L 1337.807 11.776 C 1323.016 11.687 1308.079 12.077 1293.546 13.377 Z " fill="rgb(173,205,69)"/><path d=" M 1195.996 23.487 C 1190.3 23.285 1184.626 22.959 1178.97 22.566 C 1178.965 22.565 1178.96 22.564 1178.954 22.563 C 1184.613 22.955 1190.289 23.283 1195.987 23.485 C 1195.99 23.485 1195.993 23.486 1195.996 23.487 Z  M 1029.304 19.063 C 1027.813 18.941 1026.322 18.815 1024.832 18.688 C 1026.324 18.815 1027.816 18.941 1029.309 19.063 C 1029.307 19.063 1029.305 19.063 1029.304 19.063 Z  M 1265.48 18.612 C 1265.79 18.571 1266.101 18.531 1266.411 18.49 C 1266.411 18.49 1266.41 18.491 1266.409 18.491 C 1266.099 18.531 1265.79 18.571 1265.48 18.612 Z " fill="rgb(83,154,79)"/><path d=" M 1318.62 13.963 C 1318.615 13.963 1318.611 13.962 1318.607 13.962 C 1323.658 13.824 1328.717 13.764 1333.766 13.764 C 1334.377 13.764 1334.989 13.765 1335.6 13.767 L 1335.6 13.767 C 1335.005 13.765 1334.411 13.764 1333.816 13.764 C 1328.754 13.764 1323.681 13.825 1318.62 13.963 Z " fill="rgb(83,154,79)"/><path d=" M 1292.484 27.47 L 1242.6 27.47 C 1243.049 27.391 1243.516 27.336 1243.984 27.28 C 1242.074 27.226 1240.15 27.266 1238.243 27.19 C 1236.466 27.122 1234.298 27.03 1232.968 26.421 C 1232.885 26.385 1232.916 26.304 1233.041 26.292 C 1239.361 25.797 1245.504 24.96 1251.513 23.944 C 1250.846 23.909 1250.176 23.897 1249.506 23.897 C 1248.759 23.897 1248.01 23.912 1247.262 23.927 C 1246.515 23.942 1245.768 23.957 1245.024 23.957 C 1243.585 23.957 1242.157 23.901 1240.755 23.68 C 1240.632 23.659 1240.572 23.567 1240.714 23.539 C 1241.534 23.376 1242.393 23.251 1243.203 23.078 C 1242.483 23.091 1241.763 23.117 1241.045 23.117 C 1240.349 23.117 1239.655 23.093 1238.967 23.012 C 1238.789 22.991 1238.824 22.892 1238.967 22.864 C 1242.077 22.27 1245.597 22.107 1248.518 21.316 C 1246.84 21.285 1245.158 21.308 1243.483 21.224 C 1243.325 21.215 1243.286 21.146 1243.355 21.103 C 1246.594 20.748 1249.818 20.364 1253.026 19.967 C 1257.924 19.361 1262.803 18.718 1267.687 18.082 C 1267.997 18.041 1268.306 18.001 1268.616 17.961 C 1263.913 19.006 1258.846 19.685 1253.831 20.358 C 1253.648 20.383 1253.691 20.504 1253.878 20.506 C 1254.085 20.511 1254.291 20.514 1254.498 20.514 C 1255.433 20.514 1256.361 20.465 1257.286 20.408 C 1253.829 20.994 1250.466 21.7 1246.903 22.149 C 1246.718 22.172 1246.761 22.295 1246.949 22.298 C 1247.134 22.302 1247.319 22.304 1247.504 22.304 C 1249.053 22.304 1250.586 22.186 1252.128 22.121 C 1250.66 22.47 1249.04 22.662 1247.532 22.977 C 1247.375 23.007 1247.464 23.118 1247.619 23.118 C 1247.75 23.119 1247.882 23.119 1248.014 23.119 C 1252.851 23.119 1257.548 22.538 1262.322 22.25 C 1260.677 22.619 1258.993 22.945 1257.371 23.333 C 1257.232 23.367 1257.285 23.477 1257.441 23.477 C 1257.446 23.477 1257.451 23.477 1257.456 23.477 C 1258.819 23.414 1260.1 23.178 1261.439 23.064 C 1255.59 24.836 1248.804 25.799 1241.984 26.448 C 1241.788 26.467 1241.853 26.59 1242.028 26.6 C 1242.513 26.617 1242.996 26.625 1243.476 26.625 C 1249.317 26.625 1254.798 25.45 1260.551 25.097 C 1259.706 25.37 1258.77 25.581 1258.008 25.904 C 1257.884 25.957 1258.003 26.034 1258.145 26.034 C 1258.154 26.034 1258.162 26.033 1258.17 26.033 C 1263.085 25.67 1267.398 24.464 1272.147 23.851 C 1271.405 24.2 1270.515 24.47 1269.668 24.764 C 1269.551 24.807 1269.564 24.88 1269.709 24.906 C 1270.351 25.016 1271.03 25.054 1271.714 25.054 C 1272.443 25.054 1273.18 25.011 1273.886 24.964 C 1275.683 24.846 1277.481 24.68 1279.27 24.531 C 1281.539 24.346 1283.787 24.11 1286.021 23.842 C 1285.898 23.879 1285.779 23.914 1285.656 23.946 C 1285.538 23.981 1285.544 24.074 1285.696 24.087 C 1286.552 24.163 1287.404 24.196 1288.253 24.196 C 1291.651 24.196 1294.991 23.671 1298.25 23.254 C 1302.231 22.746 1306.386 22.403 1310.082 21.519 C 1310.204 21.494 1310.187 21.39 1310.044 21.379 C 1309.645 21.351 1309.248 21.34 1308.851 21.34 C 1307.967 21.34 1307.086 21.396 1306.203 21.45 C 1309.562 21.114 1313.043 21.033 1316.305 20.504 C 1316.465 20.478 1316.463 20.383 1316.305 20.358 C 1315.007 20.143 1313.609 20.069 1312.195 20.069 C 1311.274 20.069 1310.345 20.101 1309.434 20.144 C 1312.589 19.733 1315.793 19.372 1319.063 19.244 C 1322.04 19.128 1324.756 18.638 1328.083 18.451 C 1328.238 18.442 1328.167 18.332 1328.041 18.309 C 1326.631 18.066 1325.181 18.011 1323.717 18.011 C 1323.111 18.011 1322.502 18.02 1321.893 18.03 C 1321.284 18.039 1320.674 18.048 1320.066 18.048 C 1319.296 18.048 1318.528 18.033 1317.766 17.984 C 1323.677 16.488 1330.691 16.518 1337.096 15.744 C 1337.245 15.727 1337.251 15.64 1337.136 15.606 C 1334.528 14.777 1331.32 14.428 1328.261 14.127 C 1325.793 13.883 1323.316 13.633 1320.827 13.433 C 1325.888 13.295 1330.961 13.234 1336.023 13.234 C 1336.618 13.234 1337.212 13.235 1337.807 13.237 L 1337.807 16.921 C 1336.384 17.036 1334.979 17.197 1333.613 17.403 C 1334.839 17.541 1336.109 17.576 1337.32 17.748 C 1337.448 17.763 1337.499 17.857 1337.361 17.887 C 1335.729 18.226 1333.962 18.428 1332.404 18.836 C 1334.133 19.131 1336.142 18.798 1337.807 19.224 L 1337.807 19.371 C 1337.276 19.515 1335.955 19.799 1335.208 19.885 C 1333.996 20.019 1332.822 20.222 1331.665 20.44 C 1329.11 20.915 1326.608 21.463 1324.182 22.065 C 1319.865 23.134 1315.612 24.275 1311.047 25.118 C 1312.624 25.035 1314.19 24.904 1315.776 24.904 C 1315.936 24.904 1316.097 24.906 1316.258 24.909 C 1316.392 24.911 1316.495 24.996 1316.377 25.041 C 1315.462 25.386 1314.324 25.547 1313.312 25.815 C 1314.827 25.755 1316.334 25.552 1317.846 25.552 C 1318.337 25.552 1318.829 25.574 1319.322 25.628 C 1319.468 25.643 1319.479 25.736 1319.36 25.769 C 1317.386 26.345 1314.814 26.576 1312.557 26.821 C 1309.792 27.117 1306.968 27.23 1304.136 27.303 C 1300.275 27.403 1296.364 27.371 1292.484 27.47 Z  M 1162.635 27.47 L 1043.556 27.47 C 1043.374 27.458 1043.193 27.447 1043.012 27.434 C 1038.456 27.127 1033.313 27.03 1029.428 25.769 C 1029.329 25.736 1029.31 25.665 1029.428 25.637 C 1031.403 25.122 1033.518 24.748 1035.687 24.447 C 1035.383 24.432 1035.08 24.425 1034.777 24.425 C 1033.842 24.425 1032.913 24.487 1031.982 24.549 C 1031.051 24.611 1030.119 24.673 1029.18 24.673 C 1028.882 24.673 1028.584 24.666 1028.285 24.652 C 1028.119 24.644 1028.053 24.555 1028.199 24.508 C 1029.031 24.256 1029.879 24.014 1030.777 23.817 C 1029 23.877 1027.217 23.933 1025.434 23.933 C 1025.117 23.933 1024.801 23.931 1024.484 23.927 C 1022.318 23.898 1020.264 23.747 1018.152 23.539 C 1015.357 23.265 1011.718 23.012 1009.83 21.918 C 1009.769 21.882 1009.758 21.82 1009.864 21.797 C 1012.731 21.198 1016.057 21.41 1019.137 21.26 C 1018.282 21.106 1017.415 20.97 1016.572 20.804 C 1016.436 20.777 1016.482 20.678 1016.615 20.665 C 1017.704 20.548 1018.807 20.518 1019.92 20.509 C 1017.158 20.026 1014.326 19.629 1011.581 19.122 C 1011.435 19.097 1011.41 18.998 1011.581 18.974 C 1013.317 18.746 1015.13 18.796 1016.906 18.69 C 1016.187 18.476 1015.287 18.408 1014.562 18.194 C 1014.435 18.156 1014.461 18.076 1014.598 18.054 C 1016.876 17.694 1019.268 17.694 1021.646 17.694 C 1018.432 17.418 1015.214 17.149 1011.989 16.918 C 1017.018 17.278 1022.028 17.729 1027.039 18.158 C 1028.53 18.285 1030.02 18.411 1031.511 18.533 C 1031.288 18.538 1031.063 18.542 1030.84 18.546 C 1027.043 18.606 1023.245 18.653 1019.453 18.718 C 1019.28 18.718 1019.228 18.816 1019.365 18.859 C 1021.416 19.499 1023.808 19.833 1026.211 20.092 C 1025.427 20.144 1024.659 20.231 1023.88 20.306 C 1023.689 20.323 1023.738 20.456 1023.921 20.456 C 1024.734 20.456 1025.544 20.461 1026.352 20.481 C 1025.24 20.699 1024.306 21.049 1023.357 21.401 C 1023.237 21.445 1023.345 21.531 1023.476 21.531 C 1023.628 21.533 1023.779 21.533 1023.931 21.533 C 1025.065 21.533 1026.212 21.487 1027.361 21.441 C 1028.51 21.396 1029.66 21.35 1030.801 21.35 C 1031.77 21.35 1032.733 21.383 1033.682 21.477 C 1033.123 21.586 1032.548 21.679 1031.999 21.797 C 1031.861 21.829 1031.913 21.92 1032.041 21.939 C 1032.776 22.041 1033.524 22.077 1034.277 22.077 C 1035.535 22.077 1036.809 21.977 1038.063 21.918 C 1037.406 22.107 1036.787 22.321 1036.134 22.515 C 1035.999 22.555 1036.06 22.66 1036.207 22.66 C 1036.225 22.66 1036.244 22.658 1036.265 22.655 C 1039.728 22.063 1043.42 21.949 1047.116 21.949 C 1048.821 21.949 1050.528 21.974 1052.212 21.986 C 1051.371 22.102 1050.566 22.27 1049.775 22.463 C 1049.605 22.504 1049.713 22.606 1049.872 22.606 C 1049.882 22.606 1049.892 22.606 1049.902 22.605 C 1051.374 22.481 1052.877 22.414 1054.378 22.414 C 1055.116 22.414 1055.853 22.43 1056.587 22.463 C 1054.896 22.748 1053.331 23.164 1051.786 23.59 C 1051.657 23.625 1051.698 23.732 1051.859 23.732 C 1051.863 23.732 1051.868 23.732 1051.872 23.732 C 1054.955 23.612 1058.051 23.688 1061.136 23.595 C 1063.148 23.537 1065.169 23.45 1067.182 23.356 C 1063.895 23.851 1060.703 24.473 1057.71 25.278 C 1057.585 25.312 1057.618 25.422 1057.773 25.422 C 1057.78 25.422 1057.787 25.422 1057.794 25.421 C 1058.485 25.381 1059.173 25.348 1059.865 25.331 C 1059.262 25.47 1058.663 25.612 1058.126 25.803 C 1058.031 25.834 1058.08 25.921 1058.2 25.929 C 1059.352 26.007 1060.508 26.041 1061.666 26.041 C 1063.143 26.041 1064.621 25.986 1066.091 25.896 C 1065.612 26.016 1065.153 26.155 1064.722 26.315 C 1064.601 26.358 1064.705 26.442 1064.841 26.445 C 1064.995 26.446 1065.149 26.446 1065.304 26.446 C 1072.439 26.446 1079.419 25.639 1086.329 24.892 C 1085.684 25.092 1085.003 25.269 1084.397 25.494 C 1084.279 25.538 1084.382 25.622 1084.515 25.625 C 1084.569 25.626 1084.624 25.626 1084.678 25.626 C 1086.931 25.626 1089.08 25.156 1091.164 24.812 C 1093.469 24.43 1095.972 24.074 1098.414 23.914 C 1098.007 24.131 1097.589 24.351 1097.226 24.59 C 1097.135 24.647 1097.261 24.702 1097.385 24.702 C 1097.409 24.702 1097.434 24.7 1097.456 24.695 C 1100.631 24.04 1103.938 23.651 1107.308 23.37 C 1104.928 23.875 1102.734 24.563 1100.829 25.392 C 1100.701 25.447 1100.823 25.519 1100.963 25.519 C 1100.986 25.519 1101.01 25.517 1101.033 25.513 C 1102.516 25.226 1104.086 25.061 1105.61 24.829 C 1104.851 25.088 1104.113 25.362 1103.4 25.649 C 1103.3 25.689 1103.367 25.781 1103.503 25.781 C 1103.509 25.781 1103.514 25.781 1103.52 25.781 C 1108.254 25.489 1112.964 25.115 1117.681 24.774 C 1116.908 24.964 1116.138 25.159 1115.393 25.381 C 1115.261 25.421 1115.308 25.525 1115.48 25.525 C 1118.526 25.501 1121.358 24.781 1124.393 24.781 C 1124.614 24.781 1124.838 24.785 1125.062 24.794 C 1126.537 24.846 1127.841 25.254 1129.122 25.552 C 1130.196 25.806 1131.322 25.987 1132.531 25.987 C 1132.623 25.987 1132.715 25.986 1132.808 25.984 C 1132.913 25.981 1133.006 25.935 1132.968 25.887 C 1132.849 25.715 1132.693 25.552 1132.518 25.392 C 1133.814 25.634 1135.214 25.769 1136.565 25.929 C 1136.58 25.931 1136.594 25.932 1136.608 25.932 C 1136.73 25.932 1136.825 25.869 1136.753 25.817 C 1136.532 25.649 1136.272 25.496 1135.985 25.35 C 1137.355 25.655 1138.919 25.807 1140.365 25.924 C 1142.881 26.127 1145.441 26.168 1147.966 26.34 C 1147.976 26.341 1147.986 26.341 1147.996 26.341 C 1148.167 26.341 1148.25 26.247 1148.097 26.201 C 1147.975 26.16 1147.85 26.124 1147.727 26.087 C 1150.211 26.201 1152.752 26.203 1155.165 26.343 C 1155.172 26.344 1155.178 26.344 1155.184 26.344 C 1155.322 26.344 1155.378 26.253 1155.287 26.211 C 1155.178 26.163 1155.071 26.119 1154.961 26.076 C 1155.581 26.1 1156.206 26.105 1156.815 26.105 C 1157.292 26.105 1157.76 26.102 1158.204 26.101 C 1161.221 26.087 1164.229 26.068 1167.172 25.725 C 1167.298 25.709 1167.334 25.637 1167.245 25.598 C 1167.052 25.505 1166.846 25.419 1166.634 25.336 C 1166.94 25.349 1167.246 25.356 1167.55 25.356 C 1167.946 25.356 1168.341 25.344 1168.735 25.317 C 1168.849 25.308 1168.886 25.243 1168.839 25.204 C 1168.278 24.764 1167.492 24.391 1166.608 24.062 C 1171.135 24.85 1175.89 25.584 1180.658 25.584 C 1182.238 25.584 1183.821 25.503 1185.396 25.317 C 1185.546 25.296 1185.546 25.212 1185.435 25.176 C 1183.847 24.65 1182.08 24.261 1180.274 23.915 C 1182.767 24.194 1185.408 24.433 1187.981 24.433 C 1189.626 24.433 1191.243 24.335 1192.774 24.087 C 1192.924 24.066 1192.944 23.96 1192.774 23.939 C 1191.026 23.729 1189.153 23.75 1187.472 23.456 C 1188.364 23.513 1189.26 23.539 1190.157 23.539 C 1191.707 23.539 1193.258 23.46 1194.786 23.32 C 1194.979 23.303 1194.92 23.173 1194.741 23.169 C 1191.527 23.105 1188.458 22.847 1185.321 22.543 C 1183.981 22.415 1182.51 22.283 1181.177 22.037 C 1186.833 22.429 1192.507 22.756 1198.203 22.957 C 1198.874 23.075 1199.541 23.197 1200.188 23.333 C 1200.339 23.365 1200.273 23.452 1200.15 23.473 C 1198.999 23.677 1197.775 23.722 1196.558 23.784 C 1198.589 23.981 1200.694 23.987 1202.721 24.195 C 1202.859 24.208 1202.894 24.307 1202.764 24.335 C 1199.431 25.052 1195.736 25.061 1192.185 25.37 C 1192.589 25.449 1192.986 25.536 1193.373 25.637 C 1193.499 25.668 1193.474 25.76 1193.332 25.778 C 1192.049 25.921 1190.744 25.963 1189.431 25.963 C 1188.503 25.963 1187.571 25.942 1186.64 25.921 C 1185.71 25.9 1184.78 25.879 1183.855 25.879 C 1183.8 25.879 1183.744 25.879 1183.689 25.879 C 1184.911 26.191 1186.299 26.331 1187.561 26.608 C 1187.727 26.644 1187.621 26.745 1187.474 26.751 C 1179.694 27.111 1171.884 27.384 1164.069 27.398 C 1163.591 27.422 1163.113 27.446 1162.635 27.47 Z  M 1011.982 16.917 C 1011.969 16.916 1011.956 16.915 1011.943 16.914 C 1011.955 16.915 1011.969 16.916 1011.982 16.917 Z " fill="rgb(158,195,73)"/><path d=" M 1240.393 28 L 1160.428 28 C 1160.906 27.976 1161.384 27.952 1161.862 27.928 C 1169.677 27.914 1177.487 27.641 1185.267 27.281 C 1185.414 27.274 1185.52 27.174 1185.354 27.138 C 1184.092 26.861 1182.704 26.721 1181.482 26.409 C 1181.537 26.409 1181.593 26.409 1181.648 26.409 C 1182.573 26.409 1183.503 26.43 1184.433 26.451 C 1185.364 26.472 1186.296 26.493 1187.224 26.493 C 1188.537 26.493 1189.842 26.451 1191.125 26.308 C 1191.267 26.29 1191.292 26.198 1191.166 26.167 C 1190.779 26.065 1190.382 25.979 1189.978 25.899 C 1193.529 25.591 1197.224 25.582 1200.557 24.864 C 1200.687 24.837 1200.652 24.738 1200.514 24.725 C 1198.487 24.517 1196.382 24.511 1194.351 24.313 C 1195.568 24.252 1196.792 24.207 1197.943 24.003 C 1198.066 23.981 1198.132 23.895 1197.981 23.863 C 1197.334 23.727 1196.667 23.605 1195.996 23.487 C 1199.909 23.625 1203.834 23.704 1207.769 23.703 C 1207.878 23.703 1207.988 23.703 1208.096 23.703 C 1208.106 23.703 1208.115 23.703 1208.125 23.703 C 1208.181 23.703 1208.237 23.703 1208.292 23.703 L 1208.292 23.703 L 1208.292 23.703 C 1219.407 23.684 1230.364 22.815 1241.148 21.632 C 1241.079 21.676 1241.118 21.745 1241.276 21.754 C 1242.951 21.838 1244.633 21.814 1246.311 21.846 C 1243.39 22.637 1239.87 22.8 1236.76 23.394 C 1236.617 23.422 1236.582 23.521 1236.76 23.542 C 1237.448 23.623 1238.142 23.646 1238.838 23.646 C 1239.556 23.646 1240.276 23.621 1240.996 23.607 C 1240.186 23.781 1239.327 23.906 1238.507 24.068 C 1238.365 24.097 1238.425 24.188 1238.548 24.21 C 1239.95 24.43 1241.378 24.486 1242.817 24.486 C 1243.561 24.486 1244.308 24.471 1245.055 24.456 C 1245.803 24.441 1246.552 24.426 1247.299 24.426 C 1247.969 24.426 1248.639 24.439 1249.306 24.474 C 1243.297 25.489 1237.154 26.327 1230.834 26.822 C 1230.709 26.834 1230.678 26.915 1230.761 26.951 C 1232.091 27.56 1234.259 27.651 1236.036 27.72 C 1237.943 27.796 1239.867 27.756 1241.777 27.81 C 1241.309 27.866 1240.842 27.921 1240.393 28 Z " fill="rgb(133,177,76)"/><path d=" M 1039.103 23.487 L 1003.355 23.487 L 1003.355 12.658 C 1004.388 12.72 1005.42 12.787 1006.451 12.858 C 1006.46 12.858 1006.469 12.859 1006.478 12.86 C 1006.498 12.861 1006.518 12.862 1006.538 12.864 C 1006.559 12.865 1006.578 12.867 1006.599 12.868 C 1006.604 12.868 1006.61 12.869 1006.616 12.869 C 1006.908 12.889 1007.199 12.91 1007.491 12.931 C 1007.504 12.932 1007.517 12.933 1007.53 12.934 C 1007.532 12.934 1007.534 12.934 1007.537 12.934 C 1010.762 13.166 1013.98 13.434 1017.194 13.71 C 1014.816 13.71 1012.424 13.71 1010.146 14.071 C 1010.009 14.092 1009.983 14.172 1010.11 14.21 C 1010.834 14.424 1011.735 14.492 1012.454 14.706 C 1010.678 14.813 1008.865 14.762 1007.129 14.99 C 1006.957 15.015 1006.983 15.113 1007.129 15.139 C 1009.873 15.646 1012.706 16.042 1015.468 16.526 C 1014.355 16.534 1013.252 16.565 1012.162 16.681 C 1012.03 16.695 1011.984 16.793 1012.12 16.82 C 1012.963 16.987 1013.829 17.122 1014.684 17.277 C 1011.605 17.426 1008.279 17.214 1005.412 17.814 C 1005.306 17.836 1005.317 17.899 1005.378 17.934 C 1007.266 19.029 1010.905 19.281 1013.7 19.555 C 1015.812 19.763 1017.866 19.914 1020.032 19.944 C 1020.349 19.947 1020.665 19.949 1020.982 19.949 C 1022.765 19.949 1024.548 19.893 1026.325 19.833 C 1025.427 20.031 1024.579 20.273 1023.747 20.525 C 1023.601 20.571 1023.667 20.66 1023.832 20.668 C 1024.132 20.683 1024.43 20.689 1024.728 20.689 C 1025.667 20.689 1026.599 20.627 1027.53 20.565 C 1028.461 20.503 1029.39 20.441 1030.325 20.441 C 1030.628 20.441 1030.931 20.448 1031.235 20.463 C 1029.066 20.764 1026.951 21.139 1024.975 21.654 C 1024.858 21.682 1024.877 21.752 1024.975 21.785 C 1028.861 23.046 1034.004 23.144 1038.56 23.45 C 1038.741 23.463 1038.922 23.475 1039.103 23.487 Z " fill="rgb(133,177,76)"/><path d=" M 677.924 1.999 C 683.798 1.962 689.644 2.071 695.485 2.761 C 708.661 4.318 732.209 12.96 744.3 5.414 C 744.871 5.058 745.388 4.621 745.913 4.199 C 748.63 2.017 750.883 0.028 754.582 0 C 766.791 -0.089 777.846 7.116 790.34 7.031 C 807.147 6.916 823.239 6.838 840.054 5.506 C 843.243 5.253 846.744 4.949 849.982 5.16 C 868.798 6.387 888.873 13.985 907.811 10.652 C 913.674 9.62 919.512 8.878 925.366 8.088 C 928.838 7.619 930.69 7.609 934.383 7.762 C 934.383 7.762 943.093 8.447 943.093 8.447 C 965.403 12.394 981.392 10.053 1003.355 4.707 L 1003.355 4.707 L 1003.355 28.041 L 668.903 28.041 L 668.903 2.047 C 672.912 2.063 673.917 2.028 677.924 1.999 L 677.924 1.999 Z " fill="rgb(102,160,78)"/><path d=" M 979.095 16.662 C 987.193 16.662 995.268 16.069 1003.355 15.738 L 1003.355 15.738 L 1003.355 7.21 C 1001.078 7.672 989.752 9.363 982.534 11.825 L 982.534 11.825 L 996.309 11.825 C 997.198 11.825 988.637 13.407 988.638 13.411 C 988.788 14.039 997.286 13.679 997.158 14.231 C 996.905 15.319 989.466 15.75 988.685 15.812 C 985.708 16.049 982.669 16.046 979.685 15.955 C 972.222 15.728 954.833 17.736 948.946 13.339 C 948.946 13.339 962.778 12.109 962.778 12.109 C 943.499 9.609 922.083 9.908 902.727 11.056 C 880.244 12.389 857.936 14.916 835.4 13.723 C 810.235 12.391 786.037 8.746 760.77 8.93 L 760.77 8.93 L 760.77 8.93 C 757.588 8.952 754.126 8.583 750.985 9.003 C 750.985 9.003 755.477 9.556 755.477 9.556 C 755.583 9.73 741.997 9.798 741.842 9.826 C 741.842 9.826 748.987 10.885 748.987 10.885 C 743.974 14.767 726.775 11.67 719.676 11.517 C 716.553 11.45 713.429 11.388 710.309 11.235 C 707.12 11.078 688.177 11.74 686.174 8.564 C 686.174 8.564 695.348 8.326 695.348 8.326 C 692.578 7.379 689.554 7.484 686.664 7.015 C 664.369 3.394 695.017 5.832 700.267 5.906 C 700.267 5.906 678.315 3.991 678.315 3.991 C 675.178 3.979 672.04 4.039 668.903 4.048 L 668.903 4.048 L 668.903 8.004 C 705.131 10.639 738.587 11.986 775.132 10.996 C 777.46 10.933 779.789 10.927 782.117 10.913 C 785.39 10.892 788.686 10.962 791.952 11.195 C 791.952 11.195 801.331 12.029 801.331 12.029 C 803.959 12.228 806.593 12.353 809.223 12.545 C 811.842 12.736 814.458 12.966 817.075 13.178 C 853.229 16.102 889.062 11.766 925.284 13.055 C 941.118 13.618 956.833 15.416 972.626 16.474 C 975.324 16.655 976.392 16.662 979.095 16.662 L 979.095 16.662 Z " fill="rgb(87,141,75)"/><path d=" M 984.398 17.287 C 992.824 17.287 994.932 17.123 1003.355 16.908 L 1003.355 16.908 L 1003.355 15.536 C 966.545 17.06 930.186 11.373 893.344 12.59 C 890.013 12.701 886.682 12.83 883.352 12.976 C 880.026 13.121 876.702 13.305 873.377 13.464 C 873.377 13.464 851.27 14.805 851.27 14.805 C 862.182 15.985 874.272 14.437 884.823 14.056 L 884.823 14.056 L 884.823 14.056 C 899.947 13.508 915.085 13.226 930.203 14.104 L 930.203 14.104 L 930.203 14.104 C 948.262 15.147 966.294 17.287 984.398 17.287 L 984.398 17.287 Z " fill="rgb(75,124,70)"/><path d=" M 728.986 13.235 C 739.012 13.235 749.018 12.877 759.033 12.446 C 771.059 11.928 783.069 11.274 795.106 11.702 C 795.106 11.702 801.775 12.029 801.775 12.029 C 801.775 12.029 782.817 10.913 782.817 10.913 C 761.887 11.045 740.986 13.298 720.042 12.75 C 713.043 12.567 706.144 12.224 699.196 11.421 C 689.85 10.342 680.498 8.696 671.11 8.004 L 671.11 8.004 L 671.11 10.043 C 690.459 10.107 709.6 13.235 728.986 13.235 L 728.986 13.235 Z " fill="rgb(75,124,70)"/><path d=" M 683.188 8.438 C 720.75 11.201 757.606 8.348 795.106 9.702 C 833.93 11.103 872.067 11.563 910.94 11.746 C 939.242 11.879 967.279 15.899 995.615 15.262 C 998.195 15.204 1000.775 15.115 1003.355 15.056 L 1003.355 15.056 L 1003.355 28.041 L 668.903 28.041 L 668.903 8.05 C 673.669 8.018 678.433 8.085 683.188 8.438 L 683.188 8.438 Z " fill="rgb(122,192,82)"/><path d=" M 943.475 17.989 C 947.157 17.989 937.717 17.666 938.538 17.059 C 941.535 14.846 950.797 18.312 954.95 17.256 C 954.95 17.256 945.568 15.512 945.568 15.512 C 939.709 14.994 933.829 14.646 927.957 14.306 L 927.957 14.306 L 927.957 14.306 C 912.84 13.428 897.702 13.71 882.578 14.258 L 882.578 14.258 L 882.578 14.258 C 874.82 14.539 870.813 14.716 862.114 14.932 C 862.114 14.932 854.519 15.021 854.519 15.021 C 857.205 15.313 859.923 15.551 862.621 15.658 C 863.277 15.684 877.868 14.851 872.409 15.599 C 872.409 15.599 882.388 16.117 882.388 16.117 C 882.388 16.117 898.697 15.608 898.697 15.608 C 915.17 15.303 897.836 16.242 905.909 16.215 C 909.237 16.204 912.54 16.213 915.863 16.486 C 915.863 16.486 925.581 17.556 925.581 17.556 C 935.828 18.431 918.481 16.393 931.052 17.367 C 936.961 17.825 938.429 17.989 943.475 17.989 L 943.475 17.989 Z " fill="rgb(145,200,95)"/><path d=" M 839.766 19.09 C 842.127 18.872 852.414 17.823 849.288 17.624 C 837.419 16.867 862.744 17.739 843.144 16.178 C 843.144 16.178 835.544 15.466 835.544 15.466 C 835.544 15.466 843.221 15.623 843.221 15.623 C 839.141 14.045 828.875 14.115 825.276 13.784 C 820.253 13.322 815.226 12.904 810.196 12.53 C 804.594 12.114 800.429 11.91 795.106 11.702 C 790.527 11.523 791.154 11.536 786.571 11.548 C 784.366 11.555 782.162 11.538 779.958 11.583 C 777.57 11.632 775.185 11.75 772.798 11.832 C 770.149 11.923 767.501 12.014 764.851 12.103 C 760.824 12.238 746.948 12.575 740.959 13.084 C 740.959 13.084 735.268 13.905 735.268 13.905 C 738.787 16.588 747.529 10.781 750.632 13.915 C 750.632 13.915 744.498 14.545 744.498 14.545 C 744.498 14.545 760.224 15.389 760.224 15.389 C 751.857 15.833 746.566 14.306 769.211 17.455 C 774.643 18.21 775.976 17.759 785.625 18.37 C 803.284 19.487 762.819 17.474 797.186 17.893 C 805.772 17.998 814.565 18.683 823.117 19.136 C 823.117 19.136 815.76 18.391 815.76 18.391 C 822.822 17.364 831.31 18.175 838.281 18.048 C 838.281 18.048 831.28 18.517 831.28 18.517 C 831.014 18.959 838.979 19.083 839.766 19.09 L 839.766 19.09 L 839.766 19.09 Z " fill="rgb(145,200,95)"/><path d=" M 671.2 10.043 C 671.16 10.043 671.15 10.043 671.11 10.043 L 671.11 10.043 L 671.11 10.043 C 671.14 10.043 671.17 10.043 671.2 10.043 L 671.2 10.043 Z " fill="rgb(61,106,64)"/><path d=" M 796.575 23.404 C 798.569 23.404 800.564 23.401 802.559 23.364 C 804.548 23.328 806.535 23.244 808.524 23.184 C 808.524 23.184 817.052 22.819 817.052 22.819 C 877.711 19.538 938.286 20.51 998.903 16.871 L 998.903 16.871 L 998.903 16.81 C 995.743 16.891 992.584 17.017 989.424 17.08 C 986.265 17.143 983.106 17.171 979.946 17.189 C 975.902 17.211 974.233 17.159 970.193 16.979 C 970.193 16.979 952.67 16.373 952.67 16.373 C 952.67 16.373 967.799 17.791 967.799 17.791 C 964.991 22.742 962.916 12.088 967.952 18.308 C 967.973 18.334 967.973 18.382 967.952 18.408 C 965.752 21.085 952.061 19.016 947.671 19.012 C 941.12 19.005 934.564 18.978 928.017 18.708 C 922.57 18.482 917.127 18.166 911.682 17.91 C 908.958 17.782 906.234 17.656 903.509 17.555 C 870.142 16.321 835.766 21.901 807.915 22.396 C 791.721 22.684 766.866 17.578 755.175 19.868 C 750.192 20.844 738.448 17.696 734.764 17.205 C 713.283 14.343 689.973 16.302 668.903 12.243 L 668.903 12.243 L 668.903 13.467 C 711.667 13.341 753.568 23.325 796.211 23.403 L 796.211 23.403 L 796.211 23.403 L 796.211 23.403 L 796.211 23.403 C 796.372 23.404 796.413 23.404 796.575 23.404 L 796.575 23.404 Z  M 668.903 10.624 C 675.516 8.787 678.854 9.743 668.903 9.743 L 668.903 9.743 L 668.903 10.624 Z " fill-rule="evenodd" fill="rgb(89,162,80)"/><path d=" M 713.164 13.377 C 714.969 13.539 716.774 13.695 718.576 13.887 C 760.189 18.319 798.875 22.973 840.797 19.571 C 894.924 15.178 949.129 17.885 1003.355 15.045 L 1003.355 15.045 L 1003.355 28.041 L 668.903 28.041 L 668.903 11.777 C 683.672 11.687 698.448 12.061 713.164 13.377 L 713.164 13.377 Z " fill="rgb(173,205,69)"/><path d=" M 810.714 23.487 C 813.54 23.387 841.937 21.892 819.259 23.119 L 810.714 23.487 L 810.714 23.487 Z  M 977.406 19.063 C 977.406 19.063 981.877 18.688 981.877 18.688 L 977.406 19.063 L 977.406 19.063 Z  M 741.23 18.612 C 740.103 18.465 740.101 18.465 741.23 18.612 L 741.23 18.612 Z " fill-rule="evenodd" fill="rgb(83,154,79)"/><path d=" M 688.09 13.963 C 688.09 13.963 671.11 13.767 671.11 13.767 L 671.11 13.767 L 671.11 13.767 C 676.773 13.751 682.428 13.809 688.09 13.963 L 688.09 13.963 Z " fill="rgb(83,154,79)"/><path d=" M 714.226 27.471 L 764.11 27.471 C 759.396 26.643 774.337 27.278 773.809 26.345 C 772.549 24.12 758.627 24.705 755.197 23.944 C 755.197 23.944 766.077 23.568 766.077 23.568 C 765.962 23.26 763.711 23.347 763.507 23.078 C 763.507 23.078 767.85 22.987 767.85 22.987 C 767.85 22.987 760.457 21.831 760.457 21.831 C 759.693 21.708 757.86 22.016 758.192 21.316 C 758.25 21.193 763.247 21.331 763.404 21.181 C 763.441 21.146 753.773 19.979 753.684 19.968 C 753.684 19.968 738.094 17.961 738.094 17.961 C 739.659 18.303 758.102 20.767 750.813 20.49 C 750.813 20.49 759.807 22.149 759.807 22.149 C 759.844 22.155 759.898 22.146 759.917 22.179 C 759.917 22.179 754.582 22.121 754.582 22.121 C 754.582 22.121 759.265 23.01 759.265 23.01 C 759.265 23.01 747.959 22.503 747.959 22.503 C 743.244 22.152 743.433 22.029 746.875 22.782 C 753.909 24.321 745.199 22.944 745.271 23.064 C 745.271 23.064 764.799 26.579 764.799 26.579 C 761.511 29.169 749.986 25.083 746.159 25.098 C 746.107 25.098 748.934 25.837 748.766 25.996 C 748.766 25.996 743.206 25.35 743.206 25.35 C 741.489 25.055 739.786 24.683 738.07 24.386 C 731.12 23.181 735.349 24.187 737.042 24.765 C 737.175 24.81 737.103 24.892 737.001 24.906 C 730.518 25.838 723.893 24.266 718.457 24.196 C 715.83 24.162 697.439 23.478 696.554 21.491 C 696.554 21.491 700.507 21.45 700.507 21.45 C 693.578 20.909 697.254 21.306 690.405 20.505 C 690.37 20.501 690.327 20.503 690.305 20.477 C 690.286 20.453 690.286 20.409 690.306 20.386 C 690.306 20.386 697.276 20.144 697.276 20.144 C 695.285 19.66 679.065 19.738 678.539 18.432 C 678.539 18.432 688.944 17.984 688.944 17.984 C 688.944 17.984 669.503 15.639 669.503 15.639 C 669.503 15.639 685.883 13.434 685.883 13.434 C 680.404 12.735 674.428 13.221 668.903 13.237 L 668.903 13.237 L 668.903 16.921 C 668.951 16.925 673.034 17.269 673.097 17.403 C 673.229 17.685 669.065 17.326 669.269 17.857 C 669.269 17.857 674.306 18.836 674.306 18.836 C 674.306 18.836 668.903 19.225 668.903 19.225 L 668.903 19.225 L 668.903 19.371 C 677.289 21.646 687.938 21.187 695.663 25.118 C 695.663 25.118 690.266 24.954 690.266 24.954 C 690.06 25.182 693.494 25.789 693.398 25.815 C 693.398 25.815 688.864 25.553 688.864 25.553 C 688.618 25.545 688.372 25.551 688.127 25.563 C 687.88 25.576 687.634 25.603 687.388 25.629 C 687.356 25.632 687.318 25.628 687.295 25.65 C 687.274 25.67 687.264 25.71 687.277 25.737 C 687.799 26.883 692.808 26.7 694.153 26.821 C 700.838 27.426 707.522 27.3 714.226 27.471 L 714.226 27.471 Z  M 844.075 27.471 L 963.154 27.471 C 966.269 27.27 969.383 27.15 972.487 26.78 C 985.329 25.249 962.555 25.026 977.977 24.67 C 978.126 24.666 978.276 24.661 978.425 24.652 C 978.463 24.65 978.505 24.656 978.537 24.636 C 978.566 24.618 978.601 24.583 978.594 24.549 C 978.594 24.549 975.933 23.817 975.933 23.817 C 978.796 23.327 982.448 24.005 985.419 23.823 C 986.479 23.758 997.223 22.822 996.946 21.852 C 996.591 20.604 988.728 21.578 987.573 21.261 C 987.573 21.261 990.217 20.775 990.217 20.775 C 990.581 19.827 978.909 21.834 990.968 19.828 C 992.355 19.597 993.742 19.362 995.128 19.123 C 995.161 19.117 995.201 19.12 995.223 19.095 C 995.243 19.071 995.252 19.027 995.233 19.002 C 994.998 18.704 990.101 18.755 989.804 18.69 C 989.804 18.69 992.223 18.16 992.223 18.16 C 992.223 18.16 986.849 17.694 986.849 17.694 C 986.254 17.679 984.474 17.774 985.063 17.694 C 985.063 17.694 994.721 16.918 994.721 16.918 C 988.216 17.448 981.694 17.88 975.199 18.533 C 975.199 18.533 987.372 18.731 987.372 18.731 C 987.372 18.731 980.498 20.093 980.498 20.093 C 980.498 20.093 982.943 20.334 982.943 20.334 C 983.09 20.581 980.351 20.474 980.358 20.481 C 980.358 20.481 983.419 21.488 983.419 21.488 C 983.419 21.488 973.56 22.059 973.56 22.059 C 965.999 22.526 973.851 22.787 967.819 22.271 C 964.207 21.962 960.648 21.936 957.035 21.962 C 954.638 21.979 959.551 22.237 951.225 22.423 C 950.858 22.431 949.78 22.33 950.123 22.464 C 950.123 22.464 954.957 23.719 954.957 23.719 C 951.488 26.207 943.426 21.646 939.528 23.356 C 939.528 23.356 947.881 25.365 947.881 25.365 C 945.387 25.257 948.068 25.612 948.584 25.804 C 948.616 25.816 948.672 25.849 948.654 25.878 C 947.831 27.286 940.542 26.486 938.735 26.421 C 933.416 26.229 931.317 26.017 925.572 25.46 C 915.068 24.441 928.056 26.805 917.117 25.086 C 915.677 24.86 906.524 22.452 909.484 24.591 C 909.484 24.591 909.325 24.702 909.325 24.702 C 906.221 25.065 902.545 22.633 899.402 23.37 C 899.402 23.37 905.948 25.484 905.948 25.484 C 905.448 25.959 901.723 24.787 901.1 24.83 C 899.739 24.924 920.117 27.01 896.101 25.302 C 871.921 23.583 892.347 24.865 891.343 25.512 C 889.009 27.018 883.72 24.346 880.563 24.878 C 880.563 24.878 870.725 25.351 870.725 25.351 C 863.03 26.052 855.594 26.102 849.895 26.106 C 846.86 26.108 840.209 25.439 840.076 25.337 C 840.076 25.337 840.102 24.062 840.102 24.062 C 837.069 24.159 824.145 28.196 821.22 25.294 C 821.22 25.294 826.436 23.916 826.436 23.916 C 826.436 23.916 813.832 23.966 813.832 23.966 C 815.973 21.258 821.893 24.172 811.924 23.32 C 811.885 23.317 811.83 23.327 811.811 23.294 C 811.811 23.294 825.533 22.037 825.533 22.037 C 822.698 22.144 819.873 22.439 817.04 22.593 C 810.098 22.968 811.079 22.458 807.502 23.136 C 805.716 23.476 813.358 23.51 803.989 24.195 C 803.958 24.198 803.921 24.195 803.898 24.216 C 803.875 24.237 803.857 24.276 803.869 24.306 C 803.869 24.306 813.378 25.778 813.378 25.778 C 813.378 25.778 823.021 25.88 823.021 25.88 C 823.021 25.88 819.058 26.644 819.058 26.644 C 819.058 26.644 836.78 27.356 836.78 27.356 C 839.276 27.411 841.631 27.345 844.075 27.471 L 844.075 27.471 Z  M 994.728 16.918 C 994.771 16.915 994.771 16.915 994.728 16.918 L 994.728 16.918 Z " fill-rule="evenodd" fill="rgb(158,195,73)"/><path d=" M 766.317 28 L 846.282 28 C 843.838 27.875 841.483 27.941 838.987 27.885 C 838.987 27.885 821.265 27.173 821.265 27.173 C 821.265 27.173 825.228 26.41 825.228 26.41 C 825.228 26.41 815.468 26.198 815.468 26.198 C 816.69 23.36 807.358 28.033 806.076 24.835 C 805.806 24.161 816.552 24.751 810.53 24.23 C 810.53 24.23 810.714 23.487 810.714 23.487 C 806.616 23.486 802.519 23.711 798.418 23.704 L 798.418 23.704 L 798.418 23.704 L 798.418 23.704 C 797.03 23.701 795.642 23.708 794.255 23.67 C 791.495 23.594 788.734 23.521 785.978 23.362 C 785.978 23.362 765.611 21.711 765.611 21.711 C 765.454 21.861 760.457 21.723 760.399 21.846 C 760.399 21.846 770.057 23.517 770.057 23.517 C 770.057 23.517 765.714 23.608 765.714 23.608 C 766.795 25.03 771.216 24.441 763.893 24.487 C 763.52 24.489 763.148 24.484 762.775 24.479 C 762.402 24.474 762.028 24.464 761.655 24.457 C 761.281 24.449 760.906 24.439 760.532 24.434 C 760.532 24.434 757.404 24.474 757.404 24.474 C 760.834 25.235 774.756 24.65 776.016 26.875 C 776.544 27.808 761.603 27.173 766.317 28 L 766.317 28 Z " fill="rgb(133,177,76)"/><path d=" M 967.606 23.487 L 1003.355 23.487 L 1003.355 12.658 C 998.759 12.934 994.051 13.098 989.515 13.711 C 989.515 13.711 996.676 14.177 996.676 14.177 C 996.303 14.995 990.078 14.422 996.939 14.788 C 996.939 14.788 999.685 15.018 999.685 15.018 C 1000.388 15.914 986.67 16.257 992.906 16.55 C 992.906 16.55 992.025 17.277 992.025 17.277 C 993.18 17.594 1001.043 16.62 1001.398 17.868 C 1001.675 18.838 990.931 19.774 989.871 19.839 C 986.9 20.021 983.248 19.344 980.385 19.834 C 980.385 19.834 983.046 20.565 983.046 20.565 C 983.073 20.7 976.931 20.45 976.385 20.442 C 976.234 20.44 976.082 20.442 975.93 20.445 C 975.778 20.449 975.325 20.436 975.474 20.463 C 986.899 22.552 978.403 22.743 971.64 23.247 C 970.305 23.347 968.95 23.4 967.606 23.487 L 967.606 23.487 Z " fill="rgb(133,177,76)"/><path d=" M 659.882 1.999 C 653.069 1.955 646.348 2.038 639.891 3.143 C 633.516 4.235 627.44 5.755 620.679 6.303 C 613.515 6.885 606.265 6.759 599.031 6.921 C 591.381 7.094 581.349 1.164 573.696 1.11 C 566.137 1.054 560.921 6.822 553.365 6.994 C 545.501 7.176 537.626 6.555 529.891 7.21 C 515.111 8.46 504.78 5.332 489.696 5.143 C 479.877 5.021 466.13 9.943 456.343 9.582 C 450.513 9.366 444.242 11.866 438.404 11.701 C 430.794 11.485 423.668 8.618 416.058 8.874 C 409.715 7.054 402.932 7.707 394.713 8.446 C 387.82 9.937 379.114 12.226 371.264 11.928 C 365.359 11.706 359.439 9.298 353.563 8.939 C 347.195 8.551 340.312 6.134 334.451 4.707 L 334.451 28.04 L 668.903 28.04 L 668.903 2.047 C 665.897 2.059 662.88 2.02 659.882 1.999 Z " fill="rgb(102,160,78)"/><path d=" M 358.71 16.661 C 354.498 16.661 350.283 16.464 346.082 16.305 C 342.203 16.158 338.333 15.896 334.451 15.738 L 334.451 7.21 C 335.611 7.445 336.799 7.655 338.009 7.845 C 337.454 7.884 336.9 7.929 336.349 7.99 C 336.204 8.005 336.188 8.098 336.309 8.128 C 342.243 9.743 349.697 9.923 355.271 11.824 L 341.496 11.824 C 341.331 11.824 341.25 11.935 341.408 11.968 C 343.925 12.524 346.686 12.825 349.168 13.41 C 346.414 13.717 343.635 13.981 340.813 14.128 C 340.643 14.136 340.587 14.224 340.73 14.271 C 344.744 15.6 349.699 15.999 354.64 15.999 C 356.961 15.999 359.28 15.911 361.496 15.79 C 369.255 15.368 376.78 14.396 384.423 13.695 C 385.856 13.565 387.295 13.448 388.74 13.36 C 388.917 13.349 388.984 13.233 388.786 13.211 C 384.272 12.672 379.652 12.373 375.027 12.108 C 379.672 12.019 384.278 11.701 388.904 11.498 C 391.184 11.398 393.474 11.317 395.767 11.251 C 396.172 11.265 396.576 11.276 396.982 11.285 C 397.892 11.305 398.805 11.314 399.72 11.314 C 404.785 11.314 409.914 11.039 414.883 10.874 C 417.776 10.779 420.662 10.741 423.548 10.741 C 424.466 10.741 425.384 10.744 426.301 10.752 C 427.154 10.759 428.007 10.769 428.86 10.781 C 445.467 11.406 461.785 13.307 478.418 13.947 C 481.577 14.07 484.738 14.134 487.9 14.134 C 490.061 14.134 492.223 14.104 494.385 14.043 C 499.742 13.886 505.069 13.56 510.376 13.196 C 515.496 12.849 520.664 12.547 525.69 11.976 C 530.603 11.416 535.387 10.657 540.212 9.96 C 541.659 9.752 543.123 9.545 544.592 9.354 C 547.721 9.192 550.868 9.067 554.043 8.994 C 557.98 8.906 561.922 8.877 565.864 8.877 C 569.589 8.877 573.314 8.903 577.036 8.93 L 577.036 8.93 C 577.472 8.933 577.906 8.936 578.342 8.939 C 581.167 8.961 583.992 8.987 586.82 9.002 C 585.352 9.16 583.888 9.333 582.439 9.523 C 582.255 9.549 582.289 9.675 582.481 9.675 C 586.978 9.678 591.467 9.802 595.964 9.825 C 593.61 10.143 591.276 10.479 588.897 10.753 C 588.698 10.775 588.758 10.896 588.939 10.905 C 597.036 11.258 605.245 11.537 613.422 11.537 C 625.982 11.537 638.466 10.878 650.339 8.812 C 650.736 8.741 651.134 8.67 651.526 8.598 C 651.696 8.566 651.69 8.446 651.482 8.446 C 648.471 8.446 645.459 8.438 642.458 8.325 C 648.246 7.453 654.037 6.576 659.684 5.527 C 659.854 5.495 659.844 5.381 659.64 5.377 C 658.663 5.361 657.686 5.354 656.709 5.354 C 652.257 5.354 647.809 5.504 643.377 5.685 C 641.428 5.763 639.481 5.835 637.538 5.905 C 637.787 5.858 638.035 5.811 638.283 5.764 C 639.429 5.549 640.578 5.34 641.736 5.143 C 647.488 4.172 653.444 3.99 659.49 3.99 C 660.325 3.99 661.161 3.994 661.997 3.999 C 664.292 4.015 666.598 4.041 668.903 4.048 L 668.903 8.004 C 664.408 8.331 660.042 8.94 655.676 9.515 C 648.958 10.403 642.156 11.295 635.306 11.928 C 628.261 12.583 621.108 12.772 613.93 12.775 C 613.913 12.775 613.894 12.775 613.876 12.775 C 599.056 12.775 584.351 11.97 569.629 11.29 C 565.003 11.078 560.344 10.912 555.689 10.912 C 553.466 10.912 551.246 10.95 549.028 11.039 C 544.781 11.209 540.621 11.601 536.475 12.028 C 531.202 12.336 525.964 12.753 520.73 13.177 C 516.943 13.484 513.158 13.795 509.359 14.072 C 509.352 14.073 509.345 14.074 509.337 14.075 C 506.331 14.294 503.318 14.493 500.29 14.651 C 496.39 14.856 492.488 14.965 488.587 15.006 C 487.95 14.953 487.313 14.901 486.674 14.851 C 479.886 14.308 473.041 13.973 466.182 13.666 C 459.442 13.369 452.704 12.985 445.946 12.792 C 441.817 12.673 437.683 12.617 433.549 12.617 C 424.192 12.617 414.837 12.904 405.543 13.399 C 398.718 13.764 391.921 14.229 385.149 14.766 C 381.819 15.031 378.491 15.312 375.168 15.607 C 371.845 15.903 368.533 16.263 365.18 16.474 C 363.026 16.609 360.868 16.661 358.71 16.661 Z " fill="rgb(87,141,75)"/><path d=" M 353.407 17.286 C 347.088 17.287 340.771 17.069 334.451 16.908 L 334.451 15.536 C 338.282 15.694 342.1 15.956 345.927 16.103 C 350.072 16.261 354.231 16.459 358.387 16.459 C 360.517 16.459 362.645 16.407 364.771 16.272 C 368.08 16.061 371.347 15.701 374.626 15.405 C 377.904 15.109 381.188 14.829 384.474 14.564 C 391.156 14.027 397.862 13.562 404.597 13.197 C 413.767 12.702 422.998 12.415 432.23 12.415 C 436.309 12.415 440.388 12.471 444.462 12.59 C 451.13 12.783 457.778 13.167 464.429 13.464 C 471.196 13.771 477.95 14.106 484.648 14.649 C 485.278 14.699 485.907 14.751 486.536 14.804 C 485.324 14.817 484.112 14.823 482.901 14.823 C 482.162 14.823 481.424 14.821 480.685 14.817 C 480.678 14.816 480.672 14.816 480.665 14.816 C 480.636 14.816 480.607 14.816 480.579 14.816 C 480.562 14.816 480.546 14.816 480.529 14.816 C 480.51 14.815 480.493 14.815 480.474 14.815 C 480.45 14.815 480.426 14.815 480.403 14.815 C 480.392 14.815 480.382 14.815 480.371 14.815 C 480.34 14.814 480.308 14.814 480.277 14.814 C 480.275 14.814 480.274 14.814 480.272 14.814 C 471.172 14.752 462.075 14.383 452.983 14.056 L 452.983 14.056 C 444.785 13.758 436.629 13.539 428.474 13.539 C 421.525 13.539 414.578 13.698 407.603 14.104 L 407.603 14.104 C 406.067 14.192 404.533 14.287 403 14.387 C 389.708 15.248 376.53 16.45 363.161 17.076 C 359.909 17.229 356.657 17.286 353.407 17.286 Z " fill="rgb(75,124,70)"/><path d=" M 608.82 13.234 C 601.833 13.234 594.842 13.062 587.898 12.817 C 575.756 12.391 563.462 11.548 551.235 11.548 C 548.385 11.548 545.54 11.594 542.7 11.701 C 540.468 11.785 538.247 11.897 536.031 12.028 C 540.122 11.601 544.226 11.209 548.417 11.039 C 550.605 10.95 552.796 10.912 554.989 10.912 C 559.582 10.912 564.179 11.078 568.744 11.29 C 583.27 11.97 597.779 12.775 612.402 12.775 C 612.419 12.775 612.438 12.775 612.455 12.775 C 619.537 12.772 626.595 12.583 633.546 11.928 C 640.305 11.295 647.017 10.403 653.645 9.515 C 657.953 8.94 662.261 8.331 666.696 8.004 L 666.696 10.043 C 666.666 10.043 666.636 10.043 666.606 10.043 C 662.609 10.046 658.629 10.14 654.618 10.438 C 647.316 10.975 640.149 11.827 632.859 12.39 C 624.916 13.005 616.871 13.234 608.82 13.234 Z " fill="rgb(75,124,70)"/><path d=" M 654.618 8.438 C 647.316 8.975 640.149 9.827 632.859 10.39 C 618.023 11.538 602.843 11.343 587.898 10.817 C 572.926 10.291 557.725 9.133 542.7 9.701 C 528.429 10.24 514.53 11.897 500.328 12.651 C 485.298 13.45 470.251 12.801 455.228 12.258 C 440.044 11.707 425.008 11.425 409.848 12.306 C 394.988 13.165 380.317 14.58 365.406 15.278 C 355.084 15.763 344.771 15.29 334.451 15.056 L 334.451 28.04 L 668.903 28.04 L 668.903 8.05 C 664.132 8.018 659.396 8.083 654.618 8.438 Z " fill="rgb(122,192,82)"/><path d=" M 394.331 17.989 C 394.027 17.989 393.723 17.987 393.419 17.984 C 395.386 17.756 397.373 17.568 399.234 17.188 C 399.377 17.158 399.317 17.045 399.166 17.045 C 399.16 17.045 399.155 17.045 399.149 17.045 C 395.539 17.232 391.917 17.357 388.292 17.357 C 386.48 17.357 384.668 17.326 382.855 17.256 C 385.18 17.062 387.438 16.722 389.509 16.189 C 389.643 16.154 389.594 16.046 389.437 16.046 C 389.433 16.046 389.429 16.046 389.425 16.046 C 388.784 16.069 388.136 16.077 387.481 16.083 C 389.075 15.912 390.66 15.717 392.238 15.512 C 396.567 15.19 400.901 14.87 405.245 14.589 C 406.778 14.489 408.312 14.395 409.848 14.306 L 409.848 14.306 C 416.823 13.9 423.77 13.741 430.719 13.741 C 438.874 13.741 447.03 13.96 455.228 14.258 L 455.228 14.258 C 464.319 14.586 473.417 14.954 482.517 15.016 C 482.519 15.016 482.52 15.016 482.522 15.016 C 482.553 15.016 482.585 15.016 482.616 15.017 C 482.627 15.017 482.637 15.017 482.648 15.017 C 482.671 15.017 482.696 15.017 482.719 15.017 C 482.738 15.017 482.756 15.018 482.774 15.018 C 482.791 15.018 482.807 15.018 482.824 15.018 C 482.853 15.018 482.881 15.018 482.91 15.018 C 482.916 15.019 482.924 15.019 482.93 15.019 C 483.049 15.019 483.168 15.02 483.287 15.021 C 481.798 15.175 480.299 15.312 478.79 15.425 C 476.404 15.602 473.965 15.714 471.533 15.714 C 469.501 15.714 467.473 15.635 465.485 15.45 C 464.981 15.375 464.463 15.318 463.922 15.281 C 463.911 15.281 463.902 15.28 463.892 15.28 C 463.704 15.28 463.628 15.403 463.832 15.431 C 464.351 15.495 464.871 15.551 465.397 15.599 C 465.97 15.687 466.521 15.808 467.03 15.961 C 462.623 15.896 458.205 15.88 453.814 15.664 C 453.807 15.664 453.799 15.663 453.792 15.663 C 453.615 15.663 453.609 15.788 453.773 15.813 C 454.33 15.903 454.879 16.008 455.418 16.116 C 448.187 15.786 440.929 15.582 433.655 15.582 C 432.942 15.582 432.227 15.584 431.513 15.588 C 431.328 15.588 431.279 15.719 431.47 15.737 C 432.824 15.866 434.154 16.034 435.483 16.213 C 434.926 16.217 434.367 16.219 433.808 16.219 C 433.172 16.219 432.534 16.217 431.897 16.215 C 431.259 16.213 430.621 16.211 429.982 16.211 C 427.285 16.211 424.592 16.249 421.943 16.485 C 417.611 16.871 413.366 17.647 408.909 17.66 C 409.575 17.458 410.281 17.295 410.972 17.112 C 411.129 17.07 411.041 16.969 410.885 16.969 C 410.872 16.969 410.858 16.97 410.844 16.972 C 405.398 17.508 399.904 17.989 394.331 17.989 Z " fill="rgb(145,200,95)"/><path d=" M 498.04 19.09 C 494.295 18.744 490.602 18.291 487.03 17.655 C 489.014 17.628 490.999 17.509 492.801 17.112 C 492.958 17.079 492.878 16.969 492.719 16.969 C 491.039 16.966 489.347 16.901 487.778 16.618 C 492.347 16.265 496.976 16.091 501.483 15.585 C 501.671 15.563 501.628 15.434 501.437 15.434 C 499.728 15.441 498.025 15.553 496.321 15.553 C 496.13 15.553 495.939 15.552 495.748 15.549 C 500.272 15.103 504.756 14.575 509.254 14.075 C 513.008 13.797 516.752 13.485 520.496 13.177 C 527.86 12.573 535.229 11.984 542.7 11.701 C 545.54 11.594 548.385 11.548 551.235 11.548 C 563.462 11.548 575.756 12.391 587.898 12.817 C 590.872 12.924 593.857 13.014 596.847 13.084 C 598.746 13.335 600.665 13.557 602.57 13.796 C 600.65 13.909 598.721 13.941 596.788 13.941 C 595.52 13.941 594.25 13.927 592.981 13.913 C 591.712 13.899 590.444 13.886 589.177 13.886 C 588.55 13.886 587.923 13.889 587.297 13.897 C 587.108 13.899 587.066 14.024 587.251 14.049 C 589.232 14.312 591.323 14.302 593.308 14.545 C 588.079 14.74 582.82 14.801 577.693 15.359 C 577.506 15.38 577.549 15.51 577.739 15.51 C 579.596 15.507 581.459 15.467 583.321 15.444 C 576.639 16.111 570.249 17.26 563.709 18.161 C 564.476 17.993 565.221 17.802 565.919 17.571 C 566.03 17.532 566.018 17.429 565.854 17.429 C 565.847 17.429 565.839 17.429 565.832 17.43 C 559.734 17.729 553.732 18.348 547.625 18.614 C 548.81 18.4 550.014 18.213 551.16 17.957 C 551.33 17.92 551.221 17.821 551.078 17.813 C 549.808 17.737 548.533 17.706 547.255 17.706 C 542.843 17.706 538.396 18.079 534.05 18.302 C 528.84 18.565 523.595 18.671 518.383 18.926 C 519.58 18.774 520.772 18.614 521.942 18.423 C 522.11 18.396 522.097 18.274 521.903 18.274 C 521.901 18.274 521.899 18.274 521.896 18.274 C 520.323 18.293 518.749 18.303 517.176 18.303 C 512.429 18.303 507.682 18.217 502.948 18.044 C 502.942 18.044 502.935 18.044 502.929 18.044 C 502.727 18.044 502.745 18.185 502.948 18.198 C 504.153 18.271 505.345 18.387 506.526 18.517 C 503.797 18.907 500.908 19.063 498.04 19.09 Z " fill="rgb(145,200,95)"/><path d=" M 666.606 10.043 C 666.636 10.043 666.666 10.043 666.696 10.043 L 666.696 10.043 C 666.666 10.043 666.636 10.043 666.606 10.043 Z " fill="rgb(61,106,64)"/><path d=" M 541.231 23.403 C 537.236 23.403 533.258 23.324 529.282 23.183 C 529.285 23.184 529.287 23.184 529.29 23.185 C 523.592 22.982 517.916 22.654 512.257 22.263 C 512.263 22.264 512.268 22.265 512.273 22.266 C 507.91 21.964 503.559 21.622 499.216 21.27 C 484.755 20.098 470.239 18.788 455.528 18.511 C 453.246 18.468 450.96 18.449 448.676 18.449 C 435.477 18.449 422.262 19.091 409.113 19.47 C 402.592 19.659 396.086 19.798 389.596 19.798 C 381.225 19.798 372.877 19.567 364.538 18.917 C 363.894 18.866 363.25 18.815 362.607 18.762 C 362.608 18.762 362.61 18.762 362.612 18.762 C 361.119 18.641 359.627 18.515 358.135 18.387 C 353.042 17.951 347.951 17.493 342.841 17.13 C 342.824 17.129 342.809 17.128 342.792 17.126 C 342.786 17.126 342.778 17.125 342.772 17.125 C 341.483 17.034 340.194 16.948 338.903 16.871 L 338.903 16.81 C 345.223 16.971 351.54 17.188 357.859 17.188 C 361.109 17.188 364.361 17.131 367.613 16.978 C 371.585 16.793 375.544 16.557 379.493 16.292 C 379.329 16.318 379.379 16.437 379.557 16.437 C 381.416 16.435 383.277 16.393 385.136 16.373 C 380.18 16.885 375.234 17.448 370.169 17.668 C 369.991 17.672 369.923 17.799 370.123 17.817 C 371.024 17.894 371.927 17.911 372.832 17.911 C 373.253 17.911 373.676 17.907 374.098 17.904 C 372.746 18.082 371.346 18.171 369.954 18.284 C 369.794 18.298 369.794 18.418 369.954 18.429 C 375.103 18.877 380.34 18.99 385.575 19.005 C 387.093 19.008 388.613 19.011 390.135 19.011 C 393.955 19.011 397.782 18.993 401.591 18.924 C 412.535 18.728 423.392 17.971 434.297 17.554 C 440.605 17.314 446.938 17.2 453.271 17.2 C 457.66 17.2 462.048 17.254 466.427 17.36 C 477.09 17.614 487.433 18.643 497.832 19.689 C 501.952 20.106 506.078 20.512 510.231 20.846 C 512.219 21.006 514.208 21.147 516.205 21.267 C 517.136 21.324 518.067 21.376 519 21.42 C 518.445 21.449 517.892 21.476 517.342 21.505 C 517.188 21.514 517.096 21.609 517.255 21.648 C 518.962 22.074 520.955 22.165 522.86 22.229 C 525.2 22.305 527.547 22.354 529.891 22.396 C 532.594 22.448 535.292 22.48 537.991 22.48 C 540.647 22.48 543.303 22.449 545.961 22.375 C 554.718 22.135 570.201 20.685 571.02 20.685 C 571.06 20.685 571.065 20.688 571.031 20.696 C 570.881 20.73 570.948 20.84 571.106 20.84 C 571.108 20.84 571.111 20.84 571.114 20.839 C 575.462 20.778 579.491 19.997 583.544 19.316 C 583.186 19.448 582.839 19.589 582.508 19.734 C 582.397 19.785 582.493 19.868 582.631 19.868 C 582.645 19.868 582.66 19.867 582.675 19.865 C 583.995 19.715 585.316 19.557 586.634 19.397 C 588.535 19.276 590.392 18.998 592.225 18.683 C 599.453 17.727 606.631 16.682 613.901 15.795 C 621.86 14.821 629.902 13.968 638.024 13.333 C 641.738 13.148 645.434 12.798 649.173 12.736 C 653.326 12.668 657.493 12.607 661.648 12.607 C 661.747 12.607 661.846 12.607 661.944 12.607 C 663.384 12.607 664.831 12.589 666.263 12.511 C 667.132 12.464 668.075 12.402 668.903 12.242 L 668.903 13.466 C 668.292 13.465 667.68 13.464 667.069 13.464 C 662.02 13.464 656.961 13.524 651.91 13.662 C 651.914 13.662 651.918 13.662 651.923 13.663 C 643.501 13.893 635.111 14.338 626.849 15.077 C 617.684 15.896 608.688 17.025 599.712 18.191 C 599.713 18.19 599.714 18.19 599.714 18.19 C 599.404 18.23 599.093 18.271 598.783 18.311 C 593.9 18.946 589.021 19.59 584.122 20.197 C 580.914 20.594 577.69 20.977 574.451 21.332 C 574.453 21.331 574.455 21.33 574.457 21.329 C 563.671 22.514 552.713 23.382 541.595 23.403 L 541.595 23.403 L 541.595 23.403 L 541.595 23.403 C 541.474 23.403 541.352 23.403 541.231 23.403 Z  M 668.903 10.624 C 668.88 10.617 668.857 10.611 668.834 10.605 C 667.403 10.233 665.643 10.106 664.039 10.007 C 663.126 9.951 662.213 9.916 661.296 9.886 C 663.802 9.786 666.305 9.745 668.813 9.742 C 668.843 9.742 668.873 9.742 668.903 9.742 L 668.903 10.624 Z " fill="rgb(89,162,80)"/><path d=" M 624.642 13.377 C 610.174 14.671 596.129 16.735 581.915 18.497 C 568.028 20.216 553.842 21.678 539.388 21.703 C 525.126 21.729 511.018 20.707 497.009 19.57 C 482.548 18.398 468.032 17.088 453.321 16.812 C 437.849 16.519 422.33 17.326 406.906 17.771 C 391.973 18.203 377.135 18.372 362.331 17.217 C 353.044 16.49 343.795 15.534 334.451 15.045 L 334.451 28.04 L 668.903 28.04 L 668.903 11.776 C 654.112 11.687 639.175 12.077 624.642 13.377 Z " fill="rgb(173,205,69)"/><path d=" M 527.092 23.487 C 521.396 23.285 515.722 22.959 510.066 22.566 C 510.061 22.565 510.056 22.564 510.05 22.563 C 515.709 22.955 521.385 23.283 527.083 23.485 C 527.086 23.485 527.089 23.486 527.092 23.487 Z  M 360.4 19.063 C 358.908 18.941 357.418 18.815 355.928 18.688 C 357.42 18.815 358.912 18.941 360.405 19.063 C 360.403 19.063 360.401 19.063 360.4 19.063 Z  M 596.576 18.612 C 596.886 18.571 597.197 18.531 597.507 18.49 C 597.507 18.49 597.506 18.491 597.505 18.491 C 597.195 18.531 596.886 18.571 596.576 18.612 Z " fill="rgb(83,154,79)"/><path d=" M 649.716 13.963 C 649.711 13.963 649.707 13.962 649.703 13.962 C 654.754 13.824 659.813 13.764 664.862 13.764 C 665.473 13.764 666.085 13.765 666.696 13.767 L 666.696 13.767 C 666.101 13.765 665.507 13.764 664.912 13.764 C 659.85 13.764 654.777 13.825 649.716 13.963 Z " fill="rgb(83,154,79)"/><path d=" M 623.58 27.47 L 573.696 27.47 C 574.145 27.391 574.612 27.336 575.08 27.28 C 573.17 27.226 571.246 27.266 569.339 27.19 C 567.562 27.122 565.394 27.03 564.064 26.421 C 563.981 26.385 564.012 26.304 564.137 26.292 C 570.457 25.797 576.6 24.96 582.609 23.944 C 581.942 23.909 581.272 23.897 580.602 23.897 C 579.855 23.897 579.106 23.912 578.358 23.927 C 577.611 23.942 576.864 23.957 576.12 23.957 C 574.681 23.957 573.253 23.901 571.851 23.68 C 571.728 23.659 571.668 23.567 571.81 23.539 C 572.63 23.376 573.489 23.251 574.299 23.078 C 573.579 23.091 572.859 23.117 572.141 23.117 C 571.445 23.117 570.751 23.093 570.063 23.012 C 569.885 22.991 569.92 22.892 570.063 22.864 C 573.173 22.27 576.693 22.107 579.614 21.316 C 577.936 21.285 576.254 21.308 574.579 21.224 C 574.421 21.215 574.382 21.146 574.451 21.103 C 577.69 20.748 580.914 20.364 584.122 19.967 C 589.02 19.361 593.899 18.718 598.783 18.082 C 599.093 18.041 599.402 18.001 599.712 17.961 C 595.009 19.006 589.942 19.685 584.927 20.358 C 584.744 20.383 584.787 20.504 584.974 20.506 C 585.181 20.511 585.387 20.514 585.594 20.514 C 586.529 20.514 587.457 20.465 588.382 20.408 C 584.925 20.994 581.562 21.7 577.999 22.149 C 577.814 22.172 577.857 22.295 578.045 22.298 C 578.23 22.302 578.415 22.304 578.6 22.304 C 580.149 22.304 581.682 22.186 583.224 22.121 C 581.756 22.47 580.136 22.662 578.628 22.977 C 578.471 23.007 578.56 23.118 578.715 23.118 C 578.846 23.119 578.978 23.119 579.11 23.119 C 583.947 23.119 588.644 22.538 593.418 22.25 C 591.773 22.619 590.089 22.945 588.467 23.333 C 588.328 23.367 588.381 23.477 588.537 23.477 C 588.542 23.477 588.547 23.477 588.552 23.477 C 589.915 23.414 591.196 23.178 592.535 23.064 C 586.686 24.836 579.9 25.799 573.08 26.448 C 572.884 26.467 572.949 26.59 573.124 26.6 C 573.609 26.617 574.092 26.625 574.572 26.625 C 580.413 26.625 585.894 25.45 591.647 25.097 C 590.802 25.37 589.866 25.581 589.104 25.904 C 588.98 25.957 589.099 26.034 589.241 26.034 C 589.25 26.034 589.258 26.033 589.266 26.033 C 594.181 25.67 598.494 24.464 603.243 23.851 C 602.501 24.2 601.611 24.47 600.764 24.764 C 600.647 24.807 600.66 24.88 600.805 24.906 C 601.447 25.016 602.126 25.054 602.81 25.054 C 603.539 25.054 604.276 25.011 604.982 24.964 C 606.779 24.846 608.577 24.68 610.366 24.531 C 612.635 24.346 614.883 24.11 617.117 23.842 C 616.994 23.879 616.875 23.914 616.752 23.946 C 616.634 23.981 616.64 24.074 616.792 24.087 C 617.648 24.163 618.5 24.196 619.349 24.196 C 622.747 24.196 626.087 23.671 629.346 23.254 C 633.327 22.746 637.482 22.403 641.178 21.519 C 641.3 21.494 641.283 21.39 641.14 21.379 C 640.741 21.351 640.344 21.34 639.947 21.34 C 639.063 21.34 638.182 21.396 637.299 21.45 C 640.658 21.114 644.139 21.033 647.401 20.504 C 647.561 20.478 647.559 20.383 647.401 20.358 C 646.103 20.143 644.705 20.069 643.291 20.069 C 642.37 20.069 641.441 20.101 640.53 20.144 C 643.685 19.733 646.889 19.372 650.159 19.244 C 653.136 19.128 655.852 18.638 659.179 18.451 C 659.334 18.442 659.263 18.332 659.137 18.309 C 657.727 18.066 656.277 18.011 654.813 18.011 C 654.207 18.011 653.598 18.02 652.989 18.03 C 652.38 18.039 651.77 18.048 651.162 18.048 C 650.392 18.048 649.624 18.033 648.862 17.984 C 654.773 16.488 661.787 16.518 668.192 15.744 C 668.341 15.727 668.347 15.64 668.232 15.606 C 665.624 14.777 662.416 14.428 659.357 14.127 C 656.889 13.883 654.412 13.633 651.923 13.433 C 656.984 13.295 662.057 13.234 667.119 13.234 C 667.714 13.234 668.308 13.235 668.903 13.237 L 668.903 16.921 C 667.48 17.036 666.075 17.197 664.709 17.403 C 665.935 17.541 667.205 17.576 668.416 17.748 C 668.544 17.763 668.595 17.857 668.457 17.887 C 666.825 18.226 665.058 18.428 663.5 18.836 C 665.229 19.131 667.238 18.798 668.903 19.224 L 668.903 19.371 C 668.372 19.515 667.051 19.799 666.304 19.885 C 665.092 20.019 663.918 20.222 662.761 20.44 C 660.206 20.915 657.704 21.463 655.278 22.065 C 650.961 23.134 646.708 24.275 642.143 25.118 C 643.72 25.035 645.286 24.904 646.872 24.904 C 647.032 24.904 647.193 24.906 647.354 24.909 C 647.488 24.911 647.591 24.996 647.473 25.041 C 646.558 25.386 645.42 25.547 644.408 25.815 C 645.923 25.755 647.43 25.552 648.942 25.552 C 649.433 25.552 649.925 25.574 650.418 25.628 C 650.564 25.643 650.575 25.736 650.456 25.769 C 648.482 26.345 645.91 26.576 643.653 26.821 C 640.888 27.117 638.064 27.23 635.232 27.303 C 631.371 27.403 627.46 27.371 623.58 27.47 Z  M 493.731 27.47 L 374.651 27.47 C 374.47 27.458 374.289 27.447 374.108 27.434 C 369.552 27.127 364.409 27.03 360.523 25.769 C 360.425 25.736 360.406 25.665 360.523 25.637 C 362.498 25.122 364.614 24.748 366.783 24.447 C 366.479 24.432 366.175 24.425 365.872 24.425 C 364.938 24.425 364.009 24.487 363.078 24.549 C 362.147 24.611 361.215 24.673 360.276 24.673 C 359.978 24.673 359.68 24.666 359.38 24.652 C 359.215 24.644 359.149 24.555 359.295 24.508 C 360.127 24.256 360.975 24.014 361.873 23.817 C 360.096 23.877 358.313 23.933 356.53 23.933 C 356.213 23.933 355.897 23.931 355.58 23.927 C 353.414 23.898 351.36 23.747 349.248 23.539 C 346.453 23.265 342.814 23.012 340.926 21.918 C 340.865 21.882 340.853 21.82 340.96 21.797 C 343.827 21.198 347.153 21.41 350.232 21.26 C 349.377 21.106 348.511 20.97 347.667 20.804 C 347.532 20.777 347.578 20.678 347.71 20.665 C 348.8 20.548 349.903 20.518 351.016 20.509 C 348.254 20.026 345.421 19.629 342.677 19.122 C 342.531 19.097 342.505 18.998 342.677 18.974 C 344.413 18.746 346.226 18.796 348.001 18.69 C 347.283 18.476 346.382 18.408 345.658 18.194 C 345.531 18.156 345.557 18.076 345.694 18.054 C 347.972 17.694 350.364 17.694 352.742 17.694 C 349.528 17.418 346.31 17.149 343.085 16.918 C 348.113 17.278 353.124 17.729 358.135 18.158 C 359.625 18.285 361.115 18.411 362.607 18.533 C 362.384 18.538 362.159 18.542 361.935 18.546 C 358.139 18.606 354.341 18.653 350.548 18.718 C 350.375 18.718 350.324 18.816 350.461 18.859 C 352.512 19.499 354.904 19.833 357.307 20.092 C 356.523 20.144 355.755 20.231 354.975 20.306 C 354.785 20.323 354.833 20.456 355.017 20.456 C 355.829 20.456 356.64 20.461 357.448 20.481 C 356.335 20.699 355.402 21.049 354.453 21.401 C 354.332 21.445 354.441 21.531 354.572 21.531 C 354.723 21.533 354.875 21.533 355.027 21.533 C 356.161 21.533 357.308 21.487 358.457 21.441 C 359.605 21.396 360.755 21.35 361.897 21.35 C 362.866 21.35 363.828 21.383 364.778 21.477 C 364.219 21.586 363.644 21.679 363.095 21.797 C 362.956 21.829 363.009 21.92 363.137 21.939 C 363.872 22.041 364.619 22.077 365.373 22.077 C 366.631 22.077 367.904 21.977 369.159 21.918 C 368.501 22.107 367.883 22.321 367.23 22.515 C 367.095 22.555 367.155 22.66 367.302 22.66 C 367.32 22.66 367.34 22.658 367.361 22.655 C 370.823 22.063 374.516 21.949 378.212 21.949 C 379.917 21.949 381.624 21.974 383.308 21.986 C 382.466 22.102 381.662 22.27 380.871 22.463 C 380.701 22.504 380.809 22.606 380.968 22.606 C 380.978 22.606 380.988 22.606 380.998 22.605 C 382.47 22.481 383.972 22.414 385.473 22.414 C 386.211 22.414 386.949 22.43 387.683 22.463 C 385.992 22.748 384.427 23.164 382.881 23.59 C 382.752 23.625 382.794 23.732 382.955 23.732 C 382.959 23.732 382.963 23.732 382.968 23.732 C 386.051 23.612 389.147 23.688 392.231 23.595 C 394.244 23.537 396.265 23.45 398.278 23.356 C 394.991 23.851 391.798 24.473 388.806 25.278 C 388.68 25.312 388.714 25.422 388.869 25.422 C 388.876 25.422 388.883 25.422 388.89 25.421 C 389.581 25.381 390.269 25.348 390.96 25.331 C 390.358 25.47 389.758 25.612 389.222 25.803 C 389.127 25.834 389.176 25.921 389.295 25.929 C 390.448 26.007 391.604 26.041 392.761 26.041 C 394.239 26.041 395.717 25.986 397.186 25.896 C 396.708 26.016 396.249 26.155 395.817 26.315 C 395.697 26.358 395.801 26.442 395.936 26.445 C 396.091 26.446 396.245 26.446 396.399 26.446 C 403.534 26.446 410.515 25.639 417.424 24.892 C 416.78 25.092 416.099 25.269 415.493 25.494 C 415.374 25.538 415.477 25.622 415.611 25.625 C 415.665 25.626 415.719 25.626 415.774 25.626 C 418.027 25.626 420.176 25.156 422.26 24.812 C 424.564 24.43 427.068 24.074 429.51 23.914 C 429.102 24.131 428.685 24.351 428.322 24.59 C 428.231 24.647 428.357 24.702 428.48 24.702 C 428.505 24.702 428.529 24.7 428.552 24.695 C 431.727 24.04 435.034 23.651 438.404 23.37 C 436.023 23.875 433.829 24.563 431.925 25.392 C 431.796 25.447 431.918 25.519 432.059 25.519 C 432.082 25.519 432.105 25.517 432.128 25.513 C 433.612 25.226 435.182 25.061 436.706 24.829 C 435.947 25.088 435.208 25.362 434.496 25.649 C 434.396 25.689 434.463 25.781 434.599 25.781 C 434.605 25.781 434.61 25.781 434.616 25.781 C 439.35 25.489 444.06 25.115 448.777 24.774 C 448.004 24.964 447.234 25.159 446.489 25.381 C 446.357 25.421 446.404 25.525 446.576 25.525 C 449.622 25.501 452.454 24.781 455.489 24.781 C 455.71 24.781 455.934 24.785 456.158 24.794 C 457.633 24.846 458.937 25.254 460.218 25.552 C 461.292 25.806 462.418 25.987 463.627 25.987 C 463.719 25.987 463.811 25.986 463.904 25.984 C 464.009 25.981 464.102 25.935 464.064 25.887 C 463.945 25.715 463.789 25.552 463.614 25.392 C 464.91 25.634 466.31 25.769 467.661 25.929 C 467.676 25.931 467.69 25.932 467.704 25.932 C 467.826 25.932 467.921 25.869 467.849 25.817 C 467.628 25.649 467.368 25.496 467.081 25.35 C 468.451 25.655 470.015 25.807 471.461 25.924 C 473.977 26.127 476.537 26.168 479.062 26.34 C 479.072 26.341 479.082 26.341 479.092 26.341 C 479.263 26.341 479.346 26.247 479.193 26.201 C 479.071 26.16 478.946 26.124 478.823 26.087 C 481.307 26.201 483.848 26.203 486.261 26.343 C 486.268 26.344 486.274 26.344 486.28 26.344 C 486.418 26.344 486.474 26.253 486.383 26.211 C 486.274 26.163 486.167 26.119 486.057 26.076 C 486.677 26.1 487.302 26.105 487.911 26.105 C 488.388 26.105 488.856 26.102 489.3 26.101 C 492.317 26.087 495.325 26.068 498.268 25.725 C 498.394 25.709 498.43 25.637 498.341 25.598 C 498.148 25.505 497.942 25.419 497.73 25.336 C 498.036 25.349 498.342 25.356 498.646 25.356 C 499.042 25.356 499.437 25.344 499.831 25.317 C 499.945 25.308 499.982 25.243 499.935 25.204 C 499.374 24.764 498.588 24.391 497.704 24.062 C 502.231 24.85 506.986 25.584 511.754 25.584 C 513.334 25.584 514.917 25.503 516.492 25.317 C 516.642 25.296 516.642 25.212 516.531 25.176 C 514.943 24.65 513.176 24.261 511.37 23.915 C 513.863 24.194 516.504 24.433 519.077 24.433 C 520.722 24.433 522.339 24.335 523.87 24.087 C 524.02 24.066 524.04 23.96 523.87 23.939 C 522.122 23.729 520.249 23.75 518.568 23.456 C 519.46 23.513 520.356 23.539 521.253 23.539 C 522.803 23.539 524.354 23.46 525.882 23.32 C 526.075 23.303 526.016 23.173 525.837 23.169 C 522.623 23.105 519.554 22.847 516.417 22.543 C 515.077 22.415 513.606 22.283 512.273 22.037 C 517.929 22.429 523.603 22.756 529.299 22.957 C 529.97 23.075 530.637 23.197 531.284 23.333 C 531.435 23.365 531.369 23.452 531.246 23.473 C 530.095 23.677 528.871 23.722 527.654 23.784 C 529.685 23.981 531.79 23.987 533.817 24.195 C 533.955 24.208 533.99 24.307 533.86 24.335 C 530.527 25.052 526.832 25.061 523.281 25.37 C 523.685 25.449 524.082 25.536 524.469 25.637 C 524.595 25.668 524.57 25.76 524.428 25.778 C 523.145 25.921 521.84 25.963 520.527 25.963 C 519.599 25.963 518.667 25.942 517.736 25.921 C 516.806 25.9 515.876 25.879 514.951 25.879 C 514.896 25.879 514.84 25.879 514.785 25.879 C 516.007 26.191 517.395 26.331 518.657 26.608 C 518.823 26.644 518.717 26.745 518.57 26.751 C 510.79 27.111 502.98 27.384 495.165 27.398 C 494.687 27.422 494.209 27.446 493.731 27.47 Z  M 343.078 16.917 C 343.064 16.916 343.052 16.915 343.039 16.914 C 343.051 16.915 343.065 16.916 343.078 16.917 Z " fill="rgb(158,195,73)"/><path d=" M 571.489 28 L 491.524 28 C 492.002 27.976 492.48 27.952 492.958 27.928 C 500.773 27.914 508.583 27.641 516.363 27.281 C 516.51 27.274 516.616 27.174 516.45 27.138 C 515.188 26.861 513.8 26.721 512.578 26.409 C 512.633 26.409 512.689 26.409 512.744 26.409 C 513.669 26.409 514.599 26.43 515.529 26.451 C 516.46 26.472 517.392 26.493 518.32 26.493 C 519.633 26.493 520.938 26.451 522.221 26.308 C 522.363 26.29 522.388 26.198 522.262 26.167 C 521.875 26.065 521.478 25.979 521.074 25.899 C 524.625 25.591 528.32 25.582 531.653 24.864 C 531.783 24.837 531.748 24.738 531.61 24.725 C 529.583 24.517 527.478 24.511 525.447 24.313 C 526.664 24.252 527.888 24.207 529.039 24.003 C 529.162 23.981 529.228 23.895 529.077 23.863 C 528.43 23.727 527.763 23.605 527.092 23.487 C 531.005 23.625 534.93 23.704 538.865 23.703 C 538.974 23.703 539.084 23.703 539.192 23.703 C 539.202 23.703 539.211 23.703 539.221 23.703 C 539.277 23.703 539.333 23.703 539.388 23.703 L 539.388 23.703 L 539.388 23.703 C 550.503 23.684 561.46 22.815 572.244 21.632 C 572.175 21.676 572.214 21.745 572.372 21.754 C 574.047 21.838 575.729 21.814 577.407 21.846 C 574.486 22.637 570.966 22.8 567.856 23.394 C 567.713 23.422 567.678 23.521 567.856 23.542 C 568.544 23.623 569.238 23.646 569.934 23.646 C 570.652 23.646 571.372 23.621 572.092 23.607 C 571.282 23.781 570.423 23.906 569.603 24.068 C 569.461 24.097 569.521 24.188 569.644 24.21 C 571.046 24.43 572.474 24.486 573.913 24.486 C 574.657 24.486 575.404 24.471 576.151 24.456 C 576.899 24.441 577.648 24.426 578.395 24.426 C 579.065 24.426 579.735 24.439 580.402 24.474 C 574.393 25.489 568.25 26.327 561.93 26.822 C 561.805 26.834 561.774 26.915 561.857 26.951 C 563.187 27.56 565.355 27.651 567.132 27.72 C 569.039 27.796 570.963 27.756 572.873 27.81 C 572.405 27.866 571.938 27.921 571.489 28 Z " fill="rgb(133,177,76)"/><path d=" M 370.199 23.487 L 334.451 23.487 L 334.451 12.658 C 335.484 12.72 336.516 12.787 337.547 12.858 C 337.556 12.858 337.565 12.859 337.574 12.86 C 337.594 12.861 337.614 12.862 337.634 12.864 C 337.654 12.865 337.674 12.867 337.694 12.868 C 337.7 12.868 337.706 12.869 337.711 12.869 C 338.003 12.889 338.294 12.91 338.586 12.931 C 338.599 12.932 338.612 12.933 338.625 12.934 C 338.628 12.934 338.63 12.934 338.632 12.934 C 341.858 13.166 345.076 13.434 348.29 13.71 C 345.912 13.71 343.52 13.71 341.242 14.071 C 341.105 14.092 341.079 14.172 341.206 14.21 C 341.93 14.424 342.831 14.492 343.549 14.706 C 341.773 14.813 339.96 14.762 338.225 14.99 C 338.053 15.015 338.079 15.113 338.225 15.139 C 340.969 15.646 343.802 16.042 346.563 16.526 C 345.451 16.534 344.348 16.565 343.258 16.681 C 343.126 16.695 343.08 16.793 343.215 16.82 C 344.059 16.987 344.925 17.122 345.78 17.277 C 342.701 17.426 339.375 17.214 336.508 17.814 C 336.401 17.836 336.413 17.899 336.474 17.934 C 338.362 19.029 342 19.281 344.796 19.555 C 346.908 19.763 348.962 19.914 351.128 19.944 C 351.445 19.947 351.761 19.949 352.078 19.949 C 353.861 19.949 355.644 19.893 357.42 19.833 C 356.522 20.031 355.675 20.273 354.843 20.525 C 354.697 20.571 354.763 20.66 354.928 20.668 C 355.228 20.683 355.526 20.689 355.824 20.689 C 356.762 20.689 357.695 20.627 358.626 20.565 C 359.556 20.503 360.486 20.441 361.42 20.441 C 361.723 20.441 362.027 20.448 362.331 20.463 C 360.162 20.764 358.046 21.139 356.071 21.654 C 355.954 21.682 355.973 21.752 356.071 21.785 C 359.956 23.046 365.1 23.144 369.656 23.45 C 369.837 23.463 370.018 23.475 370.199 23.487 Z " fill="rgb(133,177,76)"/><path d=" M 9.02 1.999 C 14.894 1.962 20.74 2.071 26.581 2.761 C 39.756 4.318 63.305 12.96 75.396 5.414 C 75.967 5.058 76.484 4.621 77.008 4.199 C 79.726 2.017 81.979 0.028 85.678 0 C 97.887 -0.089 114.376 8.897 126.871 8.812 C 143.678 8.697 154.334 6.838 171.15 5.506 C 174.339 5.253 177.84 4.949 181.077 5.16 C 199.893 6.387 219.969 13.985 238.907 10.652 C 244.77 9.62 250.608 8.878 256.462 8.088 C 259.933 7.619 261.785 7.609 265.479 7.762 C 265.479 7.762 274.188 8.447 274.188 8.447 C 284.976 12.139 294.238 13.011 303.15 11.251 C 312.836 9.338 322.179 4.61 334.451 4.707 Q 357.802 9.951 334.451 4.707 L 334.451 28.041 L -0.001 28.041 L 0 0 C 4.008 0.016 5.013 2.028 9.02 1.999 L 9.02 1.999 Z " fill="rgb(102,160,78)"/><path d=" M 310.191 16.662 C 318.289 16.662 326.364 16.069 334.451 15.738 L 334.451 15.738 L 334.451 7.21 C 332.174 7.672 320.848 9.363 313.63 11.825 L 313.63 11.825 L 327.405 11.825 C 328.294 11.825 319.733 13.407 319.734 13.411 C 319.884 14.039 328.382 13.679 328.254 14.231 C 328.001 15.319 320.562 15.75 319.781 15.812 C 316.804 16.049 313.765 16.046 310.781 15.955 C 303.318 15.728 285.928 17.736 280.042 13.339 C 280.042 13.339 293.874 12.109 293.874 12.109 C 274.595 9.609 253.179 9.908 233.823 11.056 C 211.34 12.389 189.032 14.916 166.496 13.723 C 141.331 12.391 117.132 8.746 91.865 8.93 L 91.865 8.93 L 91.865 8.93 C 88.683 8.952 85.221 8.583 82.081 9.003 C 82.081 9.003 86.573 9.556 86.573 9.556 C 86.679 9.73 73.093 9.798 72.937 9.826 C 72.937 9.826 80.083 10.885 80.083 10.885 C 75.069 14.767 57.87 11.67 50.771 11.517 C 47.649 11.45 44.525 11.388 41.405 11.235 C 38.216 11.078 35.225 12.691 33.222 9.515 C 33.222 9.515 26.444 8.326 26.444 8.326 C 23.674 7.379 20.649 7.484 17.76 7.015 C -4.536 3.394 26.113 5.832 31.363 5.906 C 31.363 5.906 9.411 3.991 9.411 3.991 C 6.273 3.979 3.137 0.221 0 0.23 L -0.001 4.048 L -0.001 8.004 C 36.227 10.639 69.683 11.986 106.228 10.996 C 108.556 10.933 110.884 10.927 113.213 10.913 C 116.486 10.892 119.782 10.962 123.048 11.195 C 123.048 11.195 132.426 12.029 132.426 12.029 C 135.055 12.228 137.689 12.353 140.318 12.545 C 142.937 12.736 145.554 12.966 148.171 13.178 C 184.325 16.102 220.157 11.766 256.38 13.055 C 272.214 13.618 287.929 15.416 303.721 16.474 C 306.42 16.655 307.488 16.662 310.191 16.662 L 310.191 16.662 Z " fill="rgb(87,141,75)"/><path d=" M 315.494 17.287 C 323.92 17.287 326.028 17.123 334.451 16.908 L 334.451 16.908 L 334.451 15.536 C 297.641 17.06 261.282 11.373 224.44 12.59 C 221.108 12.701 217.778 12.83 214.448 12.976 C 211.122 13.121 207.798 13.305 204.473 13.464 C 204.473 13.464 182.366 14.805 182.366 14.805 C 193.278 15.985 205.367 14.437 215.919 14.056 L 215.919 14.056 L 215.919 14.056 C 231.042 13.508 246.181 13.226 261.298 14.104 L 261.298 14.104 L 261.298 14.104 C 279.358 15.147 297.389 17.287 315.494 17.287 L 315.494 17.287 Z " fill="rgb(75,124,70)"/><path d=" M 60.082 13.235 C 70.108 13.235 80.114 12.877 90.129 12.446 C 102.155 11.928 114.164 11.274 126.202 11.702 C 126.202 11.702 132.871 12.029 132.871 12.029 C 132.871 12.029 113.913 10.913 113.913 10.913 C 92.982 11.045 72.082 13.298 51.138 12.75 C 44.139 12.567 37.24 12.224 30.292 11.421 C 20.946 10.342 11.594 8.696 2.206 8.004 L 2.206 8.004 L 2.206 10.043 C 21.555 10.107 40.696 13.235 60.082 13.235 L 60.082 13.235 Z " fill="rgb(75,124,70)"/><path d=" M 14.284 8.438 C 51.846 11.201 88.702 8.348 126.202 9.702 C 165.026 11.103 203.163 11.563 242.036 11.746 C 270.337 11.879 298.374 15.899 326.711 15.262 C 329.291 15.204 331.871 15.115 334.451 15.056 L 334.451 15.056 L 334.451 28.041 L -0.001 28.041 L -0.001 8.05 C 4.765 8.018 9.528 8.085 14.284 8.438 L 14.284 8.438 Z " fill="rgb(122,192,82)"/><path d=" M 274.571 17.989 C 278.252 17.989 268.812 17.666 269.634 17.059 C 272.631 14.846 281.893 18.312 286.046 17.256 C 286.046 17.256 276.664 15.512 276.664 15.512 C 270.805 14.994 264.925 14.646 259.053 14.306 L 259.053 14.306 L 259.053 14.306 C 243.936 13.428 228.797 13.71 213.674 14.258 L 213.674 14.258 L 213.674 14.258 C 205.916 14.539 201.908 14.716 193.209 14.932 C 193.209 14.932 185.615 15.021 185.615 15.021 C 188.301 15.313 191.019 15.551 193.717 15.658 C 194.373 15.684 208.964 14.851 203.505 15.599 C 203.505 15.599 213.484 16.117 213.484 16.117 C 213.484 16.117 229.793 15.608 229.793 15.608 C 246.266 15.303 228.932 16.242 237.004 16.215 C 240.333 16.204 243.636 16.213 246.958 16.486 C 246.958 16.486 256.676 17.556 256.676 17.556 C 266.924 18.431 249.577 16.393 262.148 17.367 C 268.056 17.825 269.525 17.989 274.571 17.989 L 274.571 17.989 Z " fill="rgb(145,200,95)"/><path d=" M 170.862 19.09 C 173.223 18.872 183.51 17.823 180.383 17.624 C 168.515 16.867 193.839 17.739 174.24 16.178 C 174.24 16.178 166.64 15.466 166.64 15.466 C 166.64 15.466 174.317 15.623 174.317 15.623 C 170.236 14.045 159.971 14.115 156.372 13.784 C 151.349 13.322 146.322 12.904 141.292 12.53 C 135.69 12.114 131.524 11.91 126.202 11.702 C 121.623 11.523 122.25 11.536 117.667 11.548 C 115.462 11.555 113.257 11.538 111.054 11.583 C 108.666 11.632 106.281 11.75 103.894 11.832 C 101.245 11.923 98.596 12.014 95.947 12.103 C 91.92 12.238 78.044 12.575 72.055 13.084 C 72.055 13.084 66.364 13.905 66.364 13.905 C 69.883 16.588 78.625 10.781 81.728 13.915 C 81.728 13.915 75.594 14.545 75.594 14.545 C 75.594 14.545 91.32 15.389 91.32 15.389 C 82.953 15.833 77.662 14.306 100.306 17.455 C 105.738 18.21 107.071 17.759 116.72 18.37 C 134.379 19.487 93.915 17.474 128.282 17.893 C 136.868 17.998 145.661 18.683 154.213 19.136 C 154.213 19.136 146.856 18.391 146.856 18.391 C 153.918 17.364 162.406 18.175 169.377 18.048 C 169.377 18.048 162.376 18.517 162.376 18.517 C 162.11 18.959 170.075 19.083 170.862 19.09 L 170.862 19.09 L 170.862 19.09 Z " fill="rgb(145,200,95)"/><path d=" M 2.296 10.043 C 2.256 10.043 2.246 10.043 2.206 10.043 L 2.206 10.043 L 2.206 10.043 C 2.236 10.043 2.266 10.043 2.296 10.043 L 2.296 10.043 Z " fill="rgb(61,106,64)"/><path d=" M 127.671 23.404 C 129.665 23.404 131.66 23.401 133.655 23.364 C 135.643 23.328 137.631 23.244 139.62 23.184 C 139.62 23.184 148.148 22.819 148.148 22.819 C 208.806 19.538 269.382 20.51 329.999 16.871 L 329.999 16.871 L 329.999 16.81 C 326.839 16.891 323.68 17.017 320.52 17.08 C 317.361 17.143 314.201 17.171 311.042 17.189 C 306.998 17.211 305.329 17.159 301.289 16.979 C 301.289 16.979 283.766 16.373 283.766 16.373 C 283.766 16.373 298.895 17.791 298.895 17.791 C 296.086 22.742 294.012 12.088 299.048 18.308 C 299.068 18.334 299.069 18.382 299.048 18.408 C 296.848 21.085 283.157 19.016 278.767 19.012 C 272.216 19.005 265.66 18.978 259.113 18.708 C 253.666 18.482 248.223 18.166 242.777 17.91 C 240.054 17.782 237.33 17.656 234.605 17.555 C 201.238 16.321 166.862 21.901 139.011 22.396 C 122.817 22.684 97.962 17.578 86.271 19.868 C 81.288 20.844 69.544 17.696 65.86 17.205 C 44.379 14.343 21.069 16.302 -0.001 12.243 L -0.001 12.243 L -0.001 13.467 C 42.762 13.341 84.664 23.325 127.307 23.403 L 127.307 23.403 L 127.307 23.403 L 127.307 23.403 L 127.307 23.403 C 127.468 23.404 127.509 23.404 127.671 23.404 L 127.671 23.404 Z  M -0.001 10.624 C 6.612 8.787 9.95 9.743 -0.001 9.743 L -0.001 9.743 L -0.001 10.624 Z " fill-rule="evenodd" fill="rgb(89,162,80)"/><path d=" M 44.26 13.377 C 46.064 13.539 47.87 13.695 49.672 13.887 C 91.285 18.319 129.971 22.973 171.893 19.571 C 226.02 15.178 280.225 17.885 334.451 15.045 L 334.451 15.045 L 334.451 28.041 L -0.001 28.041 L -0.001 11.777 C 14.768 11.687 29.543 12.061 44.26 13.377 L 44.26 13.377 Z " fill="rgb(173,205,69)"/><path d=" M 141.81 23.487 C 144.636 23.387 173.033 21.892 150.355 23.119 L 141.81 23.487 L 141.81 23.487 Z  M 308.502 19.063 C 308.502 19.063 312.973 18.688 312.973 18.688 L 308.502 19.063 L 308.502 19.063 Z  M 72.326 18.612 C 71.199 18.465 71.197 18.465 72.326 18.612 L 72.326 18.612 Z " fill-rule="evenodd" fill="rgb(83,154,79)"/><path d=" M 19.186 13.963 C 19.186 13.963 2.206 13.767 2.206 13.767 L 2.206 13.767 L 2.206 13.767 C 7.869 13.751 13.524 13.809 19.186 13.963 L 19.186 13.963 Z " fill="rgb(83,154,79)"/><path d=" M 45.322 27.471 L 95.206 27.471 C 90.492 26.643 105.433 27.278 104.905 26.345 C 103.645 24.12 89.723 24.705 86.293 23.944 C 86.293 23.944 97.173 23.568 97.173 23.568 C 97.058 23.26 94.807 23.347 94.603 23.078 C 94.603 23.078 98.945 22.987 98.945 22.987 C 98.945 22.987 91.553 21.831 91.553 21.831 C 90.789 21.708 88.956 22.016 89.288 21.316 C 89.346 21.193 94.342 21.331 94.5 21.181 C 94.537 21.146 84.869 19.979 84.78 19.968 C 84.78 19.968 69.19 17.961 69.19 17.961 C 70.755 18.303 89.197 20.767 81.909 20.49 C 81.909 20.49 90.903 22.149 90.903 22.149 C 90.94 22.155 90.994 22.146 91.013 22.179 C 91.013 22.179 85.678 22.121 85.678 22.121 C 85.678 22.121 90.361 23.01 90.361 23.01 C 90.361 23.01 79.054 22.503 79.054 22.503 C 74.339 22.152 74.529 22.029 77.971 22.782 C 85.004 24.321 76.294 22.944 76.367 23.064 C 76.367 23.064 95.895 26.579 95.895 26.579 C 92.607 29.169 81.082 25.083 77.255 25.098 C 77.203 25.098 80.03 25.837 79.862 25.996 C 79.862 25.996 74.302 25.35 74.302 25.35 C 72.585 25.055 70.882 24.683 69.166 24.386 C 62.216 23.181 66.445 24.187 68.138 24.765 C 68.271 24.81 68.199 24.892 68.097 24.906 C 61.614 25.838 54.989 24.266 49.553 24.196 C 46.925 24.162 28.535 23.478 27.649 21.491 C 27.649 21.491 31.603 21.45 31.603 21.45 C 24.674 20.909 28.35 21.306 21.501 20.505 C 21.466 20.501 21.423 20.503 21.401 20.477 C 21.382 20.453 21.382 20.409 21.402 20.386 C 21.402 20.386 28.372 20.144 28.372 20.144 C 26.381 19.66 10.161 19.738 9.635 18.432 C 9.635 18.432 20.04 17.984 20.04 17.984 C 20.04 17.984 0.598 15.639 0.598 15.639 C 0.598 15.639 16.979 13.434 16.979 13.434 C 11.5 12.735 5.524 13.221 -0.001 13.237 L -0.001 13.237 L -0.001 16.921 C 0.047 16.925 4.129 17.269 4.193 17.403 C 4.325 17.685 0.161 17.326 0.365 17.857 C 0.365 17.857 5.402 18.836 5.402 18.836 C 5.402 18.836 -0.001 19.225 -0.001 19.225 L -0.001 19.225 L -0.001 19.371 C 8.385 21.646 19.034 21.187 26.759 25.118 C 26.759 25.118 21.362 24.954 21.362 24.954 C 21.156 25.182 24.59 25.789 24.494 25.815 C 24.494 25.815 19.96 25.553 19.96 25.553 C 19.714 25.545 19.468 25.551 19.223 25.563 C 18.976 25.576 18.73 25.603 18.484 25.629 C 18.452 25.632 18.414 25.628 18.391 25.65 C 18.37 25.67 18.36 25.71 18.373 25.737 C 18.895 26.883 23.904 26.7 25.249 26.821 C 31.933 27.426 38.617 27.3 45.322 27.471 L 45.322 27.471 Z  M 175.171 27.471 L 294.25 27.471 C 297.365 27.27 300.479 27.15 303.583 26.78 C 316.425 25.249 293.651 25.026 309.073 24.67 C 309.222 24.666 309.372 24.661 309.521 24.652 C 309.558 24.65 309.601 24.656 309.633 24.636 C 309.662 24.618 309.696 24.583 309.689 24.549 C 309.689 24.549 307.029 23.817 307.029 23.817 C 309.891 23.327 313.544 24.005 316.514 23.823 C 317.575 23.758 328.318 22.822 328.042 21.852 C 327.687 20.604 319.824 21.578 318.669 21.261 C 318.669 21.261 321.313 20.775 321.313 20.775 C 321.676 19.827 310.005 21.834 322.064 19.828 C 323.451 19.597 324.838 19.362 326.224 19.123 C 326.257 19.117 326.297 19.12 326.319 19.095 C 326.339 19.071 326.347 19.027 326.328 19.002 C 326.094 18.704 321.197 18.755 320.9 18.69 C 320.9 18.69 323.319 18.16 323.319 18.16 C 323.319 18.16 317.945 17.694 317.945 17.694 C 317.35 17.679 315.569 17.774 316.159 17.694 C 316.159 17.694 325.817 16.918 325.817 16.918 C 319.311 17.448 312.79 17.88 306.295 18.533 C 306.295 18.533 318.468 18.731 318.468 18.731 C 318.468 18.731 311.594 20.093 311.594 20.093 C 311.594 20.093 314.039 20.334 314.039 20.334 C 314.186 20.581 311.447 20.474 311.454 20.481 C 311.454 20.481 314.515 21.488 314.515 21.488 C 314.515 21.488 304.656 22.059 304.656 22.059 C 297.095 22.526 304.947 22.787 298.915 22.271 C 295.303 21.962 291.744 21.936 288.131 21.962 C 285.733 21.979 290.646 22.237 282.321 22.423 C 281.953 22.431 280.876 22.33 281.219 22.464 C 281.219 22.464 286.052 23.719 286.052 23.719 C 282.584 26.207 274.521 21.646 270.624 23.356 C 270.624 23.356 278.976 25.365 278.976 25.365 C 276.483 25.257 279.164 25.612 279.68 25.804 C 279.712 25.816 279.767 25.849 279.75 25.878 C 278.927 27.286 271.638 26.486 269.831 26.421 C 264.512 26.229 262.413 26.017 256.668 25.46 C 246.164 24.441 259.152 26.805 248.213 25.086 C 246.773 24.86 237.62 22.452 240.58 24.591 C 240.58 24.591 240.421 24.702 240.421 24.702 C 237.317 25.065 233.641 22.633 230.498 23.37 C 230.498 23.37 237.044 25.484 237.044 25.484 C 236.544 25.959 232.818 24.787 232.195 24.83 C 230.835 24.924 251.212 27.01 227.197 25.302 C 203.017 23.583 223.442 24.865 222.439 25.512 C 220.105 27.018 214.816 24.346 211.659 24.878 C 211.659 24.878 201.821 25.351 201.821 25.351 C 194.126 26.052 186.689 26.102 180.991 26.106 C 177.956 26.108 171.305 25.439 171.172 25.337 C 171.172 25.337 171.198 24.062 171.198 24.062 C 168.165 24.159 155.241 28.196 152.316 25.294 C 152.316 25.294 157.532 23.916 157.532 23.916 C 157.532 23.916 144.928 23.966 144.928 23.966 C 147.069 21.258 152.988 24.172 143.02 23.32 C 142.981 23.317 142.925 23.327 142.906 23.294 C 142.906 23.294 156.629 22.037 156.629 22.037 C 153.794 22.144 150.968 22.44 148.136 22.593 C 141.194 22.968 142.174 22.458 138.598 23.136 C 136.811 23.476 144.454 23.51 135.085 24.195 C 135.054 24.198 135.017 24.195 134.994 24.216 C 134.971 24.237 134.953 24.276 134.965 24.306 C 134.965 24.306 144.474 25.778 144.474 25.778 C 144.474 25.778 154.117 25.88 154.117 25.88 C 154.117 25.88 150.154 26.644 150.154 26.644 C 150.154 26.644 167.876 27.356 167.876 27.356 C 170.372 27.411 172.727 27.345 175.171 27.471 L 175.171 27.471 Z  M 325.824 16.918 C 325.867 16.915 325.867 16.915 325.824 16.918 L 325.824 16.918 Z " fill-rule="evenodd" fill="rgb(158,195,73)"/><path d=" M 97.413 28 L 177.378 28 C 174.934 27.875 172.579 27.941 170.083 27.885 C 170.083 27.885 152.361 27.173 152.361 27.173 C 152.361 27.173 156.324 26.41 156.324 26.41 C 156.324 26.41 146.564 26.198 146.564 26.198 C 147.786 23.36 138.454 28.033 137.172 24.835 C 136.901 24.161 147.647 24.751 141.626 24.23 C 141.626 24.23 141.81 23.487 141.81 23.487 C 137.712 23.486 133.615 23.711 129.514 23.704 L 129.514 23.704 L 129.514 23.704 L 129.514 23.704 C 128.126 23.701 126.738 23.708 125.35 23.67 C 122.591 23.594 119.83 23.521 117.074 23.362 C 117.074 23.362 96.707 21.711 96.707 21.711 C 96.549 21.861 91.553 21.723 91.495 21.846 C 91.495 21.846 101.152 23.517 101.152 23.517 C 101.152 23.517 96.81 23.608 96.81 23.608 C 97.891 25.03 102.312 24.441 94.989 24.487 C 94.616 24.489 94.244 24.484 93.871 24.479 C 93.498 24.474 93.124 24.464 92.751 24.457 C 92.376 24.449 92.002 24.439 91.628 24.434 C 91.628 24.434 88.5 24.474 88.5 24.474 C 91.93 25.235 105.852 24.65 107.112 26.875 C 107.64 27.808 92.699 27.173 97.413 28 L 97.413 28 Z " fill="rgb(133,177,76)"/><path d=" M 298.702 23.487 L 334.451 23.487 L 334.451 12.658 C 329.855 12.934 325.147 13.098 320.611 13.711 C 320.611 13.711 327.771 14.177 327.771 14.177 C 327.399 14.995 321.174 14.422 328.034 14.788 C 328.034 14.788 330.78 15.018 330.78 15.018 C 331.484 15.914 317.766 16.257 324.002 16.55 C 324.002 16.55 323.121 17.277 323.121 17.277 C 324.276 17.594 332.139 16.62 332.494 17.868 C 332.771 18.838 322.027 19.774 320.967 19.839 C 317.996 20.021 314.344 19.344 311.481 19.834 C 311.481 19.834 314.142 20.565 314.142 20.565 C 314.169 20.7 308.027 20.45 307.481 20.442 C 307.329 20.44 307.178 20.442 307.026 20.445 C 306.874 20.449 306.421 20.436 306.57 20.463 C 317.994 22.552 309.498 22.743 302.736 23.247 C 301.401 23.346 300.045 23.4 298.702 23.487 L 298.702 23.487 Z " fill="rgb(133,177,76)"/></svg>