<?xml version="1.0" encoding="UTF-8" standalone="no"?><!-- Generator: Gravit.io --><svg xmlns="http://www.w3.org/2000/svg" xmlns:xlink="http://www.w3.org/1999/xlink" style="isolation:isolate" viewBox="33.01 420.82 1729.27 16.61" width="1729.27pt" height="16.61pt"><path d=" M 177.057 420.851 L 158.199 420.851 L 33.015 420.851 L 33.015 437.435 L 158.199 437.435 L 177.057 437.435 L 465.332 437.435 L 465.332 420.851 L 177.057 420.851 Z " fill="rgb(196,154,108)"/><path d=" M 103.511 432.404 C 101.415 435.434 97.94 436.662 95.752 435.146 C 93.563 433.631 93.487 429.948 95.584 426.92 C 97.68 423.89 101.154 422.662 103.343 424.177 C 105.532 425.691 105.607 429.375 103.511 432.404 Z " fill="rgb(169,124,80)"/><path d=" M 57.067 427.33 C 59.009 429.638 59.127 432.733 57.332 434.245 C 55.535 435.757 52.505 435.111 50.563 432.804 C 48.622 430.496 48.503 427.4 50.299 425.889 C 52.095 424.377 55.125 425.023 57.067 427.33 Z " fill="rgb(169,124,80)"/><path d=" M 66.553 433.281 C 67.597 434.521 67.66 436.184 66.695 436.996 C 65.73 437.809 64.102 437.461 63.058 436.222 C 62.015 434.982 61.951 433.318 62.917 432.506 C 63.881 431.694 65.51 432.04 66.553 433.281 Z " fill="rgb(169,124,80)"/><path d=" M 91.242 434.25 C 90.436 435.656 88.896 436.287 87.801 435.661 C 86.706 435.033 86.472 433.385 87.277 431.979 C 88.084 430.573 89.623 429.941 90.719 430.568 C 91.813 431.196 92.048 432.845 91.242 434.25 Z " fill="rgb(169,124,80)"/><path d=" M 134.769 433.038 C 133.963 434.444 132.423 435.075 131.329 434.449 C 130.234 433.822 130 432.174 130.805 430.769 C 131.611 429.361 133.151 428.73 134.246 429.357 C 135.34 429.984 135.575 431.633 134.769 433.038 Z " fill="rgb(169,124,80)"/><path d=" M 130.005 429.657 C 128.533 431.558 126.143 432.17 124.663 431.025 C 123.183 429.88 123.177 427.411 124.647 425.512 C 126.119 423.611 128.51 422.998 129.99 424.144 C 131.468 425.289 131.477 427.756 130.005 429.657 Z " fill="rgb(169,124,80)"/><path d=" M 151.141 429.005 C 153.314 430.857 153.906 433.729 152.464 435.421 C 151.023 437.113 148.093 436.981 145.921 435.132 C 143.748 433.278 143.154 430.406 144.596 428.715 C 146.037 427.023 148.967 427.152 151.141 429.005 Z " fill="rgb(169,124,80)"/><path d=" M 163.902 431.005 C 165.281 432.181 165.657 434.003 164.742 435.075 C 163.827 436.15 161.968 436.067 160.59 434.893 C 159.211 433.717 158.834 431.895 159.75 430.821 C 160.664 429.749 162.523 429.83 163.902 431.005 Z " fill="rgb(169,124,80)"/><path d=" M 247.649 432.404 C 245.552 435.434 242.079 436.662 239.89 435.146 C 237.7 433.631 237.625 429.948 239.722 426.92 C 241.818 423.89 245.292 422.662 247.481 424.177 C 249.67 425.691 249.745 429.375 247.649 432.404 Z " fill="rgb(169,124,80)"/><path d=" M 202.205 429.33 C 204.147 431.638 204.265 434.733 202.469 436.245 C 200.673 437.757 197.644 437.111 195.701 434.804 C 193.76 432.496 193.641 429.4 195.438 427.889 C 197.233 426.377 200.263 427.023 202.205 429.33 Z " fill="rgb(169,124,80)"/><path d=" M 210.691 433.281 C 211.734 434.521 211.798 436.184 210.833 436.996 C 209.868 437.809 208.24 437.461 207.196 436.222 C 206.153 434.982 206.089 433.318 207.055 432.506 C 208.02 431.694 209.647 432.04 210.691 433.281 Z " fill="rgb(169,124,80)"/><path d=" M 235.379 434.25 C 234.573 435.656 233.034 436.287 231.939 435.661 C 230.844 435.033 230.61 433.385 231.416 431.979 C 232.222 430.573 233.762 429.941 234.856 430.568 C 235.951 431.196 236.186 432.845 235.379 434.25 Z " fill="rgb(169,124,80)"/><path d=" M 280.906 435.038 C 280.102 436.444 278.562 437.075 277.466 436.449 C 276.372 435.822 276.138 434.174 276.943 432.769 C 277.749 431.361 279.289 430.73 280.385 431.357 C 281.479 431.984 281.714 433.633 280.906 435.038 Z " fill="rgb(169,124,80)"/><path d=" M 274.144 429.657 C 272.671 431.558 270.28 432.17 268.802 431.025 C 267.321 429.88 267.315 427.411 268.785 425.512 C 270.257 423.611 272.648 422.998 274.128 424.144 C 275.606 425.289 275.614 427.756 274.144 429.657 Z " fill="rgb(169,124,80)"/><path d=" M 295.279 429.005 C 297.452 430.857 298.044 433.729 296.603 435.421 C 295.16 437.113 292.231 436.981 290.059 435.132 C 287.886 433.278 287.292 430.406 288.733 428.715 C 290.175 427.023 293.105 427.152 295.279 429.005 Z " fill="rgb(169,124,80)"/><path d=" M 309.041 430.005 C 310.419 431.181 310.795 433.003 309.879 434.075 C 308.965 435.15 307.105 435.067 305.729 433.893 C 304.35 432.717 303.973 430.895 304.888 429.821 C 305.801 428.749 307.661 428.83 309.041 430.005 Z " fill="rgb(169,124,80)"/><path d=" M 321.194 420.851 L 318.508 420.851 L 177.057 420.851 L 175.522 420.851 L 33.015 420.851 L 33.015 431.857 C 34.025 431.898 35.129 432.066 36.199 432.067 C 39.369 432.069 42.843 432.005 45.658 431.182 C 48.769 430.272 49.069 428.343 53.299 428.437 C 56.191 428.5 58.399 429.605 61.06 430.032 C 64.311 430.552 67.669 430.655 70.471 429.764 C 72.852 429.006 74.142 427.612 77.151 427.355 C 79.851 427.123 80.729 429.101 83.778 429.159 C 90.034 429.282 92.886 427.921 94.705 427.47 C 98.811 426.45 102.284 426.005 106.018 426.752 C 110.786 427.708 106.656 431.483 111.625 431.214 C 118.305 430.852 122.605 426.977 127.729 426.873 C 133.693 426.752 135.474 428.201 139.657 428.8 C 143.641 429.371 144.7 427.835 148.699 428.467 C 151.954 428.982 154.554 430.688 158.199 430.707 C 160.241 430.719 160.771 429.774 167.841 430.116 C 170.99 430.296 170.197 431.807 177.057 431.942 C 178.067 431.984 179.267 432.066 180.337 432.067 C 183.507 432.069 186.981 432.005 189.796 431.182 C 192.907 430.272 193.207 428.343 197.438 428.437 C 200.329 428.5 202.537 429.605 205.198 430.032 C 208.449 430.552 211.807 430.655 214.608 429.764 C 216.99 429.006 218.279 427.612 221.289 427.355 C 223.988 427.123 224.867 429.101 227.916 429.159 C 234.172 429.282 237.024 427.921 238.843 427.47 C 242.949 426.45 246.422 426.005 250.156 426.752 C 254.924 427.708 250.793 431.483 255.762 431.214 C 262.442 430.852 266.743 426.977 271.866 426.873 C 277.83 426.752 279.612 428.201 283.795 428.8 C 287.779 429.371 288.838 427.835 292.836 428.467 C 296.092 428.982 298.692 430.688 302.337 430.707 C 304.379 430.719 304.908 429.774 311.979 430.116 C 315.128 430.296 314.336 431.807 321.194 431.942 L 321.194 431.895 C 322.3 431.967 323.703 432.066 324.475 432.067 C 327.646 432.069 331.119 432.005 333.934 431.182 C 337.045 430.272 337.345 428.343 341.576 428.437 C 344.467 428.5 346.676 429.605 349.335 430.032 C 352.587 430.552 355.945 430.655 358.747 429.764 C 361.128 429.006 362.417 427.612 365.427 427.355 C 368.126 427.123 369.005 429.101 372.054 429.159 C 378.31 429.282 381.162 427.921 382.981 427.47 C 387.087 426.45 390.56 426.005 394.294 426.752 C 399.062 427.708 394.932 431.483 399.899 431.214 C 406.58 430.852 410.882 426.977 416.003 426.873 C 421.968 426.752 423.749 428.201 427.932 428.8 C 431.917 429.371 432.976 427.835 436.974 428.467 C 440.229 428.982 442.83 430.688 446.476 430.707 C 448.517 430.719 449.046 429.774 456.117 430.116 C 459.266 430.296 458.474 431.807 465.332 431.942 L 465.332 420.851 L 321.194 420.851 Z " fill="rgb(169,124,80)"/><path d=" M 391.786 432.404 C 389.69 435.434 386.217 436.662 384.027 435.146 C 381.839 433.631 381.764 429.948 383.859 426.92 C 385.956 423.89 389.431 422.662 391.618 424.177 C 393.809 425.691 393.883 429.375 391.786 432.404 Z " fill="rgb(169,124,80)"/><path d=" M 346.343 429.33 C 348.285 431.638 348.403 434.733 346.607 436.245 C 344.812 437.757 341.781 437.111 339.839 434.804 C 337.897 432.496 337.779 429.4 339.576 427.889 C 341.371 426.377 344.4 427.023 346.343 429.33 Z " fill="rgb(169,124,80)"/><path d=" M 354.829 433.281 C 355.872 434.521 355.936 436.184 354.972 436.996 C 354.006 437.809 352.378 437.461 351.334 436.222 C 350.291 434.982 350.227 433.318 351.192 432.506 C 352.157 431.694 353.786 432.04 354.829 433.281 Z " fill="rgb(169,124,80)"/><path d=" M 379.518 434.25 C 378.711 435.656 377.172 436.287 376.077 435.661 C 374.981 435.033 374.749 433.385 375.554 431.979 C 376.359 430.573 377.899 429.941 378.995 430.568 C 380.089 431.196 380.323 432.845 379.518 434.25 Z " fill="rgb(169,124,80)"/><path d=" M 420.044 434.038 C 419.239 435.444 417.699 436.075 416.604 435.449 C 415.51 434.822 415.276 433.174 416.082 431.769 C 416.887 430.361 418.427 429.73 419.522 430.357 C 420.616 430.984 420.852 432.633 420.044 434.038 Z " fill="rgb(169,124,80)"/><path d=" M 418.281 429.657 C 416.809 431.558 414.419 432.17 412.939 431.025 C 411.459 429.88 411.454 427.411 412.923 425.512 C 414.395 423.611 416.786 422.998 418.266 424.144 C 419.744 425.289 419.752 427.756 418.281 429.657 Z " fill="rgb(169,124,80)"/><path d=" M 439.417 429.005 C 441.591 430.857 442.181 433.729 440.74 435.421 C 439.298 437.113 436.37 436.981 434.196 435.132 C 432.023 433.278 431.431 430.406 432.871 428.715 C 434.312 427.023 437.244 427.152 439.417 429.005 Z " fill="rgb(169,124,80)"/><path d=" M 449.178 432.005 C 450.558 433.181 450.932 435.003 450.017 436.075 C 449.104 437.15 447.243 437.067 445.866 435.893 C 444.486 434.717 444.11 432.895 445.025 431.821 C 445.938 430.749 447.799 430.83 449.178 432.005 Z " fill="rgb(169,124,80)"/><path d=" M 33.015 420.851 L 33.015 427.292 L 465 427.292 L 465 420.851 L 33.015 420.851 Z " fill="rgb(126,74,54)"/><path d=" M 609.374 420.851 L 590.516 420.851 L 465.332 420.851 L 465.332 437.435 L 590.516 437.435 L 609.374 437.435 L 897.649 437.435 L 897.649 420.851 L 609.374 420.851 Z " fill="rgb(196,154,108)"/><path d=" M 535.828 432.404 C 533.732 435.434 530.258 436.662 528.069 435.146 C 525.88 433.631 525.805 429.948 527.901 426.92 C 529.998 423.89 533.471 422.662 535.66 424.177 C 537.849 425.691 537.924 429.375 535.828 432.404 Z " fill="rgb(169,124,80)"/><path d=" M 490.384 429.33 C 492.326 431.638 492.445 434.733 490.649 436.245 C 488.853 437.757 485.823 437.111 483.881 434.804 C 481.939 432.496 481.821 429.4 483.617 427.889 C 485.412 426.377 488.442 427.023 490.384 429.33 Z " fill="rgb(169,124,80)"/><path d=" M 498.87 433.281 C 499.914 434.521 499.978 436.184 499.012 436.996 C 498.047 437.809 496.419 437.461 495.376 436.222 C 494.332 434.982 494.269 433.318 495.234 432.506 C 496.199 431.694 497.827 432.04 498.87 433.281 Z " fill="rgb(169,124,80)"/><path d=" M 523.559 434.25 C 522.753 435.656 521.213 436.287 520.118 435.661 C 519.024 435.033 518.79 433.385 519.595 431.979 C 520.401 430.573 521.941 429.941 523.036 430.568 C 524.13 431.196 524.365 432.845 523.559 434.25 Z " fill="rgb(169,124,80)"/><path d=" M 564.086 435.038 C 563.28 436.444 561.74 437.075 560.646 436.449 C 559.551 435.822 559.317 434.174 560.122 432.769 C 560.928 431.361 562.468 430.73 563.563 431.357 C 564.657 431.984 564.892 433.633 564.086 435.038 Z " fill="rgb(169,124,80)"/><path d=" M 562.322 429.657 C 560.85 431.558 558.46 432.17 556.98 431.025 C 555.5 429.88 555.494 427.411 556.964 425.512 C 558.436 423.611 560.827 422.998 562.307 424.144 C 563.785 425.289 563.794 427.756 562.322 429.657 Z " fill="rgb(169,124,80)"/><path d=" M 583.458 429.005 C 585.631 430.857 586.223 433.729 584.781 435.421 C 583.34 437.113 580.41 436.981 578.238 435.132 C 576.065 433.278 575.471 430.406 576.913 428.715 C 578.354 427.023 581.284 427.152 583.458 429.005 Z " fill="rgb(169,124,80)"/><path d=" M 593.219 430.005 C 594.598 431.181 594.974 433.003 594.059 434.075 C 593.144 435.15 591.285 435.067 589.907 433.893 C 588.528 432.717 588.151 430.895 589.067 429.821 C 589.981 428.749 591.84 428.83 593.219 430.005 Z " fill="rgb(169,124,80)"/><path d=" M 679.966 432.404 C 677.869 435.434 674.396 436.662 672.207 435.146 C 670.017 433.631 669.942 429.948 672.039 426.92 C 674.135 423.89 677.609 422.662 679.798 424.177 C 681.987 425.691 682.062 429.375 679.966 432.404 Z " fill="rgb(169,124,80)"/><path d=" M 634.522 429.33 C 636.464 431.638 636.582 434.733 634.786 436.245 C 632.99 437.757 629.961 437.111 628.018 434.804 C 626.077 432.496 625.958 429.4 627.755 427.889 C 629.55 426.377 632.58 427.023 634.522 429.33 Z " fill="rgb(169,124,80)"/><path d=" M 643.008 433.281 C 644.051 434.521 644.115 436.184 643.15 436.996 C 642.185 437.809 640.557 437.461 639.513 436.222 C 638.47 434.982 638.406 433.318 639.372 432.506 C 640.337 431.694 641.964 432.04 643.008 433.281 Z " fill="rgb(169,124,80)"/><path d=" M 667.696 434.25 C 666.89 435.656 665.351 436.287 664.256 435.661 C 663.161 435.033 662.927 433.385 663.733 431.979 C 664.539 430.573 666.079 429.941 667.173 430.568 C 668.268 431.196 668.503 432.845 667.696 434.25 Z " fill="rgb(169,124,80)"/><path d=" M 708.223 434.038 C 707.419 435.444 705.879 436.075 704.783 435.449 C 703.689 434.822 703.455 433.174 704.26 431.769 C 705.066 430.361 706.606 429.73 707.702 430.357 C 708.796 430.984 709.031 432.633 708.223 434.038 Z " fill="rgb(169,124,80)"/><path d=" M 706.461 429.657 C 704.988 431.558 702.597 432.17 701.119 431.025 C 699.638 429.88 699.632 427.411 701.102 425.512 C 702.574 423.611 704.965 422.998 706.445 424.144 C 707.923 425.289 707.931 427.756 706.461 429.657 Z " fill="rgb(169,124,80)"/><path d=" M 727.596 429.005 C 729.769 430.857 730.361 433.729 728.92 435.421 C 727.477 437.113 724.548 436.981 722.376 435.132 C 720.203 433.278 719.609 430.406 721.05 428.715 C 722.492 427.023 725.422 427.152 727.596 429.005 Z " fill="rgb(169,124,80)"/><path d=" M 739.358 431.005 C 740.736 432.181 741.112 434.003 740.196 435.075 C 739.282 436.15 737.422 436.067 736.046 434.893 C 734.667 433.717 734.29 431.895 735.205 430.821 C 736.118 429.749 737.978 429.83 739.358 431.005 Z " fill="rgb(169,124,80)"/><path d=" M 753.401 420.851 L 750.713 420.851 L 609.153 420.851 L 607.617 420.851 L 465 420.851 L 465 431.857 C 466.012 431.898 467.116 432.066 468.187 432.067 C 471.359 432.069 474.836 432.005 477.653 431.182 C 480.767 430.272 481.067 428.343 485.3 428.437 C 488.194 428.5 490.404 429.605 493.067 430.032 C 496.32 430.552 499.681 430.655 502.485 429.764 C 504.868 429.006 506.159 427.612 509.17 427.355 C 511.872 427.123 512.752 429.101 515.802 429.159 C 522.063 429.282 524.917 427.921 526.738 427.47 C 530.846 426.45 534.323 426.005 538.059 426.752 C 542.831 427.708 538.698 431.483 543.671 431.214 C 550.356 430.852 554.659 426.977 559.787 426.873 C 565.756 426.752 567.538 428.201 571.724 428.8 C 575.711 429.371 576.771 427.835 580.773 428.467 C 584.031 428.982 586.633 430.688 590.281 430.707 C 592.324 430.719 592.855 429.774 599.93 430.116 C 603.081 430.296 602.288 431.807 609.153 431.942 C 610.164 431.984 611.365 432.066 612.436 432.067 C 615.608 432.069 619.085 432.005 621.902 431.182 C 625.015 430.272 625.315 428.343 629.55 428.437 C 632.443 428.5 634.653 429.605 637.316 430.032 C 640.569 430.552 643.93 430.655 646.733 429.764 C 649.117 429.006 650.407 427.612 653.419 427.355 C 656.12 427.123 657 429.101 660.051 429.159 C 666.312 429.282 669.166 427.921 670.986 427.47 C 675.096 426.45 678.571 426.005 682.308 426.752 C 687.08 427.708 682.946 431.483 687.918 431.214 C 694.604 430.852 698.908 426.977 704.035 426.873 C 710.003 426.752 711.787 428.201 715.973 428.8 C 719.96 429.371 721.02 427.835 725.021 428.467 C 728.279 428.982 730.881 430.688 734.529 430.707 C 736.573 430.719 737.102 429.774 744.179 430.116 C 747.33 430.296 746.537 431.807 753.401 431.942 L 753.401 431.895 C 754.508 431.967 755.912 432.066 756.684 432.067 C 759.858 432.069 763.333 432.005 766.15 431.182 C 769.264 430.272 769.564 428.343 773.798 428.437 C 776.692 428.5 778.902 429.605 781.563 430.032 C 784.818 430.552 788.178 430.655 790.983 429.764 C 793.365 429.006 794.655 427.612 797.668 427.355 C 800.369 427.123 801.248 429.101 804.3 429.159 C 810.561 429.282 813.415 427.921 815.235 427.47 C 819.344 426.45 822.82 426.005 826.557 426.752 C 831.329 427.708 827.195 431.483 832.166 431.214 C 838.852 430.852 843.158 426.977 848.283 426.873 C 854.252 426.752 856.034 428.201 860.221 428.8 C 864.209 429.371 865.269 427.835 869.27 428.467 C 872.527 428.982 875.13 430.688 878.779 430.707 C 880.821 430.719 881.351 429.774 888.427 430.116 C 891.579 430.296 890.786 431.807 897.649 431.942 L 897.649 420.851 L 753.401 420.851 Z " fill="rgb(169,124,80)"/><path d=" M 824.103 432.404 C 822.007 435.434 818.534 436.662 816.344 435.146 C 814.156 433.631 814.081 429.948 816.176 426.92 C 818.273 423.89 821.748 422.662 823.935 424.177 C 826.126 425.691 826.2 429.375 824.103 432.404 Z " fill="rgb(169,124,80)"/><path d=" M 778.66 429.33 C 780.602 431.638 780.72 434.733 778.924 436.245 C 777.129 437.757 774.098 437.111 772.156 434.804 C 770.214 432.496 770.096 429.4 771.893 427.889 C 773.688 426.377 776.717 427.023 778.66 429.33 Z " fill="rgb(169,124,80)"/><path d=" M 787.146 433.281 C 788.189 434.521 788.253 436.184 787.289 436.996 C 786.323 437.809 784.695 437.461 783.651 436.222 C 782.608 434.982 782.544 433.318 783.509 432.506 C 784.474 431.694 786.103 432.04 787.146 433.281 Z " fill="rgb(169,124,80)"/><path d=" M 811.835 434.25 C 811.028 435.656 809.489 436.287 808.394 435.661 C 807.298 435.033 807.066 433.385 807.871 431.979 C 808.676 430.573 810.216 429.941 811.312 430.568 C 812.406 431.196 812.64 432.845 811.835 434.25 Z " fill="rgb(169,124,80)"/><path d=" M 855.361 435.038 C 854.556 436.444 853.016 437.075 851.921 436.449 C 850.827 435.822 850.593 434.174 851.399 432.769 C 852.204 431.361 853.744 430.73 854.839 431.357 C 855.933 431.984 856.169 433.633 855.361 435.038 Z " fill="rgb(169,124,80)"/><path d=" M 850.598 429.657 C 849.126 431.558 846.736 432.17 845.256 431.025 C 843.776 429.88 843.771 427.411 845.24 425.512 C 846.712 423.611 849.103 422.998 850.583 424.144 C 852.061 425.289 852.069 427.756 850.598 429.657 Z " fill="rgb(169,124,80)"/><path d=" M 871.734 429.005 C 873.908 430.857 874.498 433.729 873.057 435.421 C 871.615 437.113 868.687 436.981 866.513 435.132 C 864.34 433.278 863.748 430.406 865.188 428.715 C 866.629 427.023 869.561 427.152 871.734 429.005 Z " fill="rgb(169,124,80)"/><path d=" M 882.495 431.005 C 883.875 432.181 884.249 434.003 883.334 435.075 C 882.421 436.15 880.56 436.067 879.183 434.893 C 877.803 433.717 877.427 431.895 878.342 430.821 C 879.255 429.749 881.116 429.83 882.495 431.005 Z " fill="rgb(169,124,80)"/><path d=" M 465 420.851 L 465 427.292 L 897.649 427.292 L 897.649 420.851 L 465 420.851 Z " fill="rgb(126,74,54)"/><path d=" M 1041.692 420.822 L 1022.834 420.822 L 897.649 420.822 L 897.649 437.407 L 1022.834 437.407 L 1041.692 437.407 L 1329.967 437.407 L 1329.967 420.822 L 1041.692 420.822 Z " fill="rgb(196,154,108)"/><path d=" M 968.146 432.375 C 966.05 435.405 962.575 436.633 960.386 435.117 C 958.197 433.602 958.122 429.919 960.219 426.891 C 962.315 423.861 965.789 422.633 967.978 424.148 C 970.167 425.662 970.242 429.346 968.146 432.375 Z " fill="rgb(169,124,80)"/><path d=" M 921.702 427.301 C 923.644 429.609 923.762 432.704 921.966 434.216 C 920.17 435.728 917.14 435.082 915.198 432.775 C 913.256 430.467 913.138 427.371 914.934 425.86 C 916.73 424.348 919.759 424.994 921.702 427.301 Z " fill="rgb(169,124,80)"/><path d=" M 931.188 433.252 C 932.232 434.492 932.295 436.155 931.33 436.967 C 930.365 437.78 928.737 437.432 927.693 436.193 C 926.649 434.953 926.586 433.289 927.551 432.477 C 928.516 431.665 930.145 432.011 931.188 433.252 Z " fill="rgb(169,124,80)"/><path d=" M 955.877 434.221 C 955.07 435.627 953.531 436.258 952.436 435.632 C 951.341 435.004 951.107 433.356 951.912 431.95 C 952.718 430.544 954.258 429.912 955.354 430.539 C 956.448 431.167 956.683 432.816 955.877 434.221 Z " fill="rgb(169,124,80)"/><path d=" M 999.404 433.009 C 998.598 434.415 997.058 435.046 995.964 434.42 C 994.869 433.793 994.635 432.145 995.44 430.74 C 996.246 429.332 997.786 428.701 998.881 429.328 C 999.975 429.955 1000.21 431.604 999.404 433.009 Z " fill="rgb(169,124,80)"/><path d=" M 994.64 429.628 C 993.168 431.529 990.778 432.141 989.298 430.996 C 987.818 429.851 987.812 427.382 989.282 425.483 C 990.754 423.582 993.145 422.969 994.625 424.115 C 996.103 425.26 996.112 427.727 994.64 429.628 Z " fill="rgb(169,124,80)"/><path d=" M 1015.776 428.976 C 1017.949 430.828 1018.541 433.7 1017.099 435.392 C 1015.658 437.084 1012.728 436.952 1010.556 435.103 C 1008.383 433.249 1007.789 430.377 1009.231 428.686 C 1010.672 426.994 1013.602 427.123 1015.776 428.976 Z " fill="rgb(169,124,80)"/><path d=" M 1028.537 430.976 C 1029.916 432.152 1030.292 433.974 1029.377 435.046 C 1028.462 436.121 1026.603 436.038 1025.225 434.864 C 1023.846 433.688 1023.469 431.866 1024.385 430.792 C 1025.299 429.72 1027.158 429.801 1028.537 430.976 Z " fill="rgb(169,124,80)"/><path d=" M 1112.284 432.375 C 1110.187 435.405 1106.714 436.633 1104.525 435.117 C 1102.335 433.602 1102.26 429.919 1104.357 426.891 C 1106.453 423.861 1109.927 422.633 1112.116 424.148 C 1114.305 425.662 1114.38 429.346 1112.284 432.375 Z " fill="rgb(169,124,80)"/><path d=" M 1066.84 429.301 C 1068.782 431.609 1068.9 434.704 1067.104 436.216 C 1065.308 437.728 1062.279 437.082 1060.336 434.775 C 1058.395 432.467 1058.276 429.371 1060.073 427.86 C 1061.868 426.348 1064.898 426.994 1066.84 429.301 Z " fill="rgb(169,124,80)"/><path d=" M 1075.326 433.252 C 1076.369 434.492 1076.433 436.155 1075.468 436.967 C 1074.503 437.78 1072.875 437.432 1071.831 436.193 C 1070.788 434.953 1070.724 433.289 1071.69 432.477 C 1072.655 431.665 1074.282 432.011 1075.326 433.252 Z " fill="rgb(169,124,80)"/><path d=" M 1100.014 434.221 C 1099.208 435.627 1097.669 436.258 1096.574 435.632 C 1095.479 435.004 1095.245 433.356 1096.051 431.95 C 1096.857 430.544 1098.397 429.912 1099.491 430.539 C 1100.586 431.167 1100.821 432.816 1100.014 434.221 Z " fill="rgb(169,124,80)"/><path d=" M 1145.541 435.009 C 1144.737 436.415 1143.197 437.046 1142.101 436.42 C 1141.007 435.793 1140.773 434.145 1141.578 432.74 C 1142.384 431.332 1143.924 430.701 1145.02 431.328 C 1146.114 431.955 1146.349 433.604 1145.541 435.009 Z " fill="rgb(169,124,80)"/><path d=" M 1138.779 429.628 C 1137.306 431.529 1134.915 432.141 1133.437 430.996 C 1131.956 429.851 1131.95 427.382 1133.42 425.483 C 1134.892 423.582 1137.283 422.969 1138.763 424.115 C 1140.241 425.26 1140.249 427.727 1138.779 429.628 Z " fill="rgb(169,124,80)"/><path d=" M 1159.914 428.976 C 1162.087 430.828 1162.679 433.7 1161.238 435.392 C 1159.795 437.084 1156.866 436.952 1154.694 435.103 C 1152.521 433.249 1151.927 430.377 1153.368 428.686 C 1154.81 426.994 1157.74 427.123 1159.914 428.976 Z " fill="rgb(169,124,80)"/><path d=" M 1173.676 429.976 C 1175.054 431.152 1175.43 432.974 1174.514 434.046 C 1173.6 435.121 1171.74 435.038 1170.364 433.864 C 1168.985 432.688 1168.608 430.866 1169.523 429.792 C 1170.436 428.72 1172.296 428.801 1173.676 429.976 Z " fill="rgb(169,124,80)"/><path d=" M 1185.829 420.822 L 1183.143 420.822 L 1041.692 420.822 L 1040.157 420.822 L 897.649 420.822 L 897.649 431.828 C 898.66 431.87 899.764 432.037 900.834 432.038 C 904.004 432.04 907.478 431.976 910.293 431.153 C 913.404 430.244 913.704 428.314 917.934 428.408 C 920.826 428.472 923.034 429.577 925.694 430.003 C 928.945 430.523 932.304 430.626 935.106 429.735 C 937.486 428.977 938.776 427.584 941.786 427.326 C 944.485 427.095 945.364 429.072 948.413 429.13 C 954.669 429.254 957.521 427.893 959.34 427.441 C 963.445 426.422 966.919 425.976 970.653 426.724 C 975.421 427.679 971.291 431.454 976.26 431.185 C 982.94 430.824 987.24 426.948 992.364 426.844 C 998.328 426.724 1000.109 428.173 1004.292 428.771 C 1008.276 429.342 1009.335 427.806 1013.334 428.439 C 1016.589 428.953 1019.189 430.66 1022.834 430.679 C 1024.876 430.69 1025.406 429.745 1032.476 430.087 C 1035.625 430.268 1034.832 431.778 1041.692 431.914 C 1042.702 431.955 1043.902 432.037 1044.972 432.038 C 1048.142 432.04 1051.616 431.976 1054.431 431.153 C 1057.542 430.244 1057.842 428.314 1062.073 428.408 C 1064.964 428.472 1067.172 429.577 1069.833 430.003 C 1073.084 430.523 1076.442 430.626 1079.243 429.735 C 1081.625 428.977 1082.914 427.584 1085.924 427.326 C 1088.623 427.095 1089.502 429.072 1092.551 429.13 C 1098.807 429.254 1101.659 427.893 1103.478 427.441 C 1107.584 426.422 1111.057 425.976 1114.791 426.724 C 1119.559 427.679 1115.428 431.454 1120.397 431.185 C 1127.077 430.824 1131.378 426.948 1136.501 426.844 C 1142.465 426.724 1144.247 428.173 1148.43 428.771 C 1152.414 429.342 1153.473 427.806 1157.471 428.439 C 1160.727 428.953 1163.327 430.66 1166.972 430.679 C 1169.014 430.69 1169.543 429.745 1176.614 430.087 C 1179.763 430.268 1178.971 431.778 1185.829 431.914 L 1185.829 431.867 C 1186.935 431.938 1188.338 432.037 1189.11 432.038 C 1192.281 432.04 1195.754 431.976 1198.569 431.153 C 1201.68 430.244 1201.98 428.314 1206.211 428.408 C 1209.102 428.472 1211.311 429.577 1213.97 430.003 C 1217.222 430.523 1220.58 430.626 1223.382 429.735 C 1225.763 428.977 1227.052 427.584 1230.062 427.326 C 1232.761 427.095 1233.64 429.072 1236.689 429.13 C 1242.945 429.254 1245.797 427.893 1247.616 427.441 C 1251.722 426.422 1255.195 425.976 1258.929 426.724 C 1263.697 427.679 1259.567 431.454 1264.534 431.185 C 1271.215 430.824 1275.517 426.948 1280.638 426.844 C 1286.603 426.724 1288.384 428.173 1292.567 428.771 C 1296.552 429.342 1297.611 427.806 1301.609 428.439 C 1304.864 428.953 1307.465 430.66 1311.111 430.679 C 1313.152 430.69 1313.681 429.745 1320.752 430.087 C 1323.901 430.268 1323.109 431.778 1329.967 431.914 L 1329.967 420.822 L 1185.829 420.822 Z " fill="rgb(169,124,80)"/><path d=" M 1256.421 432.375 C 1254.325 435.405 1250.852 436.633 1248.662 435.117 C 1246.474 433.602 1246.399 429.919 1248.494 426.891 C 1250.591 423.861 1254.066 422.633 1256.253 424.148 C 1258.444 425.662 1258.518 429.346 1256.421 432.375 Z " fill="rgb(169,124,80)"/><path d=" M 1210.978 429.301 C 1212.92 431.609 1213.038 434.704 1211.242 436.216 C 1209.447 437.728 1206.416 437.082 1204.474 434.775 C 1202.532 432.467 1202.414 429.371 1204.211 427.86 C 1206.006 426.348 1209.035 426.994 1210.978 429.301 Z " fill="rgb(169,124,80)"/><path d=" M 1219.464 433.252 C 1220.507 434.492 1220.571 436.155 1219.607 436.967 C 1218.641 437.78 1217.013 437.432 1215.969 436.193 C 1214.926 434.953 1214.862 433.289 1215.827 432.477 C 1216.792 431.665 1218.421 432.011 1219.464 433.252 Z " fill="rgb(169,124,80)"/><path d=" M 1244.153 434.221 C 1243.346 435.627 1241.807 436.258 1240.712 435.632 C 1239.616 435.004 1239.384 433.356 1240.189 431.95 C 1240.994 430.544 1242.534 429.912 1243.63 430.539 C 1244.724 431.167 1244.958 432.816 1244.153 434.221 Z " fill="rgb(169,124,80)"/><path d=" M 1284.679 434.009 C 1283.874 435.415 1282.334 436.046 1281.239 435.42 C 1280.145 434.793 1279.911 433.145 1280.717 431.74 C 1281.522 430.332 1283.062 429.701 1284.157 430.328 C 1285.251 430.955 1285.487 432.604 1284.679 434.009 Z " fill="rgb(169,124,80)"/><path d=" M 1282.916 429.628 C 1281.444 431.529 1279.054 432.141 1277.574 430.996 C 1276.094 429.851 1276.089 427.382 1277.558 425.483 C 1279.03 423.582 1281.421 422.969 1282.901 424.115 C 1284.379 425.26 1284.387 427.727 1282.916 429.628 Z " fill="rgb(169,124,80)"/><path d=" M 1304.052 428.976 C 1306.226 430.828 1306.816 433.7 1305.375 435.392 C 1303.933 437.084 1301.005 436.952 1298.831 435.103 C 1296.658 433.249 1296.066 430.377 1297.506 428.686 C 1298.947 426.994 1301.879 427.123 1304.052 428.976 Z " fill="rgb(169,124,80)"/><path d=" M 1313.813 431.976 C 1315.193 433.152 1315.567 434.974 1314.652 436.046 C 1313.739 437.121 1311.878 437.038 1310.501 435.864 C 1309.121 434.688 1308.745 432.866 1309.66 431.792 C 1310.573 430.72 1312.434 430.801 1313.813 431.976 Z " fill="rgb(169,124,80)"/><path d=" M 897.649 420.822 L 897.649 427.263 L 1329.635 427.263 L 1329.635 420.822 L 897.649 420.822 Z " fill="rgb(126,74,54)"/><path d=" M 1474.009 420.822 L 1455.151 420.822 L 1329.967 420.822 L 1329.967 437.407 L 1455.151 437.407 L 1474.009 437.407 L 1762.284 437.407 L 1762.284 420.822 L 1474.009 420.822 Z " fill="rgb(196,154,108)"/><path d=" M 1400.463 432.375 C 1398.367 435.405 1394.893 436.633 1392.704 435.117 C 1390.515 433.602 1390.44 429.919 1392.536 426.891 C 1394.632 423.861 1398.106 422.633 1400.295 424.148 C 1402.484 425.662 1402.559 429.346 1400.463 432.375 Z " fill="rgb(169,124,80)"/><path d=" M 1355.019 429.301 C 1356.961 431.609 1357.08 434.704 1355.284 436.216 C 1353.487 437.728 1350.458 437.082 1348.516 434.775 C 1346.574 432.467 1346.456 429.371 1348.252 427.86 C 1350.047 426.348 1353.077 426.994 1355.019 429.301 Z " fill="rgb(169,124,80)"/><path d=" M 1363.505 433.252 C 1364.549 434.492 1364.612 436.155 1363.647 436.967 C 1362.682 437.78 1361.054 437.432 1360.01 436.193 C 1358.967 434.953 1358.903 433.289 1359.869 432.477 C 1360.834 431.665 1362.462 432.011 1363.505 433.252 Z " fill="rgb(169,124,80)"/><path d=" M 1388.194 434.221 C 1387.388 435.627 1385.848 436.258 1384.753 435.632 C 1383.658 435.004 1383.424 433.356 1384.23 431.95 C 1385.036 430.544 1386.576 429.912 1387.671 430.539 C 1388.765 431.167 1389 432.816 1388.194 434.221 Z " fill="rgb(169,124,80)"/><path d=" M 1428.721 435.009 C 1427.915 436.415 1426.375 437.046 1425.281 436.42 C 1424.186 435.793 1423.952 434.145 1424.757 432.74 C 1425.563 431.332 1427.103 430.701 1428.198 431.328 C 1429.292 431.955 1429.527 433.604 1428.721 435.009 Z " fill="rgb(169,124,80)"/><path d=" M 1426.957 429.628 C 1425.485 431.529 1423.095 432.141 1421.615 430.996 C 1420.135 429.851 1420.129 427.382 1421.599 425.483 C 1423.071 423.582 1425.462 422.969 1426.942 424.115 C 1428.42 425.26 1428.429 427.727 1426.957 429.628 Z " fill="rgb(169,124,80)"/><path d=" M 1448.093 428.976 C 1450.266 430.828 1450.858 433.7 1449.416 435.392 C 1447.975 437.084 1445.045 436.952 1442.873 435.103 C 1440.7 433.249 1440.106 430.377 1441.548 428.686 C 1442.989 426.994 1445.919 427.123 1448.093 428.976 Z " fill="rgb(169,124,80)"/><path d=" M 1457.854 429.976 C 1459.233 431.152 1459.609 432.974 1458.694 434.046 C 1457.779 435.121 1455.92 435.038 1454.542 433.864 C 1453.163 432.688 1452.786 430.866 1453.702 429.792 C 1454.616 428.72 1456.475 428.801 1457.854 429.976 Z " fill="rgb(169,124,80)"/><path d=" M 1544.601 432.375 C 1542.504 435.405 1539.031 436.633 1536.842 435.117 C 1534.652 433.602 1534.577 429.919 1536.674 426.891 C 1538.77 423.861 1542.244 422.633 1544.433 424.148 C 1546.622 425.662 1546.697 429.346 1544.601 432.375 Z " fill="rgb(169,124,80)"/><path d=" M 1499.157 429.301 C 1501.099 431.609 1501.217 434.704 1499.421 436.216 C 1497.625 437.728 1494.596 437.082 1492.653 434.775 C 1490.712 432.467 1490.593 429.371 1492.39 427.86 C 1494.185 426.348 1497.215 426.994 1499.157 429.301 Z " fill="rgb(169,124,80)"/><path d=" M 1507.643 433.252 C 1508.686 434.492 1508.75 436.155 1507.785 436.967 C 1506.82 437.78 1505.192 437.432 1504.148 436.193 C 1503.105 434.953 1503.041 433.289 1504.007 432.477 C 1504.972 431.665 1506.599 432.011 1507.643 433.252 Z " fill="rgb(169,124,80)"/><path d=" M 1532.331 434.221 C 1531.525 435.627 1529.986 436.258 1528.891 435.632 C 1527.796 435.004 1527.562 433.356 1528.368 431.95 C 1529.174 430.544 1530.714 429.912 1531.808 430.539 C 1532.903 431.167 1533.138 432.816 1532.331 434.221 Z " fill="rgb(169,124,80)"/><path d=" M 1572.858 434.009 C 1572.054 435.415 1570.514 436.046 1569.418 435.42 C 1568.324 434.793 1568.09 433.145 1568.895 431.74 C 1569.701 430.332 1571.241 429.701 1572.337 430.328 C 1573.431 430.955 1573.666 432.604 1572.858 434.009 Z " fill="rgb(169,124,80)"/><path d=" M 1571.096 429.628 C 1569.623 431.529 1567.232 432.141 1565.754 430.996 C 1564.273 429.851 1564.267 427.382 1565.737 425.483 C 1567.209 423.582 1569.6 422.969 1571.08 424.115 C 1572.558 425.26 1572.566 427.727 1571.096 429.628 Z " fill="rgb(169,124,80)"/><path d=" M 1592.231 428.976 C 1594.404 430.828 1594.996 433.7 1593.555 435.392 C 1592.112 437.084 1589.183 436.952 1587.011 435.103 C 1584.838 433.249 1584.244 430.377 1585.685 428.686 C 1587.127 426.994 1590.057 427.123 1592.231 428.976 Z " fill="rgb(169,124,80)"/><path d=" M 1603.993 430.976 C 1605.371 432.152 1605.747 433.974 1604.831 435.046 C 1603.917 436.121 1602.057 436.038 1600.681 434.864 C 1599.302 433.688 1598.925 431.866 1599.84 430.792 C 1600.753 429.72 1602.613 429.801 1603.993 430.976 Z " fill="rgb(169,124,80)"/><path d=" M 1618.036 420.822 L 1615.347 420.822 L 1473.788 420.822 L 1472.252 420.822 L 1329.635 420.822 L 1329.635 431.828 C 1330.646 431.87 1331.751 432.037 1332.822 432.038 C 1335.994 432.04 1339.471 431.976 1342.288 431.153 C 1345.401 430.244 1345.701 428.314 1349.935 428.408 C 1352.829 428.472 1355.039 429.577 1357.701 430.003 C 1360.955 430.523 1364.316 430.626 1367.12 429.735 C 1369.502 428.977 1370.793 427.584 1373.805 427.326 C 1376.507 427.095 1377.386 429.072 1380.437 429.13 C 1386.698 429.254 1389.552 427.893 1391.373 427.441 C 1395.481 426.422 1398.957 425.976 1402.694 426.724 C 1407.466 427.679 1403.333 431.454 1408.306 431.185 C 1414.991 430.824 1419.294 426.948 1424.422 426.844 C 1430.391 426.724 1432.173 428.173 1436.359 428.771 C 1440.346 429.342 1441.406 427.806 1445.408 428.439 C 1448.666 428.953 1451.268 430.66 1454.915 430.679 C 1456.959 430.69 1457.489 429.745 1464.565 430.087 C 1467.716 430.268 1466.923 431.778 1473.788 431.914 C 1474.799 431.955 1476 432.037 1477.07 432.038 C 1480.243 432.04 1483.719 431.976 1486.537 431.153 C 1489.65 430.244 1489.95 428.314 1494.184 428.408 C 1497.078 428.472 1499.287 429.577 1501.95 430.003 C 1505.204 430.523 1508.565 430.626 1511.368 429.735 C 1513.751 428.977 1515.041 427.584 1518.054 427.326 C 1520.755 427.095 1521.635 429.072 1524.686 429.13 C 1530.947 429.254 1533.801 427.893 1535.621 427.441 C 1539.73 426.422 1543.206 425.976 1546.943 426.724 C 1551.715 427.679 1547.58 431.454 1552.553 431.185 C 1559.238 430.824 1563.543 426.948 1568.67 426.844 C 1574.638 426.724 1576.422 428.173 1580.608 428.771 C 1584.595 429.342 1585.655 427.806 1589.656 428.439 C 1592.914 428.953 1595.516 430.66 1599.164 430.679 C 1601.208 430.69 1601.737 429.745 1608.813 430.087 C 1611.965 430.268 1611.172 431.778 1618.036 431.914 L 1618.036 431.867 C 1619.142 431.938 1620.546 432.037 1621.319 432.038 C 1624.492 432.04 1627.968 431.976 1630.785 431.153 C 1633.899 430.244 1634.199 428.314 1638.433 428.408 C 1641.326 428.472 1643.537 429.577 1646.198 430.003 C 1649.453 430.523 1652.813 430.626 1655.617 429.735 C 1658 428.977 1659.29 427.584 1662.302 427.326 C 1665.004 427.095 1665.883 429.072 1668.935 429.13 C 1675.195 429.254 1678.05 427.893 1679.87 427.441 C 1683.979 426.422 1687.455 425.976 1691.192 426.724 C 1695.963 427.679 1691.83 431.454 1696.801 431.185 C 1703.487 430.824 1707.792 426.948 1712.917 426.844 C 1718.887 426.724 1720.669 428.173 1724.855 428.771 C 1728.844 429.342 1729.903 427.806 1733.904 428.439 C 1737.162 428.953 1739.765 430.66 1743.414 430.679 C 1745.456 430.69 1745.986 429.745 1753.062 430.087 C 1756.214 430.268 1755.421 431.778 1762.284 431.914 L 1762.284 420.822 L 1618.036 420.822 Z " fill="rgb(169,124,80)"/><path d=" M 1688.738 432.375 C 1686.642 435.405 1683.169 436.633 1680.979 435.117 C 1678.791 433.602 1678.716 429.919 1680.811 426.891 C 1682.908 423.861 1686.383 422.633 1688.57 424.148 C 1690.761 425.662 1690.835 429.346 1688.738 432.375 Z " fill="rgb(169,124,80)"/><path d=" M 1643.295 429.301 C 1645.237 431.609 1645.355 434.704 1643.559 436.216 C 1641.764 437.728 1638.733 437.082 1636.791 434.775 C 1634.849 432.467 1634.731 429.371 1636.528 427.86 C 1638.323 426.348 1641.352 426.994 1643.295 429.301 Z " fill="rgb(169,124,80)"/><path d=" M 1651.781 433.252 C 1652.824 434.492 1652.888 436.155 1651.924 436.967 C 1650.958 437.78 1649.33 437.432 1648.286 436.193 C 1647.243 434.953 1647.179 433.289 1648.144 432.477 C 1649.109 431.665 1650.738 432.011 1651.781 433.252 Z " fill="rgb(169,124,80)"/><path d=" M 1676.47 434.221 C 1675.663 435.627 1674.124 436.258 1673.029 435.632 C 1671.933 435.004 1671.701 433.356 1672.506 431.95 C 1673.311 430.544 1674.851 429.912 1675.947 430.539 C 1677.041 431.167 1677.275 432.816 1676.47 434.221 Z " fill="rgb(169,124,80)"/><path d=" M 1719.996 435.009 C 1719.191 436.415 1717.651 437.046 1716.556 436.42 C 1715.462 435.793 1715.228 434.145 1716.034 432.74 C 1716.839 431.332 1718.379 430.701 1719.474 431.328 C 1720.568 431.955 1720.804 433.604 1719.996 435.009 Z " fill="rgb(169,124,80)"/><path d=" M 1715.233 429.628 C 1713.761 431.529 1711.371 432.141 1709.891 430.996 C 1708.411 429.851 1708.406 427.382 1709.875 425.483 C 1711.347 423.582 1713.738 422.969 1715.218 424.115 C 1716.696 425.26 1716.704 427.727 1715.233 429.628 Z " fill="rgb(169,124,80)"/><path d=" M 1736.369 428.976 C 1738.543 430.828 1739.133 433.7 1737.692 435.392 C 1736.25 437.084 1733.322 436.952 1731.148 435.103 C 1728.975 433.249 1728.383 430.377 1729.823 428.686 C 1731.264 426.994 1734.196 427.123 1736.369 428.976 Z " fill="rgb(169,124,80)"/><path d=" M 1747.13 430.976 C 1748.51 432.152 1748.884 433.974 1747.969 435.046 C 1747.056 436.121 1745.195 436.038 1743.818 434.864 C 1742.438 433.688 1742.062 431.866 1742.977 430.792 C 1743.89 429.72 1745.751 429.801 1747.13 430.976 Z " fill="rgb(169,124,80)"/><path d=" M 1329.635 420.822 L 1329.635 427.263 L 1762.284 427.263 L 1762.284 420.822 L 1329.635 420.822 Z " fill="rgb(126,74,54)"/></svg>