<?xml version="1.0" encoding="UTF-8" standalone="no"?><!-- Generator: Gravit.io --><svg xmlns="http://www.w3.org/2000/svg" xmlns:xlink="http://www.w3.org/1999/xlink" style="isolation:isolate" viewBox="14 53.395 330 29.605" width="330pt" height="29.605pt"><defs><clipPath id="_clipPath_vnWymPXgvxgug1NVLBv0NnU7docHvqYK"><rect x="14" y="53.395" width="330" height="29.605"/></clipPath></defs><g clip-path="url(#_clipPath_vnWymPXgvxgug1NVLBv0NnU7docHvqYK)"><linearGradient id="_lgradient_53" x1="0" y1="0" x2="1" y2="0" gradientTransform="matrix(0,-86.036,86.036,0,178.981,105.592)" gradientUnits="userSpaceOnUse"><stop offset="0%" stop-opacity="1" style="stop-color:rgb(244,250,253)"/><stop offset="56.7196%" stop-opacity="1" style="stop-color:rgb(112,206,239)"/><stop offset="74.82159999999999%" stop-opacity="1" style="stop-color:rgb(70,198,238)"/><stop offset="76.02839999999999%" stop-opacity="1" style="stop-color:rgb(67,198,239)"/><stop offset="100%" stop-opacity="1" style="stop-color:rgb(67,198,239)"/></linearGradient><path d=" M 14 83 L 14 53.395 L 344 53.395 L 344 80.442 C 341.726 80.436 339.451 80.41 337.186 80.394 C 336.869 80.392 336.552 80.39 336.235 80.388 C 336.19 79.152 335.817 77.945 335.053 77.039 C 334.008 75.807 332.554 75.726 331.356 75.691 L 331.206 75.686 C 330.108 73.128 327.835 71.738 325.724 71.738 C 323.963 71.738 322.316 72.704 321.558 74.764 C 321.331 73.76 320.94 72.894 320.392 72.366 C 320.047 72.036 319.685 71.891 319.322 71.891 C 319.294 71.891 319.265 71.892 319.236 71.894 C 319.289 70.698 319.123 69.439 318.751 68.427 C 318.17 66.841 317.183 66.298 316.201 66.298 C 315.944 66.298 315.688 66.335 315.439 66.4 C 314.211 66.722 312.953 67.993 312.234 69.858 C 312.074 70.271 311.974 70.728 311.929 71.188 C 311.259 70.293 310.321 69.971 309.521 69.971 C 309.51 69.971 309.499 69.971 309.488 69.971 C 308.22 69.981 306.62 70.798 306.027 73.051 C 305.86 73.684 305.838 74.362 305.924 74.985 C 305.652 74.668 305.343 74.52 305.032 74.52 C 304.616 74.52 304.197 74.786 303.863 75.27 C 303.786 74.943 303.688 74.618 303.565 74.297 C 302.929 72.617 301.684 72.2 300.578 72.2 C 300.312 72.2 300.053 72.224 299.813 72.261 C 298.414 72.471 295.034 74.58 294.645 77.695 C 294.522 77.512 294.39 77.36 294.238 77.258 C 294.125 77.182 294.009 77.147 293.894 77.147 C 293.332 77.147 292.791 77.984 292.692 79.022 L 292.685 79.141 C 292.156 78.999 291.622 78.919 291.093 78.919 C 290.642 78.919 290.195 78.977 289.757 79.105 C 289.729 79.057 289.701 79.008 289.672 78.96 C 288.604 77.203 286.869 76.699 285.208 76.699 C 284.66 76.699 284.119 76.754 283.613 76.837 C 282.209 77.07 280.948 77.85 279.875 78.991 C 279.828 78.466 279.732 77.954 279.568 77.475 C 279.017 75.864 277.956 75.241 276.788 75.241 C 276.736 75.241 276.685 75.242 276.633 75.244 C 276.579 74.701 276.474 74.173 276.297 73.688 C 275.515 71.549 273.989 70.567 272.336 70.567 C 272.108 70.567 271.876 70.586 271.645 70.623 C 269.959 70.898 268.198 71.948 267.246 73.95 C 266.729 75.036 266.729 76.158 267.037 77.149 C 266.966 77.145 266.894 77.142 266.823 77.142 C 266.464 77.142 266.107 77.203 265.771 77.321 C 264.801 77.649 263.91 78.522 263.6 79.865 L 263.577 79.99 C 263.122 79.609 262.643 79.294 262.144 79.056 C 262.043 78.792 261.914 78.528 261.755 78.266 C 260.689 76.509 258.958 76.003 257.298 76.003 C 256.747 76.003 256.204 76.058 255.695 76.143 C 254.291 76.373 253.032 77.154 251.958 78.293 C 251.912 77.769 251.815 77.253 251.654 76.78 C 251.099 75.169 250.038 74.543 248.87 74.543 C 248.819 74.543 248.768 74.545 248.716 74.547 C 248.663 74.007 248.558 73.478 248.379 72.991 C 247.599 70.855 246.077 69.872 244.426 69.872 C 244.195 69.872 243.962 69.891 243.728 69.929 C 242.043 70.201 240.281 71.251 239.329 73.254 C 238.812 74.338 238.812 75.46 239.121 76.451 C 239.054 76.447 238.986 76.445 238.919 76.445 C 238.557 76.445 238.195 76.506 237.855 76.623 C 236.884 76.954 235.993 77.824 235.684 79.168 L 235.66 79.295 C 234.571 78.383 233.346 77.847 232.034 77.847 C 231.746 77.847 231.453 77.872 231.157 77.926 C 231.095 77.819 231.02 77.714 230.933 77.61 C 230.371 76.95 229.569 76.777 228.761 76.777 C 228.608 76.777 228.455 76.784 228.303 76.794 C 228.728 75.585 228.705 74.224 227.903 72.904 C 226.835 71.145 225.1 70.639 223.438 70.639 C 222.889 70.639 222.349 70.694 221.843 70.777 C 220.437 71.011 219.181 71.79 218.105 72.929 C 218.058 72.404 217.963 71.892 217.8 71.416 C 217.246 69.805 216.184 69.182 215.019 69.182 C 214.968 69.182 214.916 69.183 214.864 69.186 C 214.81 68.643 214.704 68.114 214.526 67.628 C 213.747 65.493 212.223 64.507 210.571 64.507 C 210.341 64.507 210.108 64.527 209.874 64.564 C 208.188 64.837 206.429 65.886 205.476 67.89 C 204.959 68.978 204.959 70.101 205.269 71.09 C 205.196 71.085 205.124 71.082 205.052 71.082 C 204.694 71.082 204.337 71.145 204.004 71.259 C 203.032 71.591 202.14 72.463 201.829 73.808 L 201.808 73.931 C 200.72 73.02 199.495 72.486 198.185 72.486 C 197.821 72.486 197.451 72.527 197.075 72.612 C 195.031 73.076 192.527 75.907 192.833 78.953 C 192.618 78.935 192.403 78.927 192.189 78.927 C 191.64 78.927 191.1 78.982 190.594 79.064 C 189.189 79.298 187.932 80.077 186.856 81.219 C 186.81 80.693 186.716 80.178 186.55 79.705 C 185.997 78.092 184.938 77.469 183.769 77.469 C 183.717 77.469 183.665 77.47 183.613 77.473 C 183.562 76.933 183.457 76.403 183.279 75.917 C 182.497 73.781 180.975 72.797 179.325 72.797 C 179.093 72.797 178.86 72.816 178.625 72.855 C 176.939 73.127 175.18 74.173 174.226 76.179 C 173.712 77.265 173.712 78.388 174.02 79.376 C 173.953 79.372 173.887 79.37 173.821 79.37 C 173.456 79.37 173.094 79.431 172.755 79.545 C 171.782 79.879 170.892 80.749 170.58 82.097 L 170.559 82.221 C 169.931 81.695 169.258 81.294 168.55 81.049 C 168.46 79.933 168.113 78.862 167.465 78.039 C 166.49 76.807 165.133 76.726 164.016 76.691 L 163.875 76.686 C 162.851 74.127 160.73 72.738 158.76 72.738 C 157.117 72.738 155.579 73.704 154.871 75.764 C 154.661 74.76 154.296 73.894 153.783 73.366 C 153.462 73.036 153.124 72.891 152.786 72.891 C 152.759 72.891 152.733 72.892 152.706 72.894 C 152.754 71.698 152.601 70.438 152.253 69.427 C 151.711 67.841 150.79 67.298 149.873 67.298 C 149.633 67.298 149.394 67.335 149.162 67.4 C 148.016 67.722 146.842 68.993 146.171 70.858 C 146.022 71.271 145.928 71.728 145.886 72.189 C 145.26 71.293 144.385 70.971 143.639 70.971 C 143.629 70.971 143.619 70.971 143.609 70.971 C 142.425 70.981 140.933 71.798 140.378 74.051 C 140.223 74.684 140.201 75.362 140.281 75.985 C 140.028 75.668 139.74 75.52 139.45 75.52 C 139.061 75.52 138.67 75.786 138.359 76.27 C 138.288 75.943 138.196 75.618 138.081 75.297 C 137.487 73.617 136.326 73.2 135.294 73.2 C 135.045 73.2 134.804 73.224 134.58 73.261 C 133.273 73.471 130.12 75.58 129.757 78.695 C 129.642 78.512 129.518 78.36 129.377 78.258 C 129.272 78.182 129.163 78.147 129.056 78.147 C 128.531 78.147 128.027 78.984 127.935 80.022 L 127.927 80.141 C 127.434 79.999 126.936 79.919 126.442 79.919 C 126.022 79.919 125.604 79.977 125.195 80.105 C 125.17 80.057 125.144 80.008 125.116 79.96 C 124.119 78.203 122.5 77.699 120.95 77.699 C 120.438 77.699 119.933 77.754 119.461 77.837 C 118.15 78.07 116.976 78.85 115.973 79.991 C 115.929 79.466 115.841 78.954 115.687 78.475 C 115.172 76.864 114.182 76.241 113.092 76.241 C 113.044 76.241 112.996 76.242 112.948 76.244 C 112.897 75.701 112.8 75.173 112.634 74.688 C 111.904 72.549 110.48 71.567 108.938 71.567 C 108.725 71.567 108.509 71.586 108.293 71.623 C 106.719 71.898 105.076 72.948 104.188 74.95 C 103.705 76.036 103.705 77.158 103.993 78.149 C 103.926 78.145 103.86 78.142 103.793 78.142 C 103.457 78.142 103.125 78.203 102.812 78.321 C 101.906 78.649 101.075 79.522 100.785 80.865 L 100.764 80.99 C 100.339 80.609 99.892 80.294 99.426 80.056 C 99.332 79.792 99.212 79.528 99.063 79.266 C 98.069 77.509 96.453 77.003 94.903 77.003 C 94.389 77.003 93.883 77.058 93.408 77.143 C 92.098 77.373 90.923 78.154 89.92 79.293 C 89.877 78.769 89.788 78.253 89.637 77.78 C 89.119 76.17 88.129 75.543 87.039 75.543 C 86.991 75.543 86.943 75.545 86.895 75.547 C 86.846 75.007 86.747 74.478 86.581 73.991 C 85.853 71.855 84.433 70.872 82.892 70.872 C 82.676 70.872 82.459 70.891 82.24 70.929 C 80.668 71.201 79.023 72.251 78.135 74.254 C 77.652 75.338 77.652 76.46 77.941 77.451 C 77.878 77.447 77.815 77.445 77.752 77.445 C 77.415 77.445 77.076 77.506 76.761 77.623 C 75.853 77.954 75.022 78.824 74.733 80.168 L 74.711 80.295 C 73.695 79.383 72.552 78.847 71.327 78.847 C 70.989 78.847 70.645 78.887 70.295 78.973 C 69.251 79.227 68.078 80.191 67.277 81.511 C 67.186 81.005 67.006 80.494 66.72 79.989 C 65.724 78.229 64.105 77.724 62.554 77.724 C 62.041 77.724 61.536 77.779 61.063 77.862 C 59.753 78.096 58.58 78.877 57.577 80.016 C 57.533 79.491 57.445 78.978 57.292 78.503 C 56.776 76.89 55.785 76.266 54.697 76.266 C 54.649 76.266 54.601 76.267 54.552 76.27 C 54.501 75.727 54.403 75.198 54.238 74.714 C 53.508 72.576 52.087 71.593 50.545 71.593 C 50.331 71.593 50.114 71.612 49.896 71.649 C 48.322 71.924 46.68 72.971 45.791 74.977 C 45.309 76.062 45.309 77.184 45.596 78.174 C 45.531 78.169 45.467 78.167 45.403 78.167 C 45.067 78.167 44.733 78.228 44.417 78.343 C 43.51 78.678 42.679 79.548 42.389 80.896 L 42.367 81.018 C 41.351 80.105 40.208 79.569 38.984 79.569 C 38.646 79.569 38.301 79.61 37.952 79.695 C 37.483 79.81 36.987 80.067 36.511 80.436 C 35.768 80.062 34.947 79.927 34.144 79.927 C 33.632 79.927 33.128 79.982 32.655 80.064 C 31.345 80.298 30.17 81.077 29.167 82.219 C 29.124 81.693 29.035 81.178 28.882 80.705 C 28.366 79.092 27.377 78.469 26.287 78.469 C 26.238 78.469 26.19 78.47 26.142 78.473 C 26.093 77.933 25.995 77.403 25.829 76.917 C 25.099 74.781 23.679 73.797 22.139 73.797 C 21.923 73.797 21.705 73.816 21.486 73.854 C 19.913 74.127 18.271 75.173 17.38 77.179 C 16.9 78.265 16.9 79.388 17.188 80.376 C 17.126 80.372 17.064 80.37 17.003 80.37 C 16.662 80.37 16.324 80.431 16.007 80.545 C 15.122 80.871 14.309 81.707 14 83 Z " fill="url(#_lgradient_53)"/></g></svg>