<?xml version="1.0" encoding="UTF-8" standalone="no"?><!-- Generator: Gravit.io --><svg xmlns="http://www.w3.org/2000/svg" xmlns:xlink="http://www.w3.org/1999/xlink" style="isolation:isolate" viewBox="0 0 330 20" width="330pt" height="20pt"><linearGradient id="_lgradient_0" x1="0" y1="0" x2="1" y2="0" gradientTransform="matrix(0,-58.122,86.036,0,164.981,35.262)" gradientUnits="userSpaceOnUse"><stop offset="0%" stop-opacity="1" style="stop-color:rgb(244,250,253)"/><stop offset="56.7196%" stop-opacity="1" style="stop-color:rgb(112,206,239)"/><stop offset="74.82159999999999%" stop-opacity="1" style="stop-color:rgb(70,198,238)"/><stop offset="76.02839999999999%" stop-opacity="1" style="stop-color:rgb(67,198,239)"/><stop offset="100%" stop-opacity="1" style="stop-color:rgb(67,198,239)"/></linearGradient><path d=" M 0 20 L 0 0 L 330 0 L 330 17.442 C 327.726 17.436 325.451 17.41 323.186 17.394 C 322.869 17.392 322.552 17.39 322.235 17.388 C 322.19 16.152 321.817 14.945 321.053 14.039 C 320.008 12.807 318.554 12.726 317.356 12.691 L 317.206 12.686 C 316.108 10.128 313.835 8.738 311.724 8.738 C 309.963 8.738 308.316 9.704 307.558 11.764 C 307.331 10.76 306.94 9.894 306.392 9.366 C 306.047 9.036 305.685 8.891 305.322 8.891 C 305.294 8.891 305.265 8.892 305.236 8.894 C 305.289 7.698 305.123 6.439 304.751 5.427 C 304.17 3.841 303.183 3.298 302.201 3.298 C 301.944 3.298 301.688 3.335 301.439 3.4 C 300.211 3.722 298.953 4.993 298.234 6.858 C 298.074 7.271 297.974 7.728 297.929 8.188 C 297.259 7.293 296.321 6.971 295.521 6.971 C 295.51 6.971 295.499 6.971 295.488 6.971 C 294.22 6.981 292.62 7.798 292.027 10.051 C 291.86 10.684 291.838 11.362 291.924 11.985 C 291.652 11.668 291.343 11.52 291.032 11.52 C 290.616 11.52 290.197 11.786 289.863 12.27 C 289.786 11.943 289.688 11.618 289.565 11.297 C 288.929 9.617 287.684 9.2 286.578 9.2 C 286.312 9.2 286.053 9.224 285.813 9.261 C 284.414 9.471 281.034 11.58 280.645 14.695 C 280.522 14.512 280.39 14.36 280.238 14.258 C 280.125 14.182 280.009 14.147 279.894 14.147 C 279.332 14.147 278.791 14.984 278.692 16.022 L 278.685 16.141 C 278.156 15.999 277.622 15.919 277.093 15.919 C 276.642 15.919 276.195 15.977 275.757 16.105 C 275.729 16.057 275.701 16.008 275.672 15.96 C 274.604 14.203 272.869 13.699 271.208 13.699 C 270.66 13.699 270.119 13.754 269.613 13.837 C 268.209 14.07 266.948 14.85 265.875 15.991 C 265.828 15.466 265.732 14.954 265.568 14.475 C 265.017 12.864 263.956 12.241 262.788 12.241 C 262.736 12.241 262.685 12.242 262.633 12.244 C 262.579 11.701 262.474 11.173 262.297 10.688 C 261.515 8.549 259.989 7.567 258.336 7.567 C 258.108 7.567 257.876 7.586 257.645 7.623 C 255.959 7.898 254.198 8.948 253.246 10.95 C 252.729 12.036 252.729 13.158 253.037 14.149 C 252.966 14.145 252.894 14.142 252.823 14.142 C 252.464 14.142 252.107 14.203 251.771 14.321 C 250.801 14.649 249.91 15.522 249.6 16.865 L 249.577 16.99 C 249.122 16.609 248.643 16.294 248.144 16.056 C 248.043 15.792 247.914 15.528 247.755 15.266 C 246.689 13.509 244.958 13.003 243.298 13.003 C 242.747 13.003 242.204 13.058 241.695 13.143 C 240.291 13.373 239.032 14.154 237.958 15.293 C 237.912 14.769 237.815 14.253 237.654 13.78 C 237.099 12.169 236.038 11.543 234.87 11.543 C 234.819 11.543 234.768 11.545 234.716 11.547 C 234.663 11.007 234.558 10.478 234.379 9.991 C 233.599 7.855 232.077 6.872 230.426 6.872 C 230.195 6.872 229.962 6.891 229.728 6.929 C 228.043 7.201 226.281 8.251 225.329 10.254 C 224.812 11.338 224.812 12.46 225.121 13.451 C 225.054 13.447 224.986 13.445 224.919 13.445 C 224.557 13.445 224.195 13.506 223.855 13.623 C 222.884 13.954 221.993 14.824 221.684 16.168 L 221.66 16.295 C 220.571 15.383 219.346 14.847 218.034 14.847 C 217.746 14.847 217.453 14.872 217.157 14.926 C 217.095 14.819 217.02 14.714 216.933 14.61 C 216.371 13.95 215.569 13.777 214.761 13.777 C 214.608 13.777 214.455 13.784 214.303 13.794 C 214.728 12.585 214.705 11.224 213.903 9.904 C 212.835 8.145 211.1 7.639 209.438 7.639 C 208.889 7.639 208.349 7.694 207.843 7.777 C 206.437 8.011 205.181 8.79 204.105 9.929 C 204.058 9.404 203.963 8.892 203.8 8.416 C 203.246 6.805 202.184 6.182 201.019 6.182 C 200.968 6.182 200.916 6.183 200.864 6.186 C 200.81 5.643 200.704 5.114 200.526 4.628 C 199.747 2.493 198.223 1.507 196.571 1.507 C 196.341 1.507 196.108 1.527 195.874 1.564 C 194.188 1.837 192.429 2.886 191.476 4.89 C 190.959 5.978 190.959 7.101 191.269 8.09 C 191.196 8.085 191.124 8.082 191.052 8.082 C 190.694 8.082 190.337 8.145 190.004 8.259 C 189.032 8.591 188.14 9.463 187.829 10.808 L 187.808 10.931 C 186.72 10.02 185.495 9.486 184.185 9.486 C 183.821 9.486 183.451 9.527 183.075 9.612 C 181.031 10.076 178.527 12.907 178.833 15.953 C 178.618 15.935 178.403 15.927 178.189 15.927 C 177.64 15.927 177.1 15.982 176.594 16.064 C 175.189 16.298 173.932 17.077 172.856 18.219 C 172.81 17.693 172.716 17.178 172.55 16.705 C 171.997 15.092 170.938 14.469 169.769 14.469 C 169.717 14.469 169.665 14.47 169.613 14.473 C 169.562 13.933 169.457 13.403 169.279 12.917 C 168.497 10.781 166.975 9.797 165.325 9.797 C 165.093 9.797 164.86 9.816 164.625 9.855 C 162.939 10.127 161.18 11.173 160.226 13.179 C 159.712 14.265 159.712 15.388 160.02 16.376 C 159.953 16.372 159.887 16.37 159.821 16.37 C 159.456 16.37 159.094 16.431 158.755 16.545 C 157.782 16.879 156.892 17.749 156.58 19.097 L 156.559 19.221 C 155.931 18.695 155.258 18.294 154.55 18.049 C 154.46 16.933 154.113 15.862 153.465 15.039 C 152.49 13.807 151.133 13.726 150.016 13.691 L 149.875 13.686 C 148.851 11.127 146.73 9.738 144.76 9.738 C 143.117 9.738 141.579 10.704 140.871 12.764 C 140.661 11.76 140.296 10.894 139.783 10.366 C 139.462 10.036 139.124 9.891 138.786 9.891 C 138.759 9.891 138.733 9.892 138.706 9.894 C 138.754 8.698 138.601 7.438 138.253 6.427 C 137.711 4.841 136.79 4.298 135.873 4.298 C 135.633 4.298 135.394 4.335 135.162 4.4 C 134.016 4.722 132.842 5.993 132.171 7.858 C 132.022 8.271 131.928 8.728 131.886 9.189 C 131.26 8.293 130.385 7.971 129.639 7.971 C 129.629 7.971 129.619 7.971 129.609 7.971 C 128.425 7.981 126.933 8.798 126.378 11.051 C 126.223 11.684 126.201 12.362 126.281 12.985 C 126.028 12.668 125.74 12.52 125.45 12.52 C 125.061 12.52 124.67 12.786 124.359 13.27 C 124.288 12.943 124.196 12.618 124.081 12.297 C 123.487 10.617 122.326 10.2 121.294 10.2 C 121.045 10.2 120.804 10.224 120.58 10.261 C 119.273 10.471 116.12 12.58 115.757 15.695 C 115.642 15.512 115.518 15.36 115.377 15.258 C 115.272 15.182 115.163 15.147 115.056 15.147 C 114.531 15.147 114.027 15.984 113.935 17.022 L 113.927 17.141 C 113.434 16.999 112.936 16.919 112.442 16.919 C 112.022 16.919 111.604 16.977 111.195 17.105 C 111.17 17.057 111.144 17.008 111.116 16.96 C 110.119 15.203 108.5 14.699 106.95 14.699 C 106.438 14.699 105.933 14.754 105.461 14.837 C 104.15 15.07 102.976 15.85 101.973 16.991 C 101.929 16.466 101.841 15.954 101.687 15.475 C 101.172 13.864 100.182 13.241 99.092 13.241 C 99.044 13.241 98.996 13.242 98.948 13.244 C 98.897 12.701 98.8 12.173 98.634 11.688 C 97.904 9.549 96.48 8.567 94.938 8.567 C 94.725 8.567 94.509 8.586 94.293 8.623 C 92.719 8.898 91.076 9.948 90.188 11.95 C 89.705 13.036 89.705 14.158 89.993 15.149 C 89.926 15.145 89.86 15.142 89.793 15.142 C 89.457 15.142 89.125 15.203 88.812 15.321 C 87.906 15.649 87.075 16.522 86.785 17.865 L 86.764 17.99 C 86.339 17.609 85.892 17.294 85.426 17.056 C 85.332 16.792 85.212 16.528 85.063 16.266 C 84.069 14.509 82.453 14.003 80.903 14.003 C 80.389 14.003 79.883 14.058 79.408 14.143 C 78.098 14.373 76.923 15.154 75.92 16.293 C 75.877 15.769 75.788 15.253 75.637 14.78 C 75.119 13.17 74.129 12.543 73.039 12.543 C 72.991 12.543 72.943 12.545 72.895 12.547 C 72.846 12.007 72.747 11.478 72.581 10.991 C 71.853 8.855 70.433 7.872 68.892 7.872 C 68.676 7.872 68.459 7.891 68.24 7.929 C 66.668 8.201 65.023 9.251 64.135 11.254 C 63.652 12.338 63.652 13.46 63.941 14.451 C 63.878 14.447 63.815 14.445 63.752 14.445 C 63.415 14.445 63.076 14.506 62.761 14.623 C 61.853 14.954 61.022 15.824 60.733 17.168 L 60.711 17.295 C 59.695 16.383 58.552 15.847 57.327 15.847 C 56.989 15.847 56.645 15.887 56.295 15.973 C 55.251 16.227 54.078 17.191 53.277 18.511 C 53.186 18.005 53.006 17.494 52.72 16.989 C 51.724 15.229 50.105 14.724 48.554 14.724 C 48.041 14.724 47.536 14.779 47.063 14.862 C 45.753 15.096 44.58 15.877 43.577 17.016 C 43.533 16.491 43.445 15.978 43.292 15.503 C 42.776 13.89 41.785 13.266 40.697 13.266 C 40.649 13.266 40.601 13.267 40.552 13.27 C 40.501 12.727 40.403 12.198 40.238 11.714 C 39.508 9.576 38.087 8.593 36.545 8.593 C 36.331 8.593 36.114 8.612 35.896 8.649 C 34.322 8.924 32.68 9.971 31.791 11.977 C 31.309 13.062 31.309 14.184 31.596 15.174 C 31.531 15.169 31.467 15.167 31.403 15.167 C 31.067 15.167 30.733 15.228 30.417 15.343 C 29.51 15.678 28.679 16.548 28.389 17.896 L 28.367 18.018 C 27.351 17.105 26.208 16.569 24.984 16.569 C 24.646 16.569 24.301 16.61 23.952 16.695 C 23.483 16.81 22.987 17.067 22.511 17.436 C 21.768 17.062 20.947 16.927 20.144 16.927 C 19.632 16.927 19.128 16.982 18.655 17.064 C 17.345 17.298 16.17 18.077 15.167 19.219 C 15.124 18.693 15.035 18.178 14.882 17.705 C 14.366 16.092 13.377 15.469 12.287 15.469 C 12.238 15.469 12.19 15.47 12.142 15.473 C 12.093 14.933 11.995 14.403 11.829 13.917 C 11.099 11.781 9.679 10.797 8.139 10.797 C 7.923 10.797 7.705 10.816 7.486 10.854 C 5.913 11.127 4.271 12.173 3.38 14.179 C 2.9 15.265 2.9 16.388 3.188 17.376 C 3.126 17.372 3.064 17.37 3.003 17.37 C 2.662 17.37 2.324 17.431 2.007 17.545 C 1.122 17.871 0.309 18.707 0 20 Z " fill="url(#_lgradient_0)"/></svg>